SplineFontDB: 3.2
FontName: tigger-regular-Italic
FullName: tigger-regular Italic
FamilyName: tigger
Weight: Regular
Copyright: (c) 2025 Tadhg O'Brien
Version: 2025.12
ItalicAngle: -40
UnderlinePosition: -150
UnderlineWidth: 50
Ascent: 800
Descent: 200
InvalidEm: 0
LayerCount: 2
Layer: 0 1 "Back" 1
Layer: 1 1 "Fore" 0
XUID: [1021 796 -163880829 13004990]
StyleMap: 0x0040
FSType: 0
OS2Version: 1
OS2_WeightWidthSlopeOnly: 0
OS2_UseTypoMetrics: 0
CreationTime: 1280473793
ModificationTime: 1760831645
PfmFamily: 17
TTFWeight: 500
TTFWidth: 5
LineGap: 90
VLineGap: 0
Panose: 2 0 6 3 0 0 0 0 0 0
OS2TypoAscent: 800
OS2TypoAOffset: 0
OS2TypoDescent: -200
OS2TypoDOffset: 0
OS2TypoLinegap: 90
OS2WinAscent: 843
OS2WinAOffset: 0
OS2WinDescent: 347
OS2WinDOffset: 0
HheadAscent: 843
HheadAOffset: 0
HheadDescent: -347
HheadDOffset: 0
OS2SubXSize: 650
OS2SubYSize: 700
OS2SubXOff: 0
OS2SubYOff: 140
OS2SupXSize: 650
OS2SupYSize: 700
OS2SupXOff: 0
OS2SupYOff: 480
OS2StrikeYSize: 49
OS2StrikeYPos: 258
OS2Vendor: '2ttf'
OS2CodePages: 00000001.00000000
OS2UnicodeRanges: a00000af.00010042.00000000.00000000
Lookup: 1 0 0 "'rtla' Right to Left Alternates lookup 0" { "'rtla' Right to Left Alternates lookup 0 subtable"  } ['rtla' ('DFLT' <'dflt' > ) ]
Lookup: 258 0 0 "'kern' Horizontal Kerning in Latin lookup 0" { "'kern' Horizontal Kerning in Latin lookup 0 subtable" [150,15,0] } ['kern' ('DFLT' <'dflt' > 'latn' <'dflt' > ) ]
MarkAttachClasses: 1
DEI: 91125
TtTable: prep
PUSHW_1
 511
SCANCTRL
PUSHB_1
 1
SCANTYPE
SVTCA[y-axis]
MPPEM
PUSHB_1
 8
LT
IF
PUSHB_2
 1
 1
INSTCTRL
EIF
PUSHB_2
 70
 6
CALL
IF
POP
PUSHB_1
 16
EIF
MPPEM
PUSHB_1
 20
GT
IF
POP
PUSHB_1
 128
EIF
SCVTCI
PUSHB_1
 6
CALL
NOT
IF
EIF
PUSHB_1
 20
CALL
EndTTInstrs
TtTable: fpgm
PUSHB_1
 0
FDEF
PUSHB_1
 0
SZP0
MPPEM
PUSHB_1
 42
LT
IF
PUSHB_1
 74
SROUND
EIF
PUSHB_1
 0
SWAP
MIAP[rnd]
RTG
PUSHB_1
 6
CALL
IF
RTDG
EIF
MPPEM
PUSHB_1
 42
LT
IF
RDTG
EIF
DUP
MDRP[rp0,rnd,grey]
PUSHB_1
 1
SZP0
MDAP[no-rnd]
RTG
ENDF
PUSHB_1
 1
FDEF
DUP

StartChar: .notdef
Encoding: 65536 -1 0
Width: 500
GlyphClass: 1
Flags: HW
LayerCount: 2
Fore
SplineSet
100 133.91015625 m 1,0,-1
 400 385.639648438 l 1,1,-1
 400 818.639648438 l 1,2,-1
 100 566.91015625 l 1,3,-1
 100 133.91015625 l 1,0,-1
50 41.955078125 m 1,4,-1
 50 574.955078125 l 1,5,-1
 450 910.594726562 l 1,6,-1
 450 377.594726562 l 1,7,-1
 50 41.955078125 l 1,4,-1
EndSplineSet
EndChar

StartChar: exclam
Encoding: 33 33 4
AltUni2: 00ff01.ffffffff.0 00fe57.ffffffff.0 00fe15.ffffffff.0 002762.ffffffff.0 00ff01.ffffffff.0 00fe57.ffffffff.0 00fe15.ffffffff.0 002762.ffffffff.0
Width: 176
GlyphClass: 1
Flags: HW
LayerCount: 2
Fore
SplineSet
93 193.036132812 m 0,0,1
 103 201.427734375 103 201.427734375 108 203.623046875 c 0,2,3
 130 211.083007812 130 211.083007812 144 209.830078125 c 0,4,5
 160 203.255859375 160 203.255859375 159 183.416992188 c 0,6,7
 157 143.73828125 157 143.73828125 119 97.8525390625 c 0,8,9
 102 76.587890625 102 76.587890625 87 67.001953125 c 0,10,11
 65 51.541015625 65 51.541015625 53 58.47265625 c 0,12,13
 41 66.4033203125 41 66.4033203125 44 91.919921875 c 0,14,15
 45 110.759765625 45 110.759765625 58 146.66796875 c 0,16,17
 70 178.737304688 70 178.737304688 93 193.036132812 c 0,0,1
165 775.451171875 m 0,18,19
 140 500.473632812 140 500.473632812 140 324.473632812 c 0,20,21
 140 311.473632812 140 311.473632812 130.5 294.002929688 c 128,-1,22
 121 276.53125 121 276.53125 107 264.783203125 c 0,23,24
 94 253.875 94 253.875 84.5 255.404296875 c 128,-1,25
 75 256.932617188 75 256.932617188 75 269.932617188 c 0,26,27
 75 452.932617188 75 452.932617188 101 728.749023438 c 0,28,29
 102 742.587890625 102 742.587890625 112 759.979492188 c 128,-1,30
 122 777.370117188 122 777.370117188 136 787.1171875 c 128,-1,31
 150 796.865234375 150 796.865234375 158 793.078125 c 128,-1,32
 166 789.291015625 166 789.291015625 165 775.451171875 c 0,18,19
EndSplineSet
EndChar

StartChar: quotedbl
Encoding: 34 34 5
AltUni2: 00ff02.ffffffff.0 00201d.ffffffff.0 00201c.ffffffff.0 00030e.ffffffff.0 00030b.ffffffff.0 0002ba.ffffffff.0 00ff02.ffffffff.0 00201d.ffffffff.0 00201c.ffffffff.0 00030e.ffffffff.0 00030b.ffffffff.0 0002ba.ffffffff.0
Width: 292
GlyphClass: 1
Flags: HW
LayerCount: 2
Fore
SplineSet
123 850.208984375 m 0,0,1
 94 723.875 94 723.875 104 629.266601562 c 0,2,3
 106 614.944335938 106 614.944335938 96 594.053710938 c 128,-1,4
 86 573.162109375 86 573.162109375 70 558.737304688 c 0,5,6
 54 543.311523438 54 543.311523438 42 543.2421875 c 128,-1,7
 30 543.172851562 30 543.172851562 28 557.495117188 c 0,8,9
 16 660.42578125 16 660.42578125 49 809.116210938 c 0,10,11
 53 828.47265625 53 828.47265625 67 847.719726562 c 128,-1,12
 81 866.966796875 81 866.966796875 97 876.392578125 c 0,13,14
 112 883.979492188 112 883.979492188 119.5 876.772460938 c 128,-1,15
 127 869.565429688 127 869.565429688 123 850.208984375 c 0,0,1
267 975.040039062 m 0,16,17
 234 824.349609375 234 824.349609375 255 746.970703125 c 0,18,19
 258 733.487304688 258 733.487304688 249.5 713.35546875 c 128,-1,20
 241 693.22265625 241 693.22265625 225 675.797851562 c 0,21,22
 209 659.372070312 209 659.372070312 196 657.463867188 c 128,-1,23
 183 655.555664062 183 655.555664062 180 668.038085938 c 0,24,25
 156 759.899414062 156 759.899414062 192 931.107421875 c 0,26,27
 196 950.463867188 196 950.463867188 209.5 969.791015625 c 128,-1,28
 223 989.119140625 223 989.119140625 239 998.544921875 c 0,29,30
 254 1006.13085938 254 1006.13085938 262.5 1000.26367188 c 128,-1,31
 271 994.396484375 271 994.396484375 267 975.040039062 c 0,16,17
EndSplineSet
EndChar

StartChar: numbersign
Encoding: 35 35 6
AltUni2: 00ff03.ffffffff.0 00fe5f.ffffffff.0 00ff03.ffffffff.0 00fe5f.ffffffff.0
Width: 731
GlyphClass: 1
Flags: HW
LayerCount: 2
Fore
SplineSet
459 805.146484375 m 1,0,1
 362 717.75390625 362 717.75390625 329 689.063476562 c 0,2,3
 320 680.51171875 320 680.51171875 303 666.247070312 c 1,4,5
 303 660.247070312 303 660.247070312 302.5 653.828125 c 128,-1,6
 302 647.408203125 302 647.408203125 301 639.569335938 c 128,-1,7
 300 631.729492188 300 631.729492188 300 627.729492188 c 0,8,9
 295 573.534179688 295 573.534179688 295 513.534179688 c 1,10,-1
 297 515.212890625 l 2,11,12
 357 565.55859375 357 565.55859375 463 658.502929688 c 1,13,14
 461 691.825195312 461 691.825195312 459 759.146484375 c 2,15,-1
 459 805.146484375 l 1,0,1
47 303.4375 m 0,16,17
 85 336.323242188 85 336.323242188 178 414.359375 c 2,18,-1
 230 457.993164062 l 1,19,20
 230 520.993164062 230 520.993164062 235 579.188476562 c 2,21,-1
 238 608.706054688 l 1,22,23
 152 534.54296875 152 534.54296875 55 452.150390625 c 0,24,25
 42 440.2421875 42 440.2421875 32.5 441.770507812 c 128,-1,26
 23 443.298828125 23 443.298828125 22 456.459960938 c 0,27,28
 22 469.459960938 22 469.459960938 31 486.51171875 c 128,-1,29
 40 503.564453125 40 503.564453125 54 516.311523438 c 0,30,31
 185 627.233398438 185 627.233398438 245 680.579101562 c 1,32,33
 246 689.418945312 246 689.418945312 248 709.096679688 c 0,34,35
 258 802.487304688 258 802.487304688 260 825.166015625 c 0,36,37
 266 884.200195312 266 884.200195312 266 919.200195312 c 0,38,39
 266 933.200195312 266 933.200195312 275 949.751953125 c 128,-1,40
 284 966.3046875 284 966.3046875 298 978.051757812 c 128,-1,41
 312 989.798828125 312 989.798828125 321.5 988.270507812 c 128,-1,42
 331 986.7421875 331 986.7421875 331 973.7421875 c 0,43,44
 331 934.7421875 331 934.7421875 325 872.70703125 c 0,45,46
 324 865.868164062 324 865.868164062 322.5 847.109375 c 128,-1,47
 321 828.350585938 321 828.350585938 319 815.672851562 c 0,48,49
 317 797.994140625 317 797.994140625 316 786.155273438 c 0,50,51
 316 782.155273438 316 782.155273438 312 754.798828125 c 0,52,53
 312 752.798828125 312 752.798828125 311.5 746.879882812 c 128,-1,54
 311 740.959960938 311 740.959960938 311 737.959960938 c 1,55,56
 321 746.350585938 321 746.350585938 327 752.385742188 c 0,57,58
 358 779.397460938 358 779.397460938 460 870.985351562 c 1,59,60
 461 881.825195312 461 881.825195312 461.5 904.244140625 c 128,-1,61
 462 926.6640625 462 926.6640625 462 937.6640625 c 0,62,63
 465 1066.18164062 465 1066.18164062 464 1086.34179688 c 0,64,65
 464 1100.34179688 464 1100.34179688 473.5 1117.81347656 c 128,-1,66
 483 1135.28515625 483 1135.28515625 496 1146.19335938 c 0,67,68
 510 1158.94042969 510 1158.94042969 519.5 1157.41210938 c 128,-1,69
 529 1155.88378906 529 1155.88378906 529 1142.88378906 c 0,70,71
 530 1121.72265625 530 1121.72265625 527 990.205078125 c 0,72,73
 527 980.205078125 527 980.205078125 526.5 959.786132812 c 128,-1,74
 526 939.366210938 526 939.366210938 525 929.52734375 c 1,75,76
 590 988.068359375 590 988.068359375 680 1071.58789062 c 0,77,78
 693 1083.49609375 693 1083.49609375 703 1083.38671875 c 128,-1,79
 713 1083.27832031 713 1083.27832031 715 1070.95605469 c 0,80,81
 716 1057.79492188 716 1057.79492188 707 1040.24316406 c 128,-1,82
 698 1022.69140625 698 1022.69140625 685 1010.78320312 c 0,83,84
 592 924.747070312 592 924.747070312 524 863.688476562 c 1,85,-1
 524 813.688476562 l 2,86,87
 526 747.366210938 526 747.366210938 528 716.044921875 c 1,88,89
 630 809.6328125 630 809.6328125 685 861.783203125 c 0,90,91
 699 875.530273438 699 875.530273438 709 874.921875 c 128,-1,92
 719 874.3125 719 874.3125 720 862.151367188 c 128,-1,93
 721 849.991210938 721 849.991210938 713 832.778320312 c 128,-1,94
 705 815.565429688 705 815.565429688 692 802.657226562 c 0,95,96
 618 732.563476562 618 732.563476562 533 656.240234375 c 1,97,98
 534 651.079101562 534 651.079101562 535.5 641.337890625 c 128,-1,99
 537 631.596679688 537 631.596679688 538 626.435546875 c 0,100,101
 553 545.022460938 553 545.022460938 583 530.1953125 c 0,102,103
 591 526.908203125 591 526.908203125 589 511.729492188 c 128,-1,104
 587 496.551757812 587 496.551757812 576 479.321289062 c 128,-1,105
 565 462.090820312 565 462.090820312 552 452.682617188 c 128,-1,106
 539 443.274414062 539 443.274414062 531 447.561523438 c 0,107,108
 491 466.998046875 491 466.998046875 474 562.733398438 c 0,109,110
 470 585.376953125 470 585.376953125 468 597.698242188 c 1,111,112
 360 503.076171875 360 503.076171875 298 451.051757812 c 1,113,114
 298 448.051757812 298 448.051757812 298.5 443.971679688 c 128,-1,115
 299 439.890625 299 439.890625 299 437.890625 c 0,116,117
 311 356.959960938 311 356.959960938 351 340.524414062 c 0,118,119
 359 337.236328125 359 337.236328125 357.5 321.978515625 c 128,-1,120
 356 306.719726562 356 306.719726562 346 290.328125 c 128,-1,121
 336 273.9375 336 273.9375 322 263.690429688 c 128,-1,122
 308 253.442382812 308 253.442382812 300 256.729492188 c 0,123,124
 249 277.935546875 249 277.935546875 235 376.188476562 c 0,125,126
 233 388.509765625 233 388.509765625 233 395.509765625 c 1,127,-1
 178 349.359375 l 2,128,129
 86 272.162109375 86 272.162109375 48 239.276367188 c 0,130,131
 35 228.368164062 35 228.368164062 25 229.477539062 c 128,-1,132
 15 230.586914062 15 230.586914062 15 243.586914062 c 0,133,134
 15 257.586914062 15 257.586914062 24.5 275.057617188 c 128,-1,135
 34 292.529296875 34 292.529296875 47 303.4375 c 0,16,17
EndSplineSet
EndChar

StartChar: dollar
Encoding: 36 36 7
AltUni2: 00ff04.ffffffff.0 00fe69.ffffffff.0 00ff04.ffffffff.0 00fe69.ffffffff.0
Width: 535
GlyphClass: 1
Flags: HW
LayerCount: 2
Fore
SplineSet
334 385.258789062 m 2,0,-1
 315 361.31640625 l 1,1,-1
 315 488.31640625 l 2,2,3
 316 503.155273438 316 503.155273438 316 539.155273438 c 2,4,-1
 316 615.155273438 l 1,5,-1
 330 625.903320312 l 2,6,7
 378 663.1796875 378 663.1796875 402 670.318359375 c 0,8,9
 422 677.099609375 422 677.099609375 435 669.008789062 c 0,10,11
 450 655.594726562 450 655.594726562 450 618.594726562 c 0,12,13
 450 565.594726562 450 565.594726562 386 463.892578125 c 0,14,15
 361 420.915039062 361 420.915039062 334 385.258789062 c 2,0,-1
131 540.921875 m 2,16,17
 130 551.083007812 130 551.083007812 130 556.083007812 c 0,18,19
 130 582.083007812 130 582.083007812 150 625.865234375 c 1,20,-1
 151 627.704101562 l 1,21,22
 176 679.681640625 176 679.681640625 224 745.958007812 c 0,23,24
 231 756.83203125 231 756.83203125 238 764.706054688 c 2,25,-1
 255 781.970703125 l 1,26,27
 252 711.453125 252 711.453125 252 708.453125 c 2,28,-1
 252 707.453125 l 2,29,30
 251 699.614257812 251 699.614257812 251 677.614257812 c 128,-1,31
 251 655.614257812 251 655.614257812 249 630.935546875 c 1,32,33
 212 597.888671875 212 597.888671875 191 580.267578125 c 0,34,35
 173 565.1640625 173 565.1640625 159 555.416992188 c 0,36,37
 144 543.830078125 144 543.830078125 141 543.313476562 c 2,38,-1
 132 535.760742188 l 1,39,-1
 131 539.921875 l 1,40,-1
 131 540.921875 l 2,16,17
319 793.172851562 m 128,-1,42
 321 827.350585938 321 827.350585938 322 863.190429688 c 1,43,44
 353 894.202148438 353 894.202148438 369 907.627929688 c 128,-1,45
 385 921.053710938 385 921.053710938 397 928.122070312 c 0,46,47
 401 929.478515625 401 929.478515625 405 932.834960938 c 0,48,49
 415 941.2265625 415 941.2265625 425 955.6171875 c 0,50,51
 437 972.686523438 437 972.686523438 440 990.204101562 c 0,52,53
 442 996.881835938 442 996.881835938 442 1004.38183594 c 128,-1,54
 442 1011.88183594 442 1011.88183594 436 1016.84765625 c 0,55,56
 429 1022.97363281 429 1022.97363281 413 1012.54785156 c 0,57,58
 393 1001.76660156 393 1001.76660156 364 977.432617188 c 0,59,60
 352 967.36328125 352 967.36328125 326 943.546875 c 1,61,62
 326 987.546875 326 987.546875 326 1008.546875 c 128,-1,63
 326 1029.546875 326 1029.546875 326 1044.546875 c 0,64,65
 325 1058.70703125 325 1058.70703125 315 1059.81640625 c 128,-1,66
 305 1060.92578125 305 1060.92578125 292 1050.01757812 c 0,67,68
 277 1037.43066406 277 1037.43066406 268.5 1018.79785156 c 128,-1,69
 260 1000.16601562 260 1000.16601562 260 987.166015625 c 0,70,71
 260 986.166015625 260 986.166015625 260.5 978.0859375 c 128,-1,72
 261 970.004882812 261 970.004882812 261 946.004882812 c 128,-1,73
 261 922.004882812 261 922.004882812 259 870.327148438 c 1,74,75
 222 825.280273438 222 825.280273438 196 790.463867188 c 0,76,77
 130 703.083007812 130 703.083007812 93 625.036132812 c 1,78,-1
 92 623.197265625 l 1,79,80
 55 548.150390625 55 548.150390625 55 495.150390625 c 0,81,82
 55 481.150390625 55 481.150390625 58 468.66796875 c 0,83,84
 65 441.541015625 65 441.541015625 92 445.197265625 c 0,85,86
 111 447.139648438 111 447.139648438 144 469.830078125 c 0,87,88
 165 483.451171875 165 483.451171875 196 509.463867188 c 0,89,90
 199 511.98046875 199 511.98046875 250 557.775390625 c 1,91,-1
 250 432.775390625 l 2,92,93
 250 345.775390625 250 345.775390625 248 292.096679688 c 1,94,95
 233 279.509765625 233 279.509765625 230 276.993164062 c 0,96,97
 179 234.19921875 179 234.19921875 91 177.358398438 c 0,98,99
 87 175.001953125 87 175.001953125 84 172.484375 c 0,100,101
 73 163.25390625 73 163.25390625 64 149.702148438 c 0,102,103
 51 129.793945312 51 129.793945312 48 112.276367188 c 0,104,105
 47 106.4375 47 106.4375 47 104.4375 c 0,106,107
 47 93.4375 47 93.4375 53 88.47265625 c 0,108,109
 62 84.0244140625 62 84.0244140625 77 93.6103515625 c 0,110,111
 175 155.842773438 175 155.842773438 232 203.670898438 c 2,112,-1
 246 215.418945312 l 1,113,114
 242 123.0625 242 123.0625 236 58.02734375 c 0,115,116
 236 55.02734375 236 55.02734375 236 54.02734375 c 0,117,118
 236 42.02734375 236 42.02734375 244 37.740234375 c 0,119,120
 253 31.2919921875 253 31.2919921875 270 45.556640625 c 0,121,122
 281 54.787109375 281 54.787109375 290.5 71.7587890625 c 128,-1,123
 300 88.7294921875 300 88.7294921875 301 105.569335938 c 0,124,125
 309 185.282226562 309 185.282226562 312 280.798828125 c 1,126,-1
 321 290.350585938 l 1,127,128
 379 358.018554688 379 358.018554688 429 439.973632812 c 0,129,130
 473 509.89453125 473 509.89453125 496 568.193359375 c 1,131,-1
 496 568.193359375 l 1,132,133
 524 633.688476562 524 633.688476562 524 679.688476562 c 0,134,135
 524 683.688476562 524 683.688476562 524 687.688476562 c 1,136,-1
 524 687.688476562 l 1,137,138
 520 793.33203125 520 793.33203125 433 763.330078125 c 0,139,140
 402 752.318359375 402 752.318359375 361 723.915039062 c 0,141,142
 337 705.776367188 337 705.776367188 330 699.903320312 c 2,143,-1
 317 688.994140625 l 1,144,-1
 317 703.994140625 l 2,145,41
 317 758.994140625 317 758.994140625 319 793.172851562 c 128,-1,42
EndSplineSet
EndChar

StartChar: percent
Encoding: 37 37 8
AltUni2: 00ff05.ffffffff.0 00fe6a.ffffffff.0 00066a.ffffffff.0 00ff05.ffffffff.0 00fe6a.ffffffff.0 00066a.ffffffff.0
Width: 671
GlyphClass: 1
Flags: HW
LayerCount: 2
Fore
SplineSet
530 503.72265625 m 0,0,1
 518 463.653320312 518 463.653320312 495 438.354492188 c 0,2,3
 484 427.124023438 484 427.124023438 476.5 420.831054688 c 128,-1,4
 469 414.538085938 469 414.538085938 462.5 411.083984375 c 128,-1,5
 456 407.629882812 456 407.629882812 447 407.077148438 c 0,6,7
 436 411.84765625 436 411.84765625 436 446.84765625 c 0,8,9
 436 472.84765625 436 472.84765625 450.5 512.014648438 c 128,-1,10
 465 551.181640625 465 551.181640625 489 583.319335938 c 2,11,-1
 494 589.515625 l 1,12,13
 503 594.067382812 503 594.067382812 507.5 597.842773438 c 128,-1,14
 512 601.619140625 512 601.619140625 530 619.72265625 c 1,15,-1
 533 609.240234375 l 2,16,17
 539 591.274414062 539 591.274414062 539 565.274414062 c 0,18,19
 539 535.274414062 539 535.274414062 530 503.72265625 c 0,0,1
490 651.159179688 m 1,20,21
 478 644.08984375 478 644.08984375 472 639.0546875 c 256,22,23
 466 634.020507812 466 634.020507812 460 624.985351562 c 0,24,25
 418 568.743164062 418 568.743164062 393 502.266601562 c 128,-1,26
 368 435.7890625 368 435.7890625 368 388.7890625 c 0,27,28
 368 387.7890625 368 387.7890625 368 385.7890625 c 1,29,-1
 368 385.7890625 l 1,30,31
 368 321.7890625 368 321.7890625 403 315.157226562 c 0,32,33
 433 310.330078125 433 310.330078125 476 346.411132812 c 0,34,35
 489 357.319335938 489 357.319335938 506 374.583984375 c 0,36,37
 568 436.608398438 568 436.608398438 596 529.103515625 c 0,38,39
 613 583.368164062 613 583.368164062 613 631.368164062 c 0,40,41
 613 642.368164062 613 642.368164062 612 654.529296875 c 0,42,43
 607 705.333007812 607 705.333007812 578 716 c 0,44,45
 558 724.217773438 558 724.217773438 529 699.883789062 c 0,46,47
 511 684.780273438 511 684.780273438 495 659.354492188 c 2,48,-1
 490 651.159179688 l 1,20,21
219 725.762695312 m 0,49,50
 219 696.762695312 219 696.762695312 211 671.049804688 c 0,51,52
 200 636.8203125 200 636.8203125 175 610.842773438 c 0,53,54
 157 592.73828125 157 592.73828125 141 581.313476562 c 0,55,56
 129 576.244140625 129 576.244140625 125 576.887695312 c 0,57,58
 113 575.818359375 113 575.818359375 113 598.818359375 c 0,59,60
 113 599.818359375 113 599.818359375 113 601.818359375 c 0,61,62
 113 630.818359375 113 630.818359375 129 675.244140625 c 0,63,64
 144 718.830078125 144 718.830078125 169 753.807617188 c 1,65,66
 171 774.486328125 171 774.486328125 174 761.002929688 c 1,67,68
 183 766.555664062 183 766.555664062 187.5 770.331054688 c 128,-1,69
 192 774.107421875 192 774.107421875 210 792.2109375 c 1,70,71
 217 759.084960938 217 759.084960938 218 743.923828125 c 1,72,73
 218 745.923828125 218 745.923828125 218 743.923828125 c 1,74,75
 219 734.762695312 219 734.762695312 219 725.762695312 c 0,49,50
170 823.646484375 m 1,76,77
 159 818.416992188 159 818.416992188 153 813.381835938 c 256,78,79
 147 808.34765625 147 808.34765625 138 794.795898438 c 0,80,81
 94 734.875 94 734.875 66 662.380859375 c 0,82,83
 39 589.724609375 39 589.724609375 39 538.724609375 c 0,84,85
 39 537.724609375 39 537.724609375 39 535.724609375 c 1,86,-1
 39 535.724609375 l 1,87,88
 39 478.724609375 39 478.724609375 77 479.610351562 c 0,89,90
 109 479.461914062 109 479.461914062 156 518.899414062 c 0,91,92
 240 589.383789062 240 589.383789062 272 689.235351562 c 0,93,94
 288 741.661132812 288 741.661132812 288 784.661132812 c 0,95,96
 288 797.661132812 288 797.661132812 287 808.821289062 c 0,97,98
 282 865.625976562 282 865.625976562 256 880.809570312 c 0,99,100
 236 896.02734375 236 896.02734375 208 872.533203125 c 0,101,102
 192 859.107421875 192 859.107421875 175 829.842773438 c 1,103,104
 173 833.1640625 173 833.1640625 170 823.646484375 c 1,76,77
108 63.623046875 m 0,105,106
 106 57.9443359375 106 57.9443359375 106 52.9443359375 c 0,107,108
 106 42.9443359375 106 42.9443359375 111 35.1396484375 c 0,109,110
 118 22.013671875 118 22.013671875 133 27.6005859375 c 0,111,112
 140 31.4736328125 140 31.4736328125 146 36.5087890625 c 128,-1,113
 152 41.54296875 152 41.54296875 161 55.0947265625 c 0,114,115
 173 75.1640625 173 75.1640625 177 98.5205078125 c 0,116,117
 223 288.119140625 223 288.119140625 370 624.466796875 c 0,118,119
 509 943.1015625 509 943.1015625 646 1179.05859375 c 1,120,121
 660 1197.80566406 660 1197.80566406 660 1209.80566406 c 0,122,123
 660 1226.80566406 660 1226.80566406 651 1233.25390625 c 0,124,125
 641 1243.86328125 641 1243.86328125 623 1228.75878906 c 0,126,127
 610 1217.85058594 610 1217.85058594 600 1197.45996094 c 0,128,129
 462 958.6640625 462 958.6640625 316 624.155273438 c 0,130,131
 160 269.255859375 160 269.255859375 108 63.623046875 c 0,105,106
EndSplineSet
EndChar

StartChar: ampersand
Encoding: 38 38 9
AltUni2: 00ff06.ffffffff.0 00fe60.ffffffff.0 00ff06.ffffffff.0 00fe60.ffffffff.0
Width: 650
GlyphClass: 1
Flags: HW
LayerCount: 2
Fore
SplineSet
356 1036.71972656 m 0,0,1
 311 991.959960938 311 991.959960938 254.5 892.05078125 c 128,-1,2
 198 792.141601562 198 792.141601562 168 706.96875 c 0,3,4
 154 665.221679688 154 665.221679688 150 642.865234375 c 128,-1,5
 146 620.508789062 146 620.508789062 146 579.508789062 c 128,-1,6
 146 538.508789062 146 538.508789062 157 498.73828125 c 128,-1,7
 168 458.96875 168 458.96875 176 450.681640625 c 128,-1,8
 184 442.39453125 184 442.39453125 184 435.39453125 c 2,9,-1
 154 357.221679688 l 1,10,11
 64 154.702148438 64 154.702148438 64 71.7021484375 c 0,12,13
 64 41.7021484375 64 41.7021484375 67.5 37.1396484375 c 128,-1,14
 71 32.576171875 71 32.576171875 94 36.875 c 0,15,16
 161 48.0947265625 161 48.0947265625 262.5 144.763671875 c 128,-1,17
 364 241.432617188 364 241.432617188 438 363.525390625 c 1,18,-1
 468 410.698242188 l 1,19,-1
 498 413.872070312 l 1,20,21
 528 409.044921875 528 409.044921875 558 434.217773438 c 2,22,-1
 588 459.390625 l 1,23,-1
 588 526.390625 l 1,24,25
 581 528.516601562 581 528.516601562 569.5 518.8671875 c 128,-1,26
 558 509.217773438 558 509.217773438 544 512.469726562 c 2,27,-1
 528 514.044921875 l 1,28,-1
 558 576.217773438 l 1,29,-1
 506 585.583984375 l 1,30,-1
 491 557.998046875 l 1,31,32
 468 523.698242188 468 523.698242188 464.5 520.76171875 c 128,-1,33
 461 517.825195312 461 517.825195312 397.5 520.541992188 c 128,-1,34
 334 523.258789062 334 523.258789062 311 526.959960938 c 2,35,-1
 288 529.661132812 l 1,36,-1
 304 573.0859375 l 1,37,38
 386 746.892578125 386 746.892578125 431 871.15234375 c 128,-1,39
 476 995.411132812 476 995.411132812 476 1040.41113281 c 128,-1,40
 476 1085.41113281 476 1085.41113281 468.5 1097.61816406 c 128,-1,41
 461 1109.82519531 461 1109.82519531 438.5 1102.4453125 c 128,-1,42
 416 1095.06542969 416 1095.06542969 401 1082.47851562 c 128,-1,43
 386 1069.89257812 386 1069.89257812 356 1036.71972656 c 0,0,1
341 927.1328125 m 0,44,45
 378 980.1796875 378 980.1796875 389.5 989.829101562 c 128,-1,46
 401 999.478515625 401 999.478515625 394 963.60546875 c 0,47,48
 378 883.1796875 378 883.1796875 304 708.0859375 c 2,49,-1
 258 602.487304688 l 2,50,51
 244 575.740234375 244 575.740234375 240 572.383789062 c 128,-1,52
 236 569.02734375 236 569.02734375 228 584.314453125 c 0,53,54
 206 648.854492188 206 648.854492188 243.5 743.8203125 c 128,-1,55
 281 838.787109375 281 838.787109375 341 927.1328125 c 0,44,45
214 355.567382812 m 2,56,-1
 244 425.740234375 l 1,57,-1
 348 415.006835938 l 1,58,-1
 408 413.352539062 l 1,59,60
 416 420.065429688 416 420.065429688 390 379.249023438 c 128,-1,61
 364 338.432617188 364 338.432617188 330 294.903320312 c 128,-1,62
 296 251.373046875 296 251.373046875 247 210.2578125 c 128,-1,63
 198 169.141601562 198 169.141601562 168 151.46875 c 128,-1,64
 138 133.795898438 138 133.795898438 138 145.295898438 c 128,-1,65
 138 156.795898438 138 156.795898438 161 224.594726562 c 128,-1,66
 184 292.39453125 184 292.39453125 214 355.567382812 c 2,56,-1
EndSplineSet
EndChar

StartChar: quotesingle
Encoding: 39 39 10
AltUni2: 00ff07.ffffffff.0 002032.ffffffff.0 002019.ffffffff.0 000374.ffffffff.0 0002c8.ffffffff.0 0002bc.ffffffff.0 0002b9.ffffffff.0 00ff07.ffffffff.0 002032.ffffffff.0 002019.ffffffff.0 000374.ffffffff.0 0002c8.ffffffff.0 0002bc.ffffffff.0 0002b9.ffffffff.0
Width: 166
GlyphClass: 1
Flags: HW
LayerCount: 2
Fore
SplineSet
100 867.91015625 m 128,-1,1
 83 853.645507812 83 853.645507812 71.5 832.49609375 c 128,-1,2
 60 811.345703125 60 811.345703125 60 794.345703125 c 0,3,4
 60 743.345703125 60 743.345703125 61 710.185546875 c 1,5,-1
 62 711.024414062 l 1,6,7
 62 706.024414062 62 706.024414062 62 683.024414062 c 0,8,9
 63 627.86328125 63 627.86328125 64 573.702148438 c 0,10,11
 64 556.702148438 64 556.702148438 75 554.432617188 c 128,-1,12
 86 552.162109375 86 552.162109375 103 566.427734375 c 128,-1,13
 120 580.692382812 120 580.692382812 131 601.421875 c 128,-1,14
 142 622.15234375 142 622.15234375 142 639.15234375 c 0,15,16
 142 696.15234375 142 696.15234375 142 751.15234375 c 0,17,18
 140 778.473632812 140 778.473632812 140 861.473632812 c 0,19,20
 140 878.473632812 140 878.473632812 128.5 880.32421875 c 128,-1,0
 117 882.174804688 117 882.174804688 100 867.91015625 c 128,-1,1
EndSplineSet
EndChar

StartChar: parenleft
Encoding: 40 40 11
AltUni2: 00ff08.ffffffff.0 00fe59.ffffffff.0 00fe35.ffffffff.0 00208d.ffffffff.0 00207d.ffffffff.0 00ff08.ffffffff.0 00fe59.ffffffff.0 00fe35.ffffffff.0 00208d.ffffffff.0 00207d.ffffffff.0
Width: 360
GlyphClass: 1
Flags: HW
LayerCount: 2
Fore
SplineSet
336 989.9375 m 0,0,1
 340 1002.29394531 340 1002.29394531 340 1010.29394531 c 128,-1,2
 340 1018.29394531 340 1018.29394531 337 1022.77636719 c 0,3,4
 330 1032.90332031 330 1032.90332031 314 1026.47753906 c 0,5,6
 305 1021.92578125 305 1021.92578125 297 1015.21289062 c 128,-1,7
 289 1008.5 289 1008.5 282 1000.62597656 c 0,8,9
 196 893.463867188 196 893.463867188 143 735.991210938 c 0,10,11
 102 613.587890625 102 613.587890625 83 464.645507812 c 0,12,13
 70 362.737304688 70 362.737304688 70 269.737304688 c 0,14,15
 70 133.737304688 70 133.737304688 92 80.197265625 c 0,16,17
 131 -24.078125 131 -24.078125 246 -15.5810546875 c 0,18,19
 257 -15.3515625 257 -15.3515625 271 -3.603515625 c 0,20,21
 292 14.017578125 292 14.017578125 305 41.92578125 c 0,22,23
 314 60.4775390625 314 60.4775390625 314 73.4775390625 c 0,24,25
 314 94.4775390625 314 94.4775390625 297 93.212890625 c 0,26,27
 204 87.1767578125 204 87.1767578125 172 170.325195312 c 0,28,29
 158 203.578125 158 203.578125 155 301.060546875 c 0,30,31
 154 318.221679688 154 318.221679688 154 337.221679688 c 0,32,33
 154 424.221679688 154 424.221679688 166 522.291015625 c 1,34,-1
 166 522.291015625 l 1,35,36
 183 657.555664062 183 657.555664062 221 769.44140625 c 128,-1,37
 259 881.327148438 259 881.327148438 312 946.798828125 c 0,38,39
 329 968.063476562 329 968.063476562 336 989.9375 c 0,0,1
EndSplineSet
Substitution2: "'rtla' Right to Left Alternates lookup 0 subtable" parenright
EndChar

StartChar: parenright
Encoding: 41 41 12
AltUni2: 00ff09.ffffffff.0 00fe5a.ffffffff.0 00fe36.ffffffff.0 00208e.ffffffff.0 00207e.ffffffff.0 00ff09.ffffffff.0 00fe5a.ffffffff.0 00fe36.ffffffff.0 00208e.ffffffff.0 00207e.ffffffff.0
Width: 323
GlyphClass: 1
Flags: HW
LayerCount: 2
Fore
SplineSet
106 856.944335938 m 0,0,1
 94 846.875 94 846.875 83 830.645507812 c 0,2,3
 64 801.702148438 64 801.702148438 64 778.702148438 c 0,4,5
 64 766.702148438 64 766.702148438 71 762.576171875 c 0,6,7
 129 725.244140625 129 725.244140625 158 690.578125 c 0,8,9
 196 645.463867188 196 645.463867188 211 583.049804688 c 0,10,11
 219 551.762695312 219 551.762695312 219 495.762695312 c 0,12,13
 219 381.762695312 219 381.762695312 198 266.141601562 c 0,14,15
 156 11.8994140625 156 11.8994140625 55 -149.849609375 c 0,16,17
 38 -177.114257812 38 -177.114257812 38 -198.114257812 c 0,18,19
 38 -212.114257812 38 -212.114257812 48 -215.723632812 c 0,20,21
 60 -221.654296875 60 -221.654296875 82 -203.193359375 c 0,22,23
 95 -192.28515625 95 -192.28515625 106 -174.055664062 c 0,24,25
 175 -63.1572265625 175 -63.1572265625 220 73.6015625 c 0,26,27
 258 188.487304688 258 188.487304688 280 318.948242188 c 0,28,29
 302 450.408203125 302 450.408203125 302 564.408203125 c 0,30,31
 302 631.408203125 302 631.408203125 293 668.856445312 c 0,32,33
 275 741.751953125 275 741.751953125 233 792.509765625 c 0,34,35
 197 832.302734375 197 832.302734375 141 867.313476562 c 0,36,37
 128 875.404296875 128 875.404296875 106 856.944335938 c 0,0,1
EndSplineSet
Substitution2: "'rtla' Right to Left Alternates lookup 0 subtable" parenleft
EndChar

StartChar: asterisk
Encoding: 42 42 13
AltUni2: 00ff0a.ffffffff.0 00fe61.ffffffff.0 002731.ffffffff.0 002217.ffffffff.0 00ff0a.ffffffff.0 00fe61.ffffffff.0 002731.ffffffff.0 002217.ffffffff.0
Width: 503
GlyphClass: 1
Flags: HW
LayerCount: 2
Fore
SplineSet
374 655.823242188 m 0,0,1
 384 659.213867188 384 659.213867188 392 665.926757812 c 128,-1,2
 400 672.639648438 400 672.639648438 407 680.513671875 c 0,3,4
 423 699.939453125 423 699.939453125 431 723.65234375 c 0,5,6
 436 736.84765625 436 736.84765625 436 744.34765625 c 128,-1,7
 436 751.84765625 436 751.84765625 434 757.168945312 c 0,8,9
 428 768.134765625 428 768.134765625 412 762.708984375 c 0,10,11
 387 754.731445312 387 754.731445312 345 758.489257812 c 2,12,-1
 324 759.868164062 l 1,13,-1
 353 782.202148438 l 2,14,15
 398 816.961914062 398 816.961914062 422 824.099609375 c 0,16,17
 438 829.525390625 438 829.525390625 454 848.451171875 c 128,-1,18
 470 867.376953125 470 867.376953125 478 891.08984375 c 0,19,20
 483 904.28515625 483 904.28515625 483 911.78515625 c 128,-1,21
 483 919.28515625 483 919.28515625 481 924.606445312 c 0,22,23
 475 935.572265625 475 935.572265625 459 930.146484375 c 0,24,25
 424 917.778320312 424 917.778320312 371 880.305664062 c 2,26,-1
 351 866.524414062 l 1,27,28
 368 898.7890625 368 898.7890625 386 933.892578125 c 128,-1,29
 404 968.99609375 404 968.99609375 408 976.352539062 c 0,30,31
 418 995.743164062 418 995.743164062 418 1010.74316406 c 0,32,33
 418 1030.74316406 418 1030.74316406 404 1030.99609375 c 0,34,35
 390 1030.24902344 390 1030.24902344 375 1017.66210938 c 0,36,37
 356 1001.71972656 356 1001.71972656 344 977.650390625 c 0,38,39
 341 972.1328125 341 972.1328125 327 944.385742188 c 128,-1,40
 313 916.638671875 313 916.638671875 308 907.442382812 c 0,41,42
 275 840.751953125 275 840.751953125 268 826.87890625 c 0,43,44
 264 819.522460938 264 819.522460938 258 807.487304688 c 128,-1,45
 252 795.453125 252 795.453125 243 778.901367188 c 1,46,47
 184 798.39453125 184 798.39453125 159 817.416992188 c 0,48,49
 151 824.704101562 151 824.704101562 134 814.439453125 c 0,50,51
 129 811.244140625 129 811.244140625 124 807.048828125 c 0,52,53
 113 797.818359375 113 797.818359375 102 781.587890625 c 0,54,55
 82 753.806640625 82 753.806640625 82 729.806640625 c 0,56,57
 82 718.806640625 82 718.806640625 89 713.6796875 c 0,58,59
 99 705.071289062 99 705.071289062 153 678.381835938 c 1,60,61
 107 636.783203125 107 636.783203125 98 629.231445312 c 0,62,63
 80 613.127929688 80 613.127929688 68.5 591.478515625 c 128,-1,64
 57 569.829101562 57 569.829101562 57 554.829101562 c 0,65,66
 57 553.829101562 57 553.829101562 57 551.829101562 c 1,67,-1
 57 551.829101562 l 1,68,69
 57 533.829101562 57 533.829101562 69 532.397460938 c 128,-1,70
 81 530.966796875 81 530.966796875 97 544.392578125 c 0,71,72
 98 545.231445312 98 545.231445312 100 546.91015625 c 1,73,-1
 100 546.91015625 l 1,74,75
 110 555.30078125 110 555.30078125 160 601.255859375 c 1,76,77
 135 547.278320312 135 547.278320312 115 504.49609375 c 0,78,79
 106 485.944335938 106 485.944335938 106 471.944335938 c 0,80,81
 106 450.944335938 106 450.944335938 123 452.208984375 c 0,82,83
 134 453.439453125 134 453.439453125 147 464.34765625 c 0,84,85
 169 482.807617188 169 482.807617188 181.5 509.796875 c 128,-1,86
 194 536.78515625 194 536.78515625 214 579.567382812 c 128,-1,87
 234 622.349609375 234 622.349609375 248 654.096679688 c 1,88,-1
 256 651.809570312 l 1,89,90
 326 639.546875 326 639.546875 374 655.823242188 c 0,0,1
EndSplineSet
EndChar

StartChar: plus
Encoding: 43 43 14
AltUni2: 00ff0b.ffffffff.0 00fe62.ffffffff.0 00fb29.ffffffff.0 00208a.ffffffff.0 00207a.ffffffff.0 00ff0b.ffffffff.0 00fe62.ffffffff.0 00fb29.ffffffff.0 00208a.ffffffff.0 00207a.ffffffff.0
Width: 638
GlyphClass: 1
Flags: HW
LayerCount: 2
Fore
SplineSet
178 458.359375 m 1,0,1
 156 438.899414062 156 438.899414062 133.5 420.01953125 c 128,-1,2
 111 401.139648438 111 401.139648438 100 392.91015625 c 128,-1,3
 89 384.6796875 89 384.6796875 88 383.840820312 c 0,4,5
 75 372.932617188 75 372.932617188 64 354.702148438 c 0,6,7
 51 333.793945312 51 333.793945312 51 315.793945312 c 0,8,9
 51 302.793945312 51 302.793945312 60 298.845703125 c 128,-1,10
 69 294.897460938 69 294.897460938 84 306.484375 c 0,11,12
 108 324.623046875 108 324.623046875 133 345.600585938 c 128,-1,13
 158 366.578125 158 366.578125 182 387.715820312 c 0,14,15
 223 425.119140625 223 425.119140625 294 492.6953125 c 1,16,-1
 294 475.6953125 l 2,17,18
 294 450.6953125 294 450.6953125 297 427.212890625 c 1,19,-1
 297 427.212890625 l 1,20,21
 306 347.764648438 306 347.764648438 332 303.581054688 c 0,22,23
 338 293.615234375 338 293.615234375 352 299.36328125 c 0,24,25
 359 302.236328125 359 302.236328125 366 308.110351562 c 128,-1,26
 373 313.984375 373 313.984375 380 322.857421875 c 0,27,28
 394 340.60546875 394 340.60546875 400 359.639648438 c 0,29,30
 403 370.157226562 403 370.157226562 403 377.157226562 c 128,-1,31
 403 384.157226562 403 384.157226562 401 389.478515625 c 0,32,33
 377 425.340820312 377 425.340820312 371 496.305664062 c 0,34,35
 369 513.627929688 369 513.627929688 366 560.110351562 c 1,36,37
 402 593.318359375 402 593.318359375 439 624.364257812 c 2,38,-1
 440 625.204101562 l 2,39,40
 514 684.296875 514 684.296875 555 691.700195312 c 0,41,42
 565 693.090820312 565 693.090820312 575 701.482421875 c 0,43,44
 595 718.264648438 595 718.264648438 607 745.333007812 c 0,45,46
 613 760.368164062 613 760.368164062 613 770.368164062 c 0,47,48
 613 790.368164062 613 790.368164062 596 788.103515625 c 0,49,50
 538 776.435546875 538 776.435546875 443 701.720703125 c 0,51,52
 404 668.99609375 404 668.99609375 367 635.94921875 c 1,53,54
 368 684.7890625 368 684.7890625 368 709.7890625 c 128,-1,55
 368 734.7890625 368 734.7890625 367 752.94921875 c 1,56,-1
 367 752.94921875 l 1,57,58
 366 808.110351562 366 808.110351562 358 847.397460938 c 0,59,60
 355 860.879882812 355 860.879882812 344 860.150390625 c 128,-1,61
 333 859.419921875 333 859.419921875 321 849.350585938 c 0,62,63
 303 834.247070312 303 834.247070312 292 809.017578125 c 0,64,65
 284 792.3046875 284 792.3046875 284 780.3046875 c 0,66,67
 284 777.3046875 284 777.3046875 285 775.143554688 c 0,68,69
 292 733.017578125 292 733.017578125 293 687.856445312 c 0,70,71
 294 671.6953125 294 671.6953125 294 646.6953125 c 128,-1,72
 294 621.6953125 294 621.6953125 293 588.856445312 c 2,73,-1
 293 579.856445312 l 1,74,-1
 293 564.856445312 l 1,75,-1
 281 554.787109375 l 1,76,-1
 280 552.948242188 l 1,77,-1
 274 547.913085938 l 1,78,-1
 273 547.07421875 l 1,79,80
 220 496.6015625 220 496.6015625 178 458.359375 c 1,81,-1
 178 458.359375 l 1,0,1
EndSplineSet
EndChar

StartChar: comma
Encoding: 44 44 15
AltUni2: 00ff0c.ffffffff.0 00fe50.ffffffff.0 00fe11.ffffffff.0 00fe10.ffffffff.0 003001.ffffffff.0 00066c.ffffffff.0 00ff0c.ffffffff.0 00fe50.ffffffff.0 00fe11.ffffffff.0 00fe10.ffffffff.0 003001.ffffffff.0 00066c.ffffffff.0
Width: 230
GlyphClass: 1
Flags: HW
LayerCount: 2
Fore
SplineSet
116 43.3359375 m 0,0,1
 99 8.0712890625 99 8.0712890625 78 -30.5498046875 c 0,2,3
 66 -52.619140625 66 -52.619140625 66 -70.619140625 c 0,4,5
 66 -86.619140625 66 -86.619140625 78 -89.5498046875 c 128,-1,6
 90 -92.4814453125 90 -92.4814453125 108 -77.376953125 c 0,7,8
 124 -63.951171875 124 -63.951171875 137 -40.04296875 c 0,9,10
 167 15.1298828125 167 15.1298828125 185 54.2333984375 c 0,11,12
 210 109.2109375 210 109.2109375 210 148.2109375 c 0,13,14
 210 175.2109375 210 175.2109375 195 191.624023438 c 128,-1,15
 180 208.038085938 180 208.038085938 145 216.669921875 c 0,16,17
 132 219.760742188 132 219.760742188 115 205.49609375 c 256,18,19
 98 191.231445312 98 191.231445312 86 170.162109375 c 0,20,21
 72 146.415039062 72 146.415039062 72 128.915039062 c 128,-1,22
 72 111.415039062 72 111.415039062 82 107.806640625 c 0,23,24
 112 99.9794921875 112 99.9794921875 119 91.8525390625 c 128,-1,25
 126 83.7265625 126 83.7265625 126 75.7265625 c 128,-1,26
 126 67.7265625 126 67.7265625 116 43.3359375 c 0,0,1
EndSplineSet
EndChar

StartChar: hyphen
Encoding: 45 45 16
AltUni2: 00ff0d.ffffffff.0 00fe63.ffffffff.0 00fe32.ffffffff.0 002500.ffffffff.0 002212.ffffffff.0 00207b.ffffffff.0 002015.ffffffff.0 002014.ffffffff.0 002013.ffffffff.0 002012.ffffffff.0 002011.ffffffff.0 002010.ffffffff.0 00ff0d.ffffffff.0 00fe63.ffffffff.0 00fe32.ffffffff.0 002500.ffffffff.0 002212.ffffffff.0 00207b.ffffffff.0 002015.ffffffff.0 002014.ffffffff.0 002013.ffffffff.0 002012.ffffffff.0 002011.ffffffff.0 002010.ffffffff.0
Width: 382
GlyphClass: 1
Flags: HW
LayerCount: 2
Fore
SplineSet
91 408.358398438 m 0,0,1
 114 419.657226562 114 419.657226562 143 442.991210938 c 0,2,3
 157 453.73828125 157 453.73828125 198 488.141601562 c 0,4,5
 236 520.02734375 236 520.02734375 251 531.614257812 c 0,6,7
 289 559.5 289 559.5 307 569.603515625 c 0,8,9
 322 579.190429688 322 579.190429688 330 568.403320312 c 128,-1,10
 338 557.615234375 338 557.615234375 336 533.9375 c 0,11,12
 333 510.419921875 333 510.419921875 321.5 488.270507812 c 128,-1,13
 310 466.12109375 310 466.12109375 296 458.373046875 c 0,14,15
 267 440.040039062 267 440.040039062 248 425.096679688 c 0,16,17
 235 415.188476562 235 415.188476562 198 384.141601562 c 0,18,19
 156 348.899414062 156 348.899414062 140 336.473632812 c 0,20,21
 105 310.10546875 105 310.10546875 78 294.450195312 c 0,22,23
 64 286.702148438 64 286.702148438 56 297.989257812 c 128,-1,24
 48 309.276367188 48 309.276367188 50.5 332.375 c 128,-1,25
 53 355.47265625 53 355.47265625 65 378.041015625 c 128,-1,26
 77 400.610351562 77 400.610351562 91 408.358398438 c 0,0,1
EndSplineSet
EndChar

StartChar: period
Encoding: 46 46 17
AltUni2: 00ff0e.ffffffff.0 00fe52.ffffffff.0 002024.ffffffff.0 00ff0e.ffffffff.0 00fe52.ffffffff.0 002024.ffffffff.0
Width: 198
GlyphClass: 1
Flags: HW
LayerCount: 2
Fore
SplineSet
147 122.34765625 m 0,0,1
 177 160.520507812 177 160.520507812 177 199.520507812 c 0,2,3
 177 207.520507812 177 207.520507812 174 216.002929688 c 0,4,5
 172 224.325195312 172 224.325195312 165 232.451171875 c 0,6,7
 152 247.54296875 152 247.54296875 134 244.439453125 c 0,8,9
 123 243.208984375 123 243.208984375 105.5 228.525390625 c 128,-1,10
 88 213.840820312 88 213.840820312 74 188.09375 c 0,11,12
 64 168.702148438 64 168.702148438 62 152.024414062 c 0,13,14
 61 145.185546875 61 145.185546875 61 134.185546875 c 0,15,16
 62 125.024414062 62 125.024414062 68 103.05859375 c 0,17,18
 71 96.576171875 71 96.576171875 71 92.576171875 c 0,19,20
 71 91.576171875 71 91.576171875 74 88.09375 c 0,21,22
 80 69.1279296875 80 69.1279296875 104 83.2666015625 c 0,23,24
 117 91.1748046875 117 91.1748046875 122 95.3701171875 c 0,25,26
 136 107.1171875 136 107.1171875 147 122.34765625 c 0,0,1
EndSplineSet
EndChar

StartChar: slash
Encoding: 47 47 18
AltUni2: 00ff0f.ffffffff.0 002215.ffffffff.0 00ff0f.ffffffff.0 002215.ffffffff.0
Width: 452
GlyphClass: 1
Flags: HW
LayerCount: 2
Fore
SplineSet
80 -66.8720703125 m 0,0,1
 93 -55.9638671875 93 -55.9638671875 104.5 -37.314453125 c 128,-1,2
 116 -18.6640625 116 -18.6640625 117 -3.8251953125 c 2,3,-1
 117 -2.8251953125 l 1,4,5
 139 216.634765625 139 216.634765625 218.5 491.84375 c 128,-1,6
 298 767.051757812 298 767.051757812 420 1051.421875 c 0,7,8
 426 1066.45605469 426 1066.45605469 426 1077.45605469 c 0,9,10
 426 1097.45605469 426 1097.45605469 410 1095.03125 c 0,11,12
 400 1092.63964844 400 1092.63964844 389 1083.41015625 c 0,13,14
 369 1066.62792969 369 1066.62792969 358 1041.39746094 c 0,15,16
 231 743.83203125 231 743.83203125 149 458.525390625 c 128,-1,17
 67 173.219726562 67 173.219726562 44 -55.080078125 c 0,18,19
 44 -58.080078125 44 -58.080078125 44 -60.080078125 c 0,20,21
 44 -73.080078125 44 -73.080078125 52 -77.3671875 c 0,22,23
 62 -81.9755859375 62 -81.9755859375 80 -66.8720703125 c 0,0,1
EndSplineSet
EndChar

StartChar: zero
Encoding: 48 48 19
AltUni2: 00ff10.ffffffff.0 002080.ffffffff.0 002070.ffffffff.0 00ff10.ffffffff.0 002080.ffffffff.0 002070.ffffffff.0
Width: 471
GlyphClass: 1
Flags: HW
LayerCount: 2
Fore
SplineSet
180 770.038085938 m 1,0,1
 153 697.381835938 153 697.381835938 130 588.083007812 c 0,2,3
 101 450.749023438 101 450.749023438 101 359.749023438 c 0,4,5
 99 251.071289062 99 251.071289062 139 228.634765625 c 0,6,7
 181 204.876953125 181 204.876953125 278 296.26953125 c 0,8,9
 339 353.455078125 339 353.455078125 373 481.984375 c 0,10,11
 407 614.513671875 407 614.513671875 391 729.087890625 c 0,12,13
 375 847.662109375 375 847.662109375 321 867.350585938 c 0,14,15
 269 886.717773438 269 886.717773438 192 783.107421875 c 0,16,17
 186 775.072265625 186 775.072265625 180 770.038085938 c 1,0,1
151 797.704101562 m 1,18,19
 155 807.060546875 155 807.060546875 162 815.934570312 c 0,20,21
 285 981.143554688 285 981.143554688 371 951.305664062 c 0,22,23
 439 926.364257812 439 926.364257812 456 791.629882812 c 0,24,25
 472 658.0546875 472 658.0546875 434 513.168945312 c 0,26,27
 414 433.387695312 414 433.387695312 380 367.857421875 c 0,28,29
 340 289.293945312 340 289.293945312 285 237.143554688 c 0,30,31
 151 110.704101562 151 110.704101562 86 146.162109375 c 0,32,33
 34 176.529296875 34 176.529296875 36 306.208007812 c 0,34,35
 36 404.208007812 36 404.208007812 67 552.219726562 c 0,36,37
 94 677.875 94 677.875 126 760.7265625 c 0,38,39
 136 783.1171875 136 783.1171875 151 797.704101562 c 1,18,19
EndSplineSet
EndChar

StartChar: one
Encoding: 49 49 20
AltUni2: 00ff11.ffffffff.0 002081.ffffffff.0 0000b9.ffffffff.0 00ff11.ffffffff.0 002081.ffffffff.0 0000b9.ffffffff.0
Width: 307
GlyphClass: 1
Flags: HW
LayerCount: 2
Fore
SplineSet
131 711.921875 m 0,0,1
 154 762.221679688 154 762.221679688 184 823.39453125 c 0,2,3
 216 885.245117188 216 885.245117188 220 891.6015625 c 0,4,5
 222 895.280273438 222 895.280273438 237 919.866210938 c 0,6,7
 240 924.383789062 240 924.383789062 248 935.096679688 c 0,8,9
 257 946.6484375 257 946.6484375 267 954.040039062 c 0,10,11
 282 965.625976562 282 965.625976562 291 961.177734375 c 128,-1,12
 300 956.729492188 300 956.729492188 296 939.373046875 c 1,13,-1
 296 938.373046875 l 1,14,-1
 296 937.373046875 l 2,15,16
 296 936.373046875 296 936.373046875 295 933.534179688 c 128,-1,17
 294 930.6953125 294 930.6953125 294 929.6953125 c 0,18,19
 294 926.6953125 294 926.6953125 289 904.5 c 0,20,21
 283 870.46484375 283 870.46484375 275 829.751953125 c 0,22,23
 275 828.751953125 275 828.751953125 274 825.913085938 c 0,24,25
 261 759.004882812 261 759.004882812 254 727.130859375 c 0,26,27
 198 474.141601562 198 474.141601562 198 197.141601562 c 1,28,29
 201 200.659179688 201 200.659179688 206.5 206.774414062 c 128,-1,30
 212 212.888671875 212 212.888671875 215 216.40625 c 0,31,32
 228 231.314453125 228 231.314453125 239.5 234.96484375 c 128,-1,33
 251 238.614257812 251 238.614257812 255 228.970703125 c 128,-1,34
 259 219.327148438 259 219.327148438 253 202.291992188 c 128,-1,35
 247 185.2578125 247 185.2578125 234 170.349609375 c 0,36,37
 221 154.44140625 221 154.44140625 197 129.302734375 c 0,38,39
 194 126.78515625 194 126.78515625 193 124.946289062 c 0,40,41
 157 86.73828125 157 86.73828125 120 34.6923828125 c 0,42,43
 108 17.623046875 108 17.623046875 95 10.21484375 c 128,-1,44
 82 2.806640625 82 2.806640625 75 7.9326171875 c 0,45,46
 68 14.05859375 68 14.05859375 71.5 29.99609375 c 128,-1,47
 75 45.9326171875 75 45.9326171875 87 63.001953125 c 0,48,49
 120 109.692382812 120 109.692382812 134 126.439453125 c 0,50,51
 133 128.600585938 133 128.600585938 133 135.600585938 c 0,52,53
 133 423.600585938 133 423.600585938 192 692.107421875 c 0,54,55
 193 697.946289062 193 697.946289062 195 708.124023438 c 128,-1,56
 197 718.302734375 197 718.302734375 200.5 735.739257812 c 128,-1,57
 204 753.176757812 204 753.176757812 207 767.693359375 c 1,58,59
 199 751.98046875 199 751.98046875 183 716.555664062 c 0,60,61
 175 698.842773438 175 698.842773438 162 686.434570312 c 128,-1,62
 149 674.025390625 149 674.025390625 138 672.795898438 c 0,63,64
 127 670.565429688 127 670.565429688 125 682.887695312 c 128,-1,65
 123 695.208984375 123 695.208984375 131 711.921875 c 0,0,1
EndSplineSet
EndChar

StartChar: two
Encoding: 50 50 21
AltUni2: 00ff12.ffffffff.0 002082.ffffffff.0 0000b2.ffffffff.0 00ff12.ffffffff.0 002082.ffffffff.0 0000b2.ffffffff.0
Width: 480
GlyphClass: 1
Flags: HW
LayerCount: 2
Fore
SplineSet
29 536.333984375 m 0,0,1
 38 621.885742188 38 621.885742188 100 727.91015625 c 0,2,3
 155 822.060546875 155 822.060546875 228 892.314453125 c 0,4,5
 303 966.247070312 303 966.247070312 358 977.397460938 c 0,6,7
 420 989.421875 420 989.421875 423 907.939453125 c 0,8,9
 423 870.939453125 423 870.939453125 415 832.2265625 c 0,10,11
 403 768.157226562 403 768.157226562 362 662.75390625 c 0,12,13
 332 588.581054688 332 588.581054688 284 482.3046875 c 0,14,15
 241 390.22265625 241 390.22265625 230 364.993164062 c 0,16,17
 202 303.498046875 202 303.498046875 186 262.072265625 c 1,18,-1
 186 261.072265625 l 2,19,20
 186 260.072265625 186 260.072265625 185 259.233398438 c 2,21,-1
 184 256.39453125 l 2,22,23
 183 253.555664062 183 253.555664062 181 248.876953125 c 128,-1,24
 179 244.19921875 179 244.19921875 178 241.359375 c 0,25,26
 172 224.325195312 172 224.325195312 160 192.255859375 c 0,27,28
 160 191.255859375 160 191.255859375 158.5 187.497070312 c 128,-1,29
 157 183.73828125 157 183.73828125 156 181.899414062 c 0,30,31
 156 180.899414062 156 180.899414062 155 178.560546875 c 128,-1,32
 154 176.221679688 154 176.221679688 153 173.881835938 c 128,-1,33
 152 171.54296875 152 171.54296875 152 170.54296875 c 1,34,35
 153 171.381835938 153 171.381835938 156 174.399414062 c 128,-1,36
 159 177.416992188 159 177.416992188 160 179.255859375 c 0,37,38
 185 210.233398438 185 210.233398438 195 223.624023438 c 0,39,40
 198 227.141601562 198 227.141601562 214 248.567382812 c 0,41,42
 215 249.40625 215 249.40625 219 254.762695312 c 128,-1,43
 223 260.119140625 223 260.119140625 228 266.314453125 c 128,-1,44
 233 272.509765625 233 272.509765625 235 275.188476562 c 0,45,46
 269 320.717773438 269 320.717773438 303 362.247070312 c 0,47,48
 347 414.16796875 347 414.16796875 380 442.857421875 c 0,49,50
 390 451.249023438 390 451.249023438 399 455.80078125 c 0,51,52
 402 456.318359375 402 456.318359375 410 459.03125 c 0,53,54
 413 459.547851562 413 459.547851562 427 462.295898438 c 1,55,-1
 427 461.295898438 l 1,56,-1
 428 462.134765625 l 1,57,-1
 429 462.973632812 l 2,58,59
 442 476.881835938 442 476.881835938 453.5 479.53125 c 128,-1,60
 465 482.181640625 465 482.181640625 468 471.698242188 c 0,61,62
 470 463.376953125 470 463.376953125 470 459.376953125 c 0,63,64
 468 441.698242188 468 441.698242188 460 426.985351562 c 0,65,66
 450 406.594726562 450 406.594726562 433 392.330078125 c 2,67,-1
 418 382.743164062 l 2,68,69
 408 379.352539062 408 379.352539062 389 376.41015625 c 1,70,-1
 389 377.41015625 l 1,71,-1
 377 375.340820312 l 1,72,73
 352 351.36328125 352 351.36328125 324 317.868164062 c 0,74,75
 307 297.603515625 307 297.603515625 263 240.68359375 c 0,76,77
 258 234.487304688 258 234.487304688 242 213.0625 c 2,78,-1
 222 186.280273438 l 2,79,80
 201 158.659179688 201 158.659179688 181 135.876953125 c 0,81,82
 131 76.921875 131 76.921875 95 58.71484375 c 0,83,84
 81 51.966796875 81 51.966796875 76 58.771484375 c 0,85,86
 72 60.4150390625 72 60.4150390625 72 69.4150390625 c 0,87,88
 71 73.576171875 71 73.576171875 73 84.25390625 c 0,89,90
 74 92.09375 74 92.09375 79 107.2890625 c 0,91,92
 80 111.127929688 80 111.127929688 84 121.984375 c 128,-1,93
 88 132.840820312 88 132.840820312 91.5 143.27734375 c 128,-1,94
 95 153.71484375 95 153.71484375 99 164.071289062 c 0,95,96
 100 165.91015625 100 165.91015625 101 169.249023438 c 128,-1,97
 102 172.587890625 102 172.587890625 102 173.587890625 c 0,98,99
 103 176.427734375 103 176.427734375 121 224.53125 c 0,100,101
 125 233.887695312 125 233.887695312 127 240.565429688 c 0,102,103
 129 244.244140625 129 244.244140625 129 245.244140625 c 2,104,-1
 130 247.083007812 l 1,105,-1
 130 248.083007812 l 1,106,107
 145 286.669921875 145 286.669921875 177 358.520507812 c 2,108,-1
 231 476.83203125 l 2,109,110
 279 581.108398438 279 581.108398438 306 648.764648438 c 0,111,112
 339 733.455078125 339 733.455078125 352 794.36328125 c 0,113,114
 358 828.397460938 358 828.397460938 358 852.397460938 c 0,115,116
 357 898.55859375 357 898.55859375 322 893.190429688 c 0,117,118
 289 887.5 289 887.5 237 835.866210938 c 0,119,120
 183 782.555664062 183 782.555664062 143 714.991210938 c 0,121,122
 99 640.071289062 99 640.071289062 93 582.036132812 c 0,123,124
 92 568.197265625 92 568.197265625 81.5 550.88671875 c 128,-1,125
 71 533.576171875 71 533.576171875 57 523.829101562 c 128,-1,126
 43 514.081054688 43 514.081054688 35 517.868164062 c 128,-1,127
 27 521.655273438 27 521.655273438 29 536.333984375 c 0,0,1
EndSplineSet
EndChar

StartChar: three
Encoding: 51 51 22
AltUni2: 00ff13.ffffffff.0 002083.ffffffff.0 0000b3.ffffffff.0 00ff13.ffffffff.0 002083.ffffffff.0 0000b3.ffffffff.0
Width: 472
GlyphClass: 1
Flags: HW
LayerCount: 2
Fore
SplineSet
37 614.046875 m 0,0,1
 119 791.852539062 119 791.852539062 209 872.372070312 c 0,2,3
 294 949.6953125 294 949.6953125 343 913.811523438 c 0,4,5
 389 878.41015625 389 878.41015625 364 775.432617188 c 0,6,7
 353 729.202148438 353 729.202148438 332 685.581054688 c 1,8,9
 363 705.592773438 363 705.592773438 388 708.5703125 c 0,10,11
 423 714.939453125 423 714.939453125 442.5 692.301757812 c 128,-1,12
 462 669.6640625 462 669.6640625 461 625.825195312 c 0,13,14
 459 526.146484375 459 526.146484375 372 387.145507812 c 0,15,16
 274 232.913085938 274 232.913085938 99 86.0712890625 c 0,17,18
 86 75.162109375 86 75.162109375 76.5 76.69140625 c 128,-1,19
 67 78.2197265625 67 78.2197265625 67 91.2197265625 c 0,20,21
 67 105.219726562 67 105.219726562 76.5 122.69140625 c 128,-1,22
 86 140.162109375 86 140.162109375 99 151.071289062 c 0,23,24
 252 279.453125 252 279.453125 333 406.419921875 c 0,25,26
 396 507.283203125 396 507.283203125 396 571.283203125 c 0,27,28
 398 631.961914062 398 631.961914062 351 623.524414062 c 0,29,30
 309 617.282226562 309 617.282226562 250 549.775390625 c 0,31,32
 247 546.2578125 247 546.2578125 241.5 539.142578125 c 128,-1,33
 236 532.02734375 236 532.02734375 234 529.349609375 c 0,34,35
 227 520.475585938 227 520.475585938 220 514.6015625 c 0,36,37
 195 489.624023438 195 489.624023438 185 504.233398438 c 0,38,39
 180 513.038085938 180 513.038085938 185 529.733398438 c 128,-1,40
 190 546.428710938 190 546.428710938 202 561.498046875 c 0,41,42
 218 580.923828125 218 580.923828125 225 589.797851562 c 0,43,44
 284 669.3046875 284 669.3046875 302 741.408203125 c 0,45,46
 317 809.994140625 317 809.994140625 288 832.661132812 c 0,47,48
 260 853.166015625 260 853.166015625 213 811.728515625 c 0,49,50
 153 756.381835938 153 756.381835938 89 618.6796875 c 0,51,52
 82 602.806640625 82 602.806640625 68 588.55859375 c 128,-1,53
 54 574.311523438 54 574.311523438 44 573.919921875 c 128,-1,54
 34 573.529296875 34 573.529296875 31.5 585.431640625 c 128,-1,55
 29 597.333984375 29 597.333984375 37 614.046875 c 0,0,1
EndSplineSet
EndChar

StartChar: four
Encoding: 52 52 23
AltUni2: 00ff14.ffffffff.0 002084.ffffffff.0 002074.ffffffff.0 00ff14.ffffffff.0 002084.ffffffff.0 002074.ffffffff.0
Width: 514
GlyphClass: 1
Flags: HW
LayerCount: 2
Fore
SplineSet
149 822.025390625 m 0,0,1
 148 810.186523438 148 810.186523438 141 733.313476562 c 0,2,3
 141 728.313476562 141 728.313476562 140 719.473632812 c 128,-1,4
 139 710.634765625 139 710.634765625 138 703.795898438 c 2,5,-1
 137 696.95703125 l 2,6,7
 137 694.95703125 137 694.95703125 136.5 689.537109375 c 128,-1,8
 136 684.1171875 136 684.1171875 136 681.1171875 c 0,9,10
 135 667.278320312 135 667.278320312 132 604.760742188 c 0,11,12
 128 493.404296875 128 493.404296875 149 453.025390625 c 0,13,14
 165 421.451171875 165 421.451171875 197 433.302734375 c 0,15,16
 226 443.63671875 226 443.63671875 274 489.913085938 c 0,17,18
 278 494.26953125 278 494.26953125 284.5 500.723632812 c 128,-1,19
 291 507.177734375 291 507.177734375 296.5 512.79296875 c 128,-1,20
 302 518.408203125 302 518.408203125 307 523.603515625 c 0,21,22
 308 528.442382812 308 528.442382812 308.5 538.362304688 c 128,-1,23
 309 548.282226562 309 548.282226562 309 553.282226562 c 0,24,25
 314 644.477539062 314 644.477539062 315 664.31640625 c 0,26,27
 318 714.833984375 318 714.833984375 316 747.155273438 c 0,28,29
 316 761.155273438 316 761.155273438 325.5 778.626953125 c 128,-1,30
 335 796.098632812 335 796.098632812 348 808.006835938 c 0,31,32
 362 820.75390625 362 820.75390625 371.5 819.225585938 c 128,-1,33
 381 817.697265625 381 817.697265625 381 804.697265625 c 0,34,35
 383 768.375 383 768.375 380 715.857421875 c 0,36,37
 379 693.018554688 379 693.018554688 374 603.823242188 c 0,38,39
 374 602.823242188 374 602.823242188 373.5 599.903320312 c 128,-1,40
 373 596.984375 373 596.984375 373 595.984375 c 1,41,42
 374 596.823242188 374 596.823242188 376.5 599.420898438 c 128,-1,43
 379 602.018554688 379 602.018554688 380 602.857421875 c 0,44,45
 386 610.892578125 386 610.892578125 393 617.766601562 c 0,46,47
 442 673.881835938 442 673.881835938 463 695.502929688 c 0,48,49
 476 710.411132812 476 710.411132812 487.5 713.061523438 c 128,-1,50
 499 715.7109375 499 715.7109375 502 705.227539062 c 0,51,52
 506 695.583984375 506 695.583984375 499 678.2109375 c 128,-1,53
 492 660.836914062 492 660.836914062 478 645.08984375 c 0,54,55
 467 633.859375 467 633.859375 411 570.870117188 c 0,56,57
 408 567.352539062 408 567.352539062 403.5 562.077148438 c 128,-1,58
 399 556.80078125 399 556.80078125 398 555.961914062 c 0,59,60
 396 553.283203125 396 553.283203125 385 541.053710938 c 128,-1,61
 374 528.823242188 374 528.823242188 369 523.627929688 c 1,62,63
 362 380.75390625 362 380.75390625 371 333.305664062 c 0,64,65
 374 322.823242188 374 322.823242188 366.5 305.030273438 c 128,-1,66
 359 287.236328125 359 287.236328125 346 274.328125 c 0,67,68
 332 260.581054688 332 260.581054688 321 258.850585938 c 128,-1,69
 310 257.12109375 310 257.12109375 308 268.442382812 c 0,70,71
 301 294.569335938 301 294.569335938 301 372.569335938 c 0,72,73
 301 391.569335938 301 391.569335938 303 453.247070312 c 1,74,-1
 282 432.625976562 l 2,75,76
 216 368.245117188 216 368.245117188 169 350.807617188 c 0,77,78
 113 330.818359375 113 330.818359375 88 379.840820312 c 128,-1,79
 63 428.86328125 63 428.86328125 67 553.219726562 c 0,80,81
 70 612.737304688 70 612.737304688 71 631.576171875 c 0,82,83
 71 637.576171875 71 637.576171875 73 651.25390625 c 0,84,85
 73 663.25390625 73 663.25390625 77 686.610351562 c 0,86,87
 78 692.450195312 78 692.450195312 80.5 722.047851562 c 128,-1,88
 83 751.645507812 83 751.645507812 85 774.323242188 c 0,89,90
 86 788.162109375 86 788.162109375 96 805.553710938 c 128,-1,91
 106 822.944335938 106 822.944335938 120 832.692382812 c 0,92,93
 133 842.600585938 133 842.600585938 142 840.15234375 c 128,-1,94
 151 837.704101562 151 837.704101562 149 822.025390625 c 0,0,1
EndSplineSet
EndChar

StartChar: five
Encoding: 53 53 24
AltUni2: 00ff15.ffffffff.0 002085.ffffffff.0 002075.ffffffff.0 00ff15.ffffffff.0 002085.ffffffff.0 002075.ffffffff.0
Width: 449
GlyphClass: 1
Flags: HW
LayerCount: 2
Fore
SplineSet
157 800.73828125 m 0,0,1
 220 862.6015625 220 862.6015625 398 1053.96191406 c 0,2,3
 411 1067.87011719 411 1067.87011719 422.5 1070.51953125 c 128,-1,4
 434 1073.16894531 434 1073.16894531 437 1061.68652344 c 0,5,6
 440 1051.20410156 440 1051.20410156 433 1033.83007812 c 128,-1,7
 426 1016.45605469 426 1016.45605469 413 1002.54785156 c 0,8,9
 235 813.188476562 235 813.188476562 181 758.876953125 c 1,10,11
 138 634.795898438 138 634.795898438 125 576.887695312 c 0,12,13
 114 526.657226562 114 526.657226562 120 516.692382812 c 0,14,15
 122 514.370117188 122 514.370117188 134 521.439453125 c 0,16,17
 147 530.34765625 147 530.34765625 189 566.58984375 c 0,18,19
 196 572.463867188 196 572.463867188 205 580.515625 c 128,-1,20
 214 588.567382812 214 588.567382812 217 591.084960938 c 0,21,22
 244 613.740234375 244 613.740234375 265 628.361328125 c 0,23,24
 293 647.856445312 293 647.856445312 315 654.31640625 c 0,25,26
 367 668.94921875 367 668.94921875 379 606.018554688 c 0,27,28
 391 546.087890625 391 546.087890625 356 443.719726562 c 0,29,30
 324 351.868164062 324 351.868164062 269 263.717773438 c 0,31,32
 209 168.372070312 209 168.372070312 151 127.704101562 c 0,33,34
 82 77.806640625 82 77.806640625 52 128.6328125 c 0,35,36
 47 137.4375 47 137.4375 52 154.1328125 c 128,-1,37
 57 170.829101562 57 170.829101562 70 185.737304688 c 0,38,39
 82 200.806640625 82 200.806640625 94.5 206.294921875 c 128,-1,40
 107 211.783203125 107 211.783203125 112 202.979492188 c 0,41,42
 127 176.565429688 127 176.565429688 159 198.416992188 c 0,43,44
 190 221.428710938 190 221.428710938 230 283.993164062 c 0,45,46
 273 351.07421875 273 351.07421875 297 422.212890625 c 0,47,48
 323 497.029296875 323 497.029296875 315 542.31640625 c 0,49,50
 308 578.442382812 308 578.442382812 283 570.46484375 c 0,51,52
 264 565.522460938 264 565.522460938 218 526.923828125 c 0,53,54
 215 524.40625 215 524.40625 206.5 516.774414062 c 128,-1,55
 198 509.141601562 198 509.141601562 191 503.267578125 c 0,56,57
 173 487.1640625 173 487.1640625 156 472.899414062 c 0,58,59
 137 456.95703125 137 456.95703125 122 447.370117188 c 0,60,61
 76 417.771484375 76 417.771484375 60 441.345703125 c 0,62,63
 45 463.759765625 45 463.759765625 61.5 537.604492188 c 128,-1,64
 78 611.450195312 78 611.450195312 128 753.404296875 c 0,65,66
 130 759.083007812 130 759.083007812 133 765.600585938 c 0,67,68
 141 786.313476562 141 786.313476562 157 800.73828125 c 0,0,1
EndSplineSet
EndChar

StartChar: six
Encoding: 54 54 25
AltUni2: 00ff16.ffffffff.0 002086.ffffffff.0 002076.ffffffff.0 00ff16.ffffffff.0 002086.ffffffff.0 002076.ffffffff.0
Width: 442
GlyphClass: 1
Flags: HW
LayerCount: 2
Fore
SplineSet
114 352.657226562 m 1,0,1
 98 255.231445312 98 255.231445312 116 220.3359375 c 0,2,3
 142 170.15234375 142 170.15234375 241 246.22265625 c 0,4,5
 307 297.603515625 307 297.603515625 341 375.1328125 c 0,6,7
 373 449.984375 373 449.984375 365 513.271484375 c 128,-1,8
 357 576.55859375 357 576.55859375 316 578.155273438 c 0,9,10
 274 578.913085938 274 578.913085938 210 500.2109375 c 0,11,12
 188 472.750976562 188 472.750976562 168 441.46875 c 128,-1,13
 148 410.186523438 148 410.186523438 143 394.991210938 c 0,14,15
 135 370.278320312 135 370.278320312 114 352.657226562 c 1,0,1
320 936.51171875 m 0,16,17
 275 854.751953125 275 854.751953125 220 710.6015625 c 0,18,19
 175 592.842773438 175 592.842773438 144 483.830078125 c 1,20,21
 158 504.578125 158 504.578125 186 541.072265625 c 0,22,23
 287 663.821289062 287 663.821289062 358 662.397460938 c 0,24,25
 419 661.583007812 419 661.583007812 429 574.973632812 c 0,26,27
 440 490.204101562 440 490.204101562 395 384.444335938 c 0,28,29
 342 259.971679688 342 259.971679688 237 177.866210938 c 0,30,31
 94 68.875 94 68.875 55 148.150390625 c 0,32,33
 25 208.977539062 25 208.977539062 64 381.702148438 c 0,34,35
 94 511.875 94 511.875 163 694.7734375 c 0,36,37
 228 860.314453125 228 860.314453125 275 945.751953125 c 0,38,39
 284 962.3046875 284 962.3046875 297.5 973.631835938 c 128,-1,40
 311 984.959960938 311 984.959960938 321 983.350585938 c 0,41,42
 330 980.903320312 330 980.903320312 330 967.903320312 c 128,-1,43
 330 954.903320312 330 954.903320312 320 936.51171875 c 0,16,17
EndSplineSet
EndChar

StartChar: seven
Encoding: 55 55 26
AltUni2: 00ff17.ffffffff.0 002087.ffffffff.0 002077.ffffffff.0 00ff17.ffffffff.0 002087.ffffffff.0 002077.ffffffff.0
Width: 479
GlyphClass: 1
Flags: HW
LayerCount: 2
Fore
SplineSet
61 715.185546875 m 0,0,1
 91 748.358398438 91 748.358398438 112 771.979492188 c 0,2,3
 113 772.818359375 113 772.818359375 125 785.887695312 c 0,4,5
 166 832.291015625 166 832.291015625 210 880.2109375 c 0,6,7
 261 934.004882812 261 934.004882812 301 971.569335938 c 0,8,9
 302 972.408203125 302 972.408203125 305 975.42578125 c 128,-1,10
 308 978.442382812 308 978.442382812 310 980.12109375 c 0,11,12
 317 985.994140625 317 985.994140625 321 991.350585938 c 0,13,14
 348 1017.00683594 348 1017.00683594 365 1031.27148438 c 0,15,16
 393 1054.76660156 393 1054.76660156 417 1065.90429688 c 0,17,18
 447 1079.07714844 447 1079.07714844 464 1064.34179688 c 0,19,20
 468 1059.69824219 468 1059.69824219 468 1048.69824219 c 0,21,22
 468 1040.69824219 468 1040.69824219 467 1035.859375 c 0,23,24
 466 1026.02050781 466 1026.02050781 461 1007.82519531 c 0,25,26
 454 983.951171875 454 983.951171875 437 929.686523438 c 0,27,28
 434 920.168945312 434 920.168945312 401.5 822.3984375 c 128,-1,29
 369 724.627929688 369 724.627929688 361 698.915039062 c 1,30,-1
 360 697.076171875 l 2,31,32
 360 696.076171875 360 696.076171875 360 695.076171875 c 1,33,-1
 363 697.592773438 l 2,34,35
 388 720.5703125 388 720.5703125 413 744.547851562 c 0,36,37
 426 758.456054688 426 758.456054688 437 760.186523438 c 128,-1,38
 448 761.916992188 448 761.916992188 451 750.43359375 c 0,39,40
 453 738.112304688 453 738.112304688 445 720.399414062 c 128,-1,41
 437 702.686523438 437 702.686523438 424 689.778320312 c 0,42,43
 419 685.583007812 419 685.583007812 401.5 668.8984375 c 128,-1,44
 384 652.213867188 384 652.213867188 369 637.627929688 c 0,45,46
 357 627.55859375 357 627.55859375 333 604.419921875 c 2,47,-1
 331 602.7421875 l 1,48,49
 325 583.70703125 325 583.70703125 323 575.029296875 c 0,50,51
 287 457.821289062 287 457.821289062 270 372.556640625 c 0,52,53
 253 282.291992188 253 282.291992188 263 255.68359375 c 0,54,55
 267 246.040039062 267 246.040039062 260 228.666015625 c 128,-1,56
 253 211.291992188 253 211.291992188 240 196.383789062 c 128,-1,57
 227 181.475585938 227 181.475585938 215.5 178.826171875 c 128,-1,58
 204 176.176757812 204 176.176757812 200 185.8203125 c 0,59,60
 186 227.072265625 186 227.072265625 207 334.693359375 c 0,61,62
 224 415.958007812 224 415.958007812 258 533.487304688 c 1,63,-1
 216 491.245117188 l 2,64,65
 202 477.498046875 202 477.498046875 191 475.767578125 c 128,-1,66
 180 474.038085938 180 474.038085938 178 485.359375 c 0,67,68
 175 495.842773438 175 495.842773438 182.5 513.635742188 c 128,-1,69
 190 531.428710938 190 531.428710938 203 544.336914062 c 0,70,71
 245 586.579101562 245 586.579101562 286 624.982421875 c 1,72,73
 296 657.373046875 296 657.373046875 302 675.408203125 c 0,74,75
 320 732.51171875 320 732.51171875 378 906.1796875 c 0,76,77
 394 957.60546875 394 957.60546875 400 978.639648438 c 0,78,79
 400 981.639648438 400 981.639648438 402 987.318359375 c 1,80,81
 392 988.926757812 392 988.926757812 365 966.271484375 c 0,82,83
 352 955.36328125 352 955.36328125 329 933.063476562 c 0,84,85
 328 932.224609375 328 932.224609375 323.5 927.94921875 c 128,-1,86
 319 923.672851562 319 923.672851562 318 922.833984375 c 0,87,88
 314 918.477539062 314 918.477539062 308 913.442382812 c 0,89,90
 271 878.396484375 271 878.396484375 225 828.797851562 c 0,91,92
 195 796.624023438 195 796.624023438 142 737.15234375 c 0,93,94
 138 732.795898438 138 732.795898438 134 728.439453125 c 128,-1,95
 130 724.083007812 130 724.083007812 129 723.244140625 c 0,96,97
 122 715.370117188 122 715.370117188 77 665.610351562 c 0,98,99
 64 650.702148438 64 650.702148438 52.5 648.052734375 c 128,-1,100
 41 645.403320312 41 645.403320312 38 655.885742188 c 0,101,102
 34 665.529296875 34 665.529296875 41 682.903320312 c 128,-1,103
 48 700.276367188 48 700.276367188 61 715.185546875 c 0,0,1
EndSplineSet
EndChar

StartChar: eight
Encoding: 56 56 27
AltUni2: 00ff18.ffffffff.0 002088.ffffffff.0 002078.ffffffff.0 00ff18.ffffffff.0 002088.ffffffff.0 002078.ffffffff.0
Width: 437
GlyphClass: 1
Flags: HW
LayerCount: 2
Fore
SplineSet
176 141.681640625 m 1,0,-1
 174 140.002929688 l 2,1,2
 173 140.1640625 173 140.1640625 172 139.325195312 c 0,3,4
 77 88.6103515625 77 88.6103515625 41 103.403320312 c 0,5,6
 1 115.838867188 1 115.838867188 18 192.103515625 c 0,7,8
 31 250.01171875 31 250.01171875 76 341.771484375 c 0,9,10
 101 392.749023438 101 392.749023438 127 440.565429688 c 1,11,12
 96 440.553710938 96 440.553710938 79 454.2890625 c 0,13,14
 32 496.8515625 32 496.8515625 105 665.10546875 c 0,15,16
 138 742.795898438 138 742.795898438 169 797.807617188 c 0,17,18
 220 886.6015625 220 886.6015625 277 938.430664062 c 0,19,20
 310 969.12109375 310 969.12109375 336 974.9375 c 0,21,22
 349 977.845703125 349 977.845703125 373 972.984375 c 0,23,24
 406 964.674804688 406 964.674804688 400 912.639648438 c 0,25,26
 397 876.122070312 397 876.122070312 368 805.7890625 c 0,27,28
 341 745.1328125 341 745.1328125 305 676.92578125 c 0,29,30
 296 659.373046875 296 659.373046875 230 537.993164062 c 2,31,-1
 229 536.154296875 l 1,32,33
 235 537.188476562 235 537.188476562 241 539.22265625 c 0,34,35
 243 539.901367188 243 539.901367188 251 541.614257812 c 128,-1,36
 259 543.327148438 259 543.327148438 260 544.166015625 c 0,37,38
 285 550.143554688 285 550.143554688 317 556.994140625 c 0,39,40
 352 561.36328125 352 561.36328125 370 558.466796875 c 0,41,42
 427 551.295898438 427 551.295898438 427 479.295898438 c 0,43,44
 427 435.295898438 427 435.295898438 398 378.961914062 c 0,45,46
 372 329.145507812 372 329.145507812 334 282.258789062 c 0,47,48
 259 190.327148438 259 190.327148438 188 146.750976562 c 0,49,50
 184 144.39453125 184 144.39453125 176 141.681640625 c 1,0,-1
173 526.1640625 m 1,51,-1
 184 546.39453125 l 2,52,53
 225 620.797851562 225 620.797851562 258 681.487304688 c 0,54,55
 295 752.534179688 295 752.534179688 313 795.638671875 c 0,56,57
 333 840.419921875 333 840.419921875 336 865.9375 c 0,58,59
 338 885.615234375 338 885.615234375 325 888.70703125 c 0,60,61
 309 893.282226562 309 893.282226562 301.5 891.48828125 c 128,-1,62
 294 889.6953125 294 889.6953125 282 878.625976562 c 0,63,64
 247 846.2578125 247 846.2578125 213 786.728515625 c 0,65,66
 193 751.946289062 193 751.946289062 158 672.578125 c 0,67,68
 131 607.921875 131 607.921875 126 571.7265625 c 0,69,70
 123 545.208984375 123 545.208984375 135 534.278320312 c 0,71,72
 149 523.025390625 149 523.025390625 173 526.1640625 c 1,51,-1
203 222.336914062 m 0,73,74
 254 253.130859375 254 253.130859375 309 321.282226562 c 0,75,76
 362 386.75390625 362 386.75390625 362 424.75390625 c 0,77,78
 362 468.75390625 362 468.75390625 324 473.868164062 c 0,79,80
 300 478.729492188 300 478.729492188 227 460.475585938 c 0,81,82
 226 459.63671875 226 459.63671875 218 457.923828125 c 128,-1,83
 210 456.2109375 210 456.2109375 208 455.533203125 c 0,84,85
 204 454.176757812 204 454.176757812 195 452.124023438 c 128,-1,86
 186 450.072265625 186 450.072265625 181 448.876953125 c 1,87,88
 148 388.186523438 148 388.186523438 127 343.565429688 c 0,89,90
 88 264.840820312 88 264.840820312 81 227.966796875 c 0,91,92
 72 191.415039062 72 191.415039062 90 186.518554688 c 0,93,94
 116 178.3359375 116 178.3359375 191 217.267578125 c 0,95,96
 197 220.302734375 197 220.302734375 201 221.659179688 c 0,97,98
 201 220.659179688 201 220.659179688 203 222.336914062 c 0,73,74
EndSplineSet
EndChar

StartChar: nine
Encoding: 57 57 28
AltUni2: 00ff19.ffffffff.0 002089.ffffffff.0 002079.ffffffff.0 00ff19.ffffffff.0 002089.ffffffff.0 002079.ffffffff.0
Width: 444
GlyphClass: 1
Flags: HW
LayerCount: 2
Fore
SplineSet
356 606.719726562 m 1,0,1
 378 719.1796875 378 719.1796875 362 787.75390625 c 0,2,3
 344 872.650390625 344 872.650390625 278 846.26953125 c 0,4,5
 217 822.084960938 217 822.084960938 172 743.325195312 c 0,6,7
 127 665.565429688 127 665.565429688 122 586.370117188 c 0,8,9
 117 505.174804688 117 505.174804688 164 496.612304688 c 0,10,11
 223 489.119140625 223 489.119140625 339 596.455078125 c 0,12,13
 349 604.845703125 349 604.845703125 356 606.719726562 c 1,0,1
103 162.427734375 m 0,14,15
 180 194.038085938 180 194.038085938 247 308.2578125 c 0,16,17
 304 405.0859375 304 405.0859375 338 530.615234375 c 1,18,19
 194 398.78515625 194 398.78515625 118 413.013671875 c 0,20,21
 51 423.793945312 51 423.793945312 57 535.829101562 c 0,22,23
 63 641.86328125 63 641.86328125 129 756.244140625 c 0,24,25
 206 889.854492188 206 889.854492188 304 927.0859375 c 0,26,27
 402 965.318359375 402 965.318359375 426 853.456054688 c 0,28,29
 447 759.077148438 447 759.077148438 409 596.19140625 c 0,30,31
 370 431.466796875 370 431.466796875 289 293.5 c 0,32,33
 192 129.107421875 192 129.107421875 77 80.6103515625 c 0,34,35
 65 75.541015625 65 75.541015625 60 83.845703125 c 128,-1,36
 55 92.150390625 55 92.150390625 60 109.345703125 c 0,37,38
 65 125.541015625 65 125.541015625 77.5 141.030273438 c 128,-1,39
 90 156.518554688 90 156.518554688 103 162.427734375 c 0,14,15
EndSplineSet
EndChar

StartChar: colon
Encoding: 58 58 29
AltUni2: 00ff1a.ffffffff.0 00fe55.ffffffff.0 00fe13.ffffffff.0 002236.ffffffff.0 000589.ffffffff.0 00ff1a.ffffffff.0 00fe55.ffffffff.0 00fe13.ffffffff.0 002236.ffffffff.0 000589.ffffffff.0
Width: 230
GlyphClass: 1
Flags: HW
LayerCount: 2
Fore
SplineSet
63 126.86328125 m 0,0,1
 63 124.86328125 63 124.86328125 63 123.86328125 c 2,2,-1
 63 122.86328125 l 2,3,4
 63 103.86328125 63 103.86328125 76 99.771484375 c 0,5,6
 88 96.8408203125 88 96.8408203125 108 109.623046875 c 0,7,8
 113 112.818359375 113 112.818359375 120 118.692382812 c 128,-1,9
 127 124.565429688 127 124.565429688 138 135.795898438 c 0,10,11
 170 170.646484375 170 170.646484375 188 210.750976562 c 1,12,13
 197 239.302734375 197 239.302734375 198 250.141601562 c 0,14,15
 198 269.141601562 198 269.141601562 183 276.555664062 c 0,16,17
 163 285.7734375 163 285.7734375 132 267.760742188 c 0,18,19
 127 264.565429688 127 264.565429688 123 261.208984375 c 0,20,21
 109 249.461914062 109 249.461914062 100 229.91015625 c 2,22,-1
 99 227.071289062 l 1,23,24
 84 206.484375 84 206.484375 76 187.771484375 c 0,25,26
 72 177.415039062 72 177.415039062 70 170.737304688 c 0,27,28
 63 143.86328125 63 143.86328125 63 126.86328125 c 0,0,1
73 410.25390625 m 0,29,30
 73 384.25390625 73 384.25390625 91 379.358398438 c 0,31,32
 112 373.979492188 112 373.979492188 150 405.865234375 c 0,33,34
 190 439.428710938 190 439.428710938 205 483.015625 c 0,35,36
 210 503.2109375 210 503.2109375 210 511.2109375 c 0,37,38
 210 529.2109375 210 529.2109375 199 540.98046875 c 0,39,40
 184 558.39453125 184 558.39453125 159 550.416992188 c 0,41,42
 143 545.991210938 143 545.991210938 128 533.404296875 c 0,43,44
 107 515.783203125 107 515.783203125 90 484.518554688 c 0,45,46
 83 467.645507812 83 467.645507812 83 463.145507812 c 128,-1,47
 83 458.645507812 83 458.645507812 83 452.645507812 c 2,48,-1
 81 447.966796875 l 2,49,50
 75 434.932617188 75 434.932617188 74 425.59375 c 128,-1,51
 73 416.25390625 73 416.25390625 73 410.25390625 c 0,29,30
EndSplineSet
EndChar

StartChar: semicolon
Encoding: 59 59 30
AltUni2: 00ff1b.ffffffff.0 00fe54.ffffffff.0 00fe14.ffffffff.0 00037e.ffffffff.0 00ff1b.ffffffff.0 00fe54.ffffffff.0 00fe14.ffffffff.0 00037e.ffffffff.0
Width: 212
GlyphClass: 1
Flags: HW
LayerCount: 2
Fore
SplineSet
95 431.71484375 m 2,0,1
 113 463.818359375 113 463.818359375 136 473.1171875 c 0,2,3
 186 494.072265625 186 494.072265625 193 461.946289062 c 0,4,5
 200 428.8203125 200 428.8203125 168 374.96875 c 0,6,7
 136 323.1171875 136 323.1171875 101 307.749023438 c 0,8,9
 81 299.966796875 81 299.966796875 70 310.737304688 c 0,10,11
 62 320.024414062 62 320.024414062 62 345.024414062 c 2,12,-1
 62 350.024414062 l 1,13,-1
 62 358.024414062 l 2,14,15
 65 377.541015625 65 377.541015625 76 395.771484375 c 2,16,-1
 81 404.966796875 l 2,17,18
 86 412.162109375 86 412.162109375 90 422.518554688 c 2,19,-1
 95 431.71484375 l 2,0,1
124 260.048828125 m 0,20,21
 166 281.291015625 166 281.291015625 188 256.750976562 c 0,22,23
 205 234.015625 205 234.015625 201 190.659179688 c 0,24,25
 197 143.302734375 197 143.302734375 173.5 89.083984375 c 128,-1,26
 150 34.865234375 150 34.865234375 112 -10.0205078125 c 0,27,28
 97 -27.607421875 97 -27.607421875 82 -33.193359375 c 128,-1,29
 67 -38.7802734375 67 -38.7802734375 63 -27.13671875 c 0,30,31
 58 -15.33203125 58 -15.33203125 65 5.041015625 c 128,-1,32
 72 25.4150390625 72 25.4150390625 87 43.001953125 c 0,33,34
 101 58.7490234375 101 58.7490234375 111.5 84.0595703125 c 128,-1,35
 122 109.370117188 122 109.370117188 124 132.048828125 c 0,36,37
 126 155.7265625 126 155.7265625 118 163.013671875 c 0,38,39
 112 170.979492188 112 170.979492188 98 164.231445312 c 0,40,41
 83 156.645507812 83 156.645507812 76 165.271484375 c 128,-1,42
 69 173.897460938 69 173.897460938 74 193.09375 c 0,43,44
 79 213.2890625 79 213.2890625 94 232.875 c 128,-1,45
 109 252.461914062 109 252.461914062 124 260.048828125 c 0,20,21
EndSplineSet
EndChar

StartChar: less
Encoding: 60 60 31
AltUni2: 00ff1c.ffffffff.0 00fe64.ffffffff.0 003008.ffffffff.0 002329.ffffffff.0 002039.ffffffff.0 00ff1c.ffffffff.0 00fe64.ffffffff.0 003008.ffffffff.0 002329.ffffffff.0 002039.ffffffff.0
Width: 390
GlyphClass: 1
Flags: HW
LayerCount: 2
Fore
SplineSet
369 875.627929688 m 0,0,1
 333 808.419921875 333 808.419921875 257 670.6484375 c 0,2,3
 256 668.809570312 256 668.809570312 239.5 638.96484375 c 128,-1,4
 223 609.119140625 223 609.119140625 204.5 575.595703125 c 128,-1,5
 186 542.072265625 186 542.072265625 180 531.038085938 c 0,6,7
 151 478.704101562 151 478.704101562 136 448.1171875 c 0,8,9
 134 443.439453125 134 443.439453125 131 435.921875 c 2,10,-1
 128 428.404296875 l 2,11,12
 128 427.404296875 128 427.404296875 127 425.565429688 c 128,-1,13
 126 423.7265625 126 423.7265625 126 422.7265625 c 2,14,-1
 126 421.7265625 l 2,15,16
 126 420.7265625 126 420.7265625 127 419.565429688 c 128,-1,17
 128 418.404296875 128 418.404296875 128 417.404296875 c 0,18,19
 134 413.439453125 134 413.439453125 153 407.381835938 c 0,20,21
 190 399.428710938 190 399.428710938 204 396.176757812 c 0,22,23
 237 385.866210938 237 385.866210938 273 370.07421875 c 0,24,25
 277 367.430664062 277 367.430664062 295 370.534179688 c 0,26,27
 301 370.569335938 301 370.569335938 305.5 370.344726562 c 128,-1,28
 310 370.12109375 310 370.12109375 312 370.798828125 c 0,29,30
 329 371.063476562 329 371.063476562 337 364.776367188 c 0,31,32
 353 350.202148438 353 350.202148438 340 313.293945312 c 0,33,34
 334 293.258789062 334 293.258789062 318.5 274.252929688 c 128,-1,35
 303 255.247070312 303 255.247070312 289 250.5 c 0,36,37
 264 241.522460938 264 241.522460938 266 269.200195312 c 0,38,39
 264 269.522460938 264 269.522460938 262 268.84375 c 0,40,41
 257 269.6484375 257 269.6484375 247 268.2578125 c 0,42,43
 220 266.6015625 220 266.6015625 212 270.888671875 c 0,44,45
 197 277.302734375 197 277.302734375 146 295.508789062 c 1,46,-1
 96 307.553710938 l 2,47,48
 70 313.737304688 70 313.737304688 61 322.185546875 c 0,49,50
 45 336.759765625 45 336.759765625 49 370.116210938 c 0,51,52
 53 398.47265625 53 398.47265625 75 444.932617188 c 0,53,54
 90 476.518554688 90 476.518554688 125 540.887695312 c 0,55,56
 167 615.129882812 167 615.129882812 203 681.336914062 c 0,57,58
 277 816.430664062 277 816.430664062 313 882.638671875 c 0,59,60
 324 903.868164062 324 903.868164062 340.5 917.713867188 c 128,-1,61
 357 931.55859375 357 931.55859375 368 929.7890625 c 128,-1,62
 379 928.018554688 379 928.018554688 379.5 911.938476562 c 128,-1,63
 380 895.857421875 380 895.857421875 369 875.627929688 c 0,0,1
EndSplineSet
Substitution2: "'rtla' Right to Left Alternates lookup 0 subtable" greater
EndChar

StartChar: equal
Encoding: 61 61 32
AltUni2: 00ff1d.ffffffff.0 00fe66.ffffffff.0 00208c.ffffffff.0 00207c.ffffffff.0 00ff1d.ffffffff.0 00fe66.ffffffff.0 00208c.ffffffff.0 00207c.ffffffff.0
Width: 546
GlyphClass: 1
Flags: HW
LayerCount: 2
Fore
SplineSet
122 510.370117188 m 0,0,1
 297 650.212890625 297 650.212890625 493 822.67578125 c 0,2,3
 509 837.1015625 509 837.1015625 521 836.170898438 c 128,-1,4
 533 835.240234375 533 835.240234375 534 820.079101562 c 128,-1,5
 535 804.91796875 535 804.91796875 524 783.688476562 c 128,-1,6
 513 762.458007812 513 762.458007812 497 748.032226562 c 0,7,8
 298 573.051757812 298 573.051757812 119 429.852539062 c 0,9,10
 103 417.427734375 103 417.427734375 92 419.697265625 c 128,-1,11
 81 421.966796875 81 421.966796875 81 437.966796875 c 0,12,13
 82 455.806640625 82 455.806640625 94 476.875 c 128,-1,14
 106 497.944335938 106 497.944335938 122 510.370117188 c 0,0,1
124 305.048828125 m 0,15,16
 385 529.053710938 385 529.053710938 495 627.354492188 c 0,17,18
 511 641.780273438 511 641.780273438 522.5 640.4296875 c 128,-1,19
 534 639.079101562 534 639.079101562 536 624.7578125 c 0,20,21
 537 609.596679688 537 609.596679688 526 588.366210938 c 128,-1,22
 515 567.13671875 515 567.13671875 499 552.7109375 c 0,23,24
 387 452.731445312 387 452.731445312 126 228.7265625 c 0,25,26
 109 213.461914062 109 213.461914062 97.5 215.3125 c 128,-1,27
 86 217.162109375 86 217.162109375 86 233.162109375 c 128,-1,28
 86 249.162109375 86 249.162109375 97 269.892578125 c 128,-1,29
 108 290.623046875 108 290.623046875 124 305.048828125 c 0,15,16
EndSplineSet
EndChar

StartChar: greater
Encoding: 62 62 33
AltUni2: 00ff1e.ffffffff.0 00fe65.ffffffff.0 003009.ffffffff.0 00232a.ffffffff.0 00203a.ffffffff.0 00ff1e.ffffffff.0 00fe65.ffffffff.0 003009.ffffffff.0 00232a.ffffffff.0 00203a.ffffffff.0
Width: 361
GlyphClass: 1
Flags: HW
LayerCount: 2
Fore
SplineSet
109 710.461914062 m 0,0,1
 163 694.7734375 163 694.7734375 209 685.372070312 c 0,2,3
 250 678.775390625 250 678.775390625 280 668.948242188 c 0,4,5
 312 661.798828125 312 661.798828125 326 654.546875 c 0,6,7
 346 642.328125 346 642.328125 350 621.684570312 c 0,8,9
 354 598.041015625 354 598.041015625 339 557.455078125 c 0,10,11
 329 530.063476562 329 530.063476562 307 485.603515625 c 2,12,-1
 298 468.051757812 l 2,13,14
 290 450.338867188 290 450.338867188 278.5 427.189453125 c 128,-1,15
 267 404.040039062 267 404.040039062 262 393.84375 c 0,16,17
 231 331.83203125 231 331.83203125 201 263.659179688 c 0,18,19
 192 243.107421875 192 243.107421875 168 202.96875 c 0,20,21
 160 189.255859375 160 189.255859375 155 180.060546875 c 0,22,23
 154 178.221679688 154 178.221679688 151 173.704101562 c 0,24,25
 153 146.381835938 153 146.381835938 127 114.565429688 c 0,26,27
 112 94.9794921875 112 94.9794921875 97.5 89.3125 c 128,-1,28
 83 83.6455078125 83 83.6455078125 76 92.771484375 c 0,29,30
 66 109.380859375 66 109.380859375 80 147.127929688 c 0,31,32
 88 169.840820312 88 169.840820312 103 194.427734375 c 0,33,34
 109 205.461914062 109 205.461914062 118 221.013671875 c 0,35,36
 133 244.600585938 133 244.600585938 138 255.795898438 c 0,37,38
 173 334.1640625 173 334.1640625 201 391.659179688 c 2,39,-1
 247 485.2578125 l 2,40,41
 266 523.200195312 266 523.200195312 270 535.556640625 c 0,42,43
 273 542.07421875 273 542.07421875 273 546.07421875 c 0,44,45
 271 550.396484375 271 550.396484375 263 555.68359375 c 0,46,47
 251 562.614257812 251 562.614257812 223 568.119140625 c 0,48,49
 193 577.946289062 193 577.946289062 153 584.381835938 c 0,50,51
 87 598.001953125 87 598.001953125 51 609.793945312 c 0,52,53
 40 612.564453125 40 612.564453125 41 629.403320312 c 128,-1,54
 42 646.2421875 42 646.2421875 54 667.311523438 c 128,-1,55
 66 688.380859375 66 688.380859375 82 700.806640625 c 128,-1,56
 98 713.231445312 98 713.231445312 109 710.461914062 c 0,0,1
EndSplineSet
Substitution2: "'rtla' Right to Left Alternates lookup 0 subtable" less
EndChar

StartChar: question
Encoding: 63 63 34
AltUni2: 00ff1f.ffffffff.0 00fe56.ffffffff.0 00fe16.ffffffff.0 00ff1f.ffffffff.0 00fe56.ffffffff.0 00fe16.ffffffff.0
Width: 464
GlyphClass: 1
Flags: HW
LayerCount: 2
Fore
SplineSet
214 230.567382812 m 0,0,1
 224 251.958007812 224 251.958007812 235 268.188476562 c 0,2,3
 262 305.84375 262 305.84375 288 316.661132812 c 0,4,5
 313 326.638671875 313 326.638671875 321 313.350585938 c 0,6,7
 333 299.419921875 333 299.419921875 320 264.51171875 c 0,8,9
 308 230.442382812 308 230.442382812 273 185.07421875 c 0,10,11
 260 168.166015625 260 168.166015625 246 153.418945312 c 0,12,13
 226 133.63671875 226 133.63671875 209 126.372070312 c 0,14,15
 177 116.520507812 177 116.520507812 184 156.39453125 c 0,16,17
 187 176.912109375 187 176.912109375 202 207.498046875 c 0,18,19
 210 223.2109375 210 223.2109375 214 230.567382812 c 0,0,1
90 574.518554688 m 0,20,21
 96 637.553710938 96 637.553710938 144 730.830078125 c 0,22,23
 188 814.750976562 188 814.750976562 245 885.579101562 c 0,24,25
 312 967.798828125 312 967.798828125 363 993.592773438 c 0,26,27
 428 1028.13476562 428 1028.13476562 448 970.916992188 c 0,28,29
 464 922.341796875 464 922.341796875 438 830.525390625 c 0,30,31
 428 795.134765625 428 795.134765625 411 750.870117188 c 0,32,33
 402 727.318359375 402 727.318359375 380 672.857421875 c 0,34,35
 354 609.041015625 354 609.041015625 350 596.684570312 c 0,36,37
 330 544.903320312 330 544.903320312 323 513.029296875 c 1,38,-1
 322 511.190429688 l 1,39,-1
 322 510.190429688 l 2,40,41
 322 507.190429688 322 507.190429688 321 502.350585938 c 0,42,43
 320 498.51171875 320 498.51171875 318.5 490.752929688 c 128,-1,44
 317 482.994140625 317 482.994140625 316 479.155273438 c 2,45,-1
 313 464.638671875 l 2,46,47
 312 461.798828125 312 461.798828125 311 457.459960938 c 128,-1,48
 310 453.12109375 310 453.12109375 309.5 450.701171875 c 128,-1,49
 309 448.282226562 309 448.282226562 308 445.442382812 c 0,50,51
 308 443.442382812 308 443.442382812 307 440.103515625 c 128,-1,52
 306 436.764648438 306 436.764648438 305 434.92578125 c 0,53,54
 299 419.890625 299 419.890625 293 410.856445312 c 0,55,56
 285 396.143554688 285 396.143554688 269 380.717773438 c 0,57,58
 250 364.775390625 250 364.775390625 239 368.544921875 c 0,59,60
 234 369.349609375 234 369.349609375 230 373.993164062 c 0,61,62
 228 378.314453125 228 378.314453125 228 380.314453125 c 0,63,64
 226 390.63671875 226 390.63671875 226 401.63671875 c 0,65,66
 226 421.63671875 226 421.63671875 243 447.901367188 c 1,67,-1
 248 472.096679688 l 2,68,69
 258 516.487304688 258 516.487304688 282 577.625976562 c 0,70,71
 291 601.177734375 291 601.177734375 313 656.638671875 c 0,72,73
 355 760.879882812 355 760.879882812 365 797.271484375 c 0,74,75
 382 858.536132812 382 858.536132812 372 887.145507812 c 0,76,77
 364 912.432617188 364 912.432617188 340 900.293945312 c 0,78,79
 313 885.638671875 313 885.638671875 274 837.913085938 c 0,80,81
 233 786.509765625 233 786.509765625 202.5 727.41796875 c 128,-1,82
 172 668.325195312 172 668.325195312 168 631.96875 c 0,83,84
 167 615.129882812 167 615.129882812 154 593.721679688 c 128,-1,85
 141 572.313476562 141 572.313476562 125 560.887695312 c 0,86,87
 109 548.461914062 109 548.461914062 98.5 552.651367188 c 128,-1,88
 88 556.840820312 88 556.840820312 90 574.518554688 c 0,20,21
EndSplineSet
EndChar

StartChar: at
Encoding: 64 64 35
AltUni2: 00ff20.ffffffff.0 00fe6b.ffffffff.0 00ff20.ffffffff.0 00fe6b.ffffffff.0
Width: 537
GlyphClass: 1
Flags: HW
LayerCount: 2
Fore
SplineSet
302 518.408203125 m 1,0,1
 308 527.442382812 308 527.442382812 313 537.638671875 c 0,2,3
 315 541.31640625 315 541.31640625 316 542.155273438 c 0,4,5
 324 560.868164062 324 560.868164062 325 590.70703125 c 0,6,7
 326 617.546875 326 617.546875 329 641.063476562 c 0,8,9
 334 669.258789062 334 669.258789062 342 697.971679688 c 1,10,11
 331 696.7421875 331 696.7421875 326 693.546875 c 0,12,13
 323 691.029296875 323 691.029296875 321 687.350585938 c 0,14,15
 300 651.729492188 300 651.729492188 295 591.534179688 c 0,16,17
 289 535.5 289 535.5 302 518.408203125 c 1,0,1
437 677.686523438 m 1,18,19
 437 678.686523438 437 678.686523438 438 680.525390625 c 0,20,21
 443 699.720703125 443 699.720703125 446 742.23828125 c 0,22,23
 449 798.755859375 449 798.755859375 449 818.755859375 c 0,24,25
 448 849.916992188 448 849.916992188 438 877.525390625 c 0,26,27
 428 898.134765625 428 898.134765625 387 883.731445312 c 0,28,29
 345 868.489257812 345 868.489257812 307 829.603515625 c 0,30,31
 287 808.821289062 287 808.821289062 280 799.948242188 c 0,32,33
 278 798.26953125 278 798.26953125 273 791.07421875 c 0,34,35
 270 785.556640625 270 785.556640625 264 773.522460938 c 0,36,37
 250 747.775390625 250 747.775390625 242 734.0625 c 0,38,39
 176 614.681640625 176 614.681640625 159 519.416992188 c 0,40,41
 143 432.991210938 143 432.991210938 172 387.325195312 c 128,-1,42
 201 341.659179688 201 341.659179688 264 353.522460938 c 0,43,44
 335 368.098632812 335 368.098632812 423 442.939453125 c 0,45,46
 439 457.364257812 439 457.364257812 450.5 455.514648438 c 128,-1,47
 462 453.6640625 462 453.6640625 463 438.502929688 c 0,48,49
 463 422.502929688 463 422.502929688 452 401.7734375 c 128,-1,50
 441 381.04296875 441 381.04296875 424 365.778320312 c 0,51,52
 310 268.12109375 310 268.12109375 222 253.280273438 c 0,53,54
 139 236.634765625 139 236.634765625 100 296.91015625 c 0,55,56
 62 355.024414062 62 355.024414062 82 470.806640625 c 0,57,58
 105 593.10546875 105 593.10546875 188 744.750976562 c 0,59,60
 198 761.141601562 198 761.141601562 207 779.693359375 c 0,61,62
 210 785.2109375 210 785.2109375 212.5 789.80859375 c 128,-1,63
 215 794.40625 215 794.40625 216 796.745117188 c 128,-1,64
 217 799.084960938 217 799.084960938 219 802.262695312 c 128,-1,65
 221 805.44140625 221 805.44140625 222 807.280273438 c 0,66,67
 234 828.349609375 234 828.349609375 257 855.6484375 c 0,68,69
 260 859.166015625 260 859.166015625 271 870.896484375 c 128,-1,70
 282 882.625976562 282 882.625976562 291 892.177734375 c 0,71,72
 352 957.36328125 352 957.36328125 421 982.260742188 c 0,73,74
 493 1006.67578125 493 1006.67578125 512 962.619140625 c 0,75,76
 524 933.688476562 524 933.688476562 526 886.366210938 c 0,77,78
 527 864.205078125 527 864.205078125 524 801.688476562 c 0,79,80
 518 707.653320312 518 707.653320312 485 647.962890625 c 0,81,82
 460 604.985351562 460 604.985351562 429 584.973632812 c 0,83,84
 408 571.352539062 408 571.352539062 389 574.41015625 c 1,85,86
 381 553.697265625 381 553.697265625 376 543.500976562 c 0,87,88
 375 541.662109375 375 541.662109375 373 537.484375 c 128,-1,89
 371 533.305664062 371 533.305664062 370 531.466796875 c 0,90,91
 333 463.419921875 333 463.419921875 300 435.729492188 c 0,92,93
 260 401.166015625 260 401.166015625 238 420.706054688 c 0,94,95
 209 444.372070312 209 444.372070312 217 533.084960938 c 0,96,97
 225 626.797851562 225 626.797851562 270 703.556640625 c 0,98,99
 301 757.569335938 301 757.569335938 343 783.811523438 c 0,100,101
 380 805.857421875 380 805.857421875 416 797.065429688 c 0,102,103
 436 792.84765625 436 792.84765625 422 757.099609375 c 0,104,105
 422 756.099609375 422 756.099609375 421.5 753.180664062 c 128,-1,106
 421 750.260742188 421 750.260742188 420 748.421875 c 0,107,108
 412 725.708984375 412 725.708984375 420 701.421875 c 0,109,110
 427 684.295898438 427 684.295898438 437 677.686523438 c 1,18,19
EndSplineSet
EndChar

StartChar: A
Encoding: 65 65 36
AltUni2: 00ff21.ffffffff.0 001d2c.ffffffff.0 0013aa.ffffffff.0 000410.ffffffff.0 000391.ffffffff.0 00ff21.ffffffff.0 001d2c.ffffffff.0 0013aa.ffffffff.0 000410.ffffffff.0 000391.ffffffff.0
Width: 436
GlyphClass: 1
Flags: HW
LayerCount: 2
Fore
SplineSet
128 354.404296875 m 1,0,1
 182 422.715820312 182 422.715820312 226 485.63671875 c 0,2,3
 285 570.143554688 285 570.143554688 347 671.16796875 c 1,4,5
 350 800.684570312 350 800.684570312 343 862.811523438 c 0,6,7
 336 937.9375 336 937.9375 311 950.959960938 c 1,8,9
 262 866.84375 262 866.84375 220 747.1015625 c 128,-1,10
 178 627.359375 178 627.359375 152 499.54296875 c 0,11,12
 136 423.1171875 136 423.1171875 128 354.404296875 c 1,0,1
76 50.771484375 m 0,13,14
 53 106.47265625 53 106.47265625 56.5 215.409179688 c 128,-1,15
 60 324.345703125 60 324.345703125 89 461.6796875 c 0,16,17
 118 604.013671875 118 604.013671875 165.5 736.87109375 c 128,-1,18
 213 869.728515625 213 869.728515625 271 968.396484375 c 0,19,20
 283 989.46484375 283 989.46484375 304 1010.0859375 c 0,21,22
 314 1019.47753906 314 1019.47753906 324 1026.86816406 c 0,23,24
 339 1038.45507812 339 1038.45507812 351 1037.52441406 c 0,25,26
 396 1029.28320312 396 1029.28320312 408 923.352539062 c 0,27,28
 415 855.2265625 415 855.2265625 412 710.708984375 c 0,29,30
 412 699.708984375 412 699.708984375 411 688.870117188 c 0,31,32
 409 562.19140625 409 562.19140625 411 533.870117188 c 0,33,34
 413 456.547851562 413 456.547851562 424 425.778320312 c 0,35,36
 428 416.134765625 428 416.134765625 421 398.760742188 c 128,-1,37
 414 381.387695312 414 381.387695312 401 366.478515625 c 128,-1,38
 388 351.5703125 388 351.5703125 376.5 348.920898438 c 128,-1,39
 365 346.271484375 365 346.271484375 361 355.915039062 c 0,40,41
 347 395.16796875 347 395.16796875 346 477.328125 c 0,42,43
 345 519.489257812 345 519.489257812 346 587.328125 c 1,44,45
 299 514.890625 299 514.890625 260 458.166015625 c 0,46,47
 184 351.39453125 184 351.39453125 122 278.370117188 c 1,48,49
 117 171.174804688 117 171.174804688 138 121.795898438 c 0,50,51
 142 112.15234375 142 112.15234375 135.5 95.1982421875 c 128,-1,52
 129 78.244140625 129 78.244140625 116 63.3359375 c 128,-1,53
 103 48.427734375 103 48.427734375 91.5 44.77734375 c 128,-1,54
 80 41.1279296875 80 41.1279296875 76 50.771484375 c 0,13,14
EndSplineSet
EndChar

StartChar: B
Encoding: 66 66 37
AltUni2: 00ff22.ffffffff.0 00212c.ffffffff.0 001d2e.ffffffff.0 0013f4.ffffffff.0 000412.ffffffff.0 000392.ffffffff.0 00ff22.ffffffff.0 00212c.ffffffff.0 001d2e.ffffffff.0 0013f4.ffffffff.0 000412.ffffffff.0 000392.ffffffff.0
Width: 452
GlyphClass: 1
Flags: HW
LayerCount: 2
Fore
SplineSet
132 512.760742188 m 1,0,1
 140 521.473632812 140 521.473632812 149.5 532.9453125 c 128,-1,2
 159 544.416992188 159 544.416992188 164.5 551.532226562 c 128,-1,3
 170 558.646484375 170 558.646484375 172 560.325195312 c 0,4,5
 193 586.946289062 193 586.946289062 220 620.6015625 c 0,6,7
 247 657.2578125 247 657.2578125 263 686.68359375 c 0,8,9
 277 712.430664062 277 712.430664062 291 743.177734375 c 0,10,11
 325 812.70703125 325 812.70703125 311 840.959960938 c 0,12,13
 298 868.051757812 298 868.051757812 252 855.453125 c 0,14,15
 204 841.176757812 204 841.176757812 149 789.025390625 c 0,16,17
 148 787.186523438 148 787.186523438 144 783.830078125 c 128,-1,18
 140 780.473632812 140 780.473632812 139 778.634765625 c 0,19,20
 132 647.760742188 132 647.760742188 132 512.760742188 c 1,0,1
138 153.795898438 m 1,21,22
 139 156.634765625 139 156.634765625 142 159.65234375 c 128,-1,23
 145 162.669921875 145 162.669921875 146 163.508789062 c 0,24,25
 152 168.54296875 152 168.54296875 169 186.807617188 c 0,26,27
 174 192.002929688 174 192.002929688 181.5 199.796875 c 128,-1,28
 189 207.58984375 189 207.58984375 192 210.107421875 c 0,29,30
 294 314.6953125 294 314.6953125 323 368.029296875 c 0,31,32
 358 431.397460938 358 431.397460938 355 471.879882812 c 0,33,34
 352 509.36328125 352 509.36328125 315 520.31640625 c 128,-1,35
 278 531.26953125 278 531.26953125 228 508.314453125 c 128,-1,36
 178 485.359375 178 485.359375 138 439.795898438 c 0,37,38
 137 438.95703125 137 438.95703125 135 436.778320312 c 128,-1,39
 133 434.600585938 133 434.600585938 132 432.760742188 c 0,40,41
 132 377.760742188 132 377.760742188 134 255.439453125 c 1,42,-1
 136 224.1171875 l 2,43,44
 137 216.95703125 137 216.95703125 137 202.95703125 c 0,45,46
 138 184.795898438 138 184.795898438 138 159.795898438 c 2,47,-1
 138 153.795898438 l 1,21,22
1 658.838867188 m 0,48,49
 59 772.506835938 59 772.506835938 142 850.15234375 c 0,50,51
 216 922.245117188 216 922.245117188 285 943.143554688 c 0,52,53
 355 962.879882812 355 962.879882812 376 917.500976562 c 0,54,55
 400 863.639648438 400 863.639648438 346 747.328125 c 0,56,57
 322 699.190429688 322 699.190429688 311 678.959960938 c 0,58,59
 283 628.46484375 283 628.46484375 256 593.809570312 c 1,60,61
 320 620.51171875 320 620.51171875 365 607.271484375 c 0,62,63
 417 592.904296875 417 592.904296875 423 534.939453125 c 0,64,65
 430 464.8125 430 464.8125 371 359.305664062 c 0,66,67
 346 313.328125 346 313.328125 294 250.6953125 c 0,68,69
 263 213.68359375 263 213.68359375 205 154.015625 c 0,70,71
 202 151.498046875 202 151.498046875 194 143.28515625 c 128,-1,72
 186 135.072265625 186 135.072265625 181 129.876953125 c 0,73,74
 179 126.19921875 179 126.19921875 169.5 116.727539062 c 128,-1,75
 160 107.255859375 160 107.255859375 158 105.578125 c 0,76,77
 100 45.91015625 100 45.91015625 83 26.6455078125 c 0,78,79
 69 8.8974609375 69 8.8974609375 56.5 4.9091796875 c 128,-1,80
 44 0.919921875 44 0.919921875 40 11.564453125 c 0,81,82
 35 20.3681640625 35 20.3681640625 41 38.4033203125 c 128,-1,83
 47 56.4375 47 56.4375 61 73.185546875 c 0,84,85
 64 75.7021484375 64 75.7021484375 66 78.380859375 c 0,86,87
 64 87.7021484375 64 87.7021484375 69 101.897460938 c 1,88,-1
 69 103.897460938 l 2,89,90
 69 125.897460938 69 125.897460938 68 143.05859375 c 0,91,92
 68 156.05859375 68 156.05859375 67 163.219726562 c 2,93,-1
 67 174.219726562 l 2,94,95
 67 183.219726562 67 183.219726562 66 184.380859375 c 2,96,-1
 66 197.380859375 l 1,97,98
 60 449.345703125 60 449.345703125 68 687.05859375 c 1,99,-1
 53 658.47265625 l 2,100,101
 44 639.919921875 44 639.919921875 30 627.172851562 c 128,-1,102
 16 614.42578125 16 614.42578125 5 615.1953125 c 0,103,104
 -5 614.8046875 -5 614.8046875 -6 627.965820312 c 128,-1,105
 -7 641.125976562 -7 641.125976562 1 658.838867188 c 0,48,49
EndSplineSet
EndChar

StartChar: C
Encoding: 67 67 38
AltUni2: 00ff23.ffffffff.0 00a7f2.ffffffff.0 00216d.ffffffff.0 00212d.ffffffff.0 002102.ffffffff.0 0013df.ffffffff.0 000421.ffffffff.0 00ff23.ffffffff.0 00a7f2.ffffffff.0 00216d.ffffffff.0 00212d.ffffffff.0 002102.ffffffff.0 0013df.ffffffff.0 000421.ffffffff.0
Width: 501
GlyphClass: 1
Flags: HW
LayerCount: 2
Fore
SplineSet
427 1009.29589844 m 0,0,1
 420 1022.421875 420 1022.421875 409 1026.19140625 c 0,2,3
 403 1027.15722656 403 1027.15722656 396 1023.28320312 c 0,4,5
 381 1014.69726562 381 1014.69726562 357 973.55859375 c 0,6,7
 292 868.017578125 292 868.017578125 224 665.958007812 c 0,8,9
 157 469.73828125 157 469.73828125 134 323.439453125 c 0,10,11
 124 258.048828125 124 258.048828125 129 221.244140625 c 0,12,13
 135 196.278320312 135 196.278320312 146 200.508789062 c 0,14,15
 190 216.428710938 190 216.428710938 262 286.84375 c 0,16,17
 293 316.856445312 293 316.856445312 343 372.811523438 c 0,18,19
 344 373.650390625 344 373.650390625 346 375.828125 c 128,-1,20
 348 378.006835938 348 378.006835938 349 378.845703125 c 0,21,22
 350 380.684570312 350 380.684570312 353 383.202148438 c 0,23,24
 354 385.041015625 354 385.041015625 356 386.719726562 c 0,25,26
 362 393.75390625 362 393.75390625 370 402.466796875 c 0,27,28
 385 418.053710938 385 418.053710938 397 431.122070312 c 0,29,30
 410 445.03125 410 445.03125 421.5 447.680664062 c 128,-1,31
 433 450.330078125 433 450.330078125 436 439.84765625 c 128,-1,32
 439 429.364257812 439 429.364257812 432 411.991210938 c 128,-1,33
 425 394.6171875 425 394.6171875 411 379.870117188 c 0,34,35
 399 366.80078125 399 366.80078125 386 352.892578125 c 0,36,37
 378 344.1796875 378 344.1796875 373 337.984375 c 0,38,39
 371 336.305664062 371 336.305664062 369 333.627929688 c 0,40,41
 367 331.94921875 367 331.94921875 366 330.110351562 c 0,42,43
 364 328.432617188 364 328.432617188 362 326.25390625 c 128,-1,44
 360 324.076171875 360 324.076171875 359 323.236328125 c 0,45,46
 310 269.12109375 310 269.12109375 272 231.235351562 c 0,47,48
 180 140.038085938 180 140.038085938 117 118.174804688 c 0,49,50
 75 102.932617188 75 102.932617188 65 157.541015625 c 0,51,52
 58 199.66796875 58 199.66796875 70 280.737304688 c 0,53,54
 93 435.036132812 93 435.036132812 165 644.451171875 c 0,55,56
 239 863.544921875 239 863.544921875 316 990.155273438 c 0,57,58
 366 1072.11035156 366 1072.11035156 411 1099.87011719 c 0,59,60
 460 1128.98535156 460 1128.98535156 488 1084.48046875 c 0,61,62
 493 1076.67578125 493 1076.67578125 487.5 1059.56152344 c 128,-1,63
 482 1042.44628906 482 1042.44628906 470 1027.37695312 c 0,64,65
 457 1011.46875 457 1011.46875 444.5 1005.97949219 c 128,-1,66
 432 1000.49121094 432 1000.49121094 427 1009.29589844 c 0,0,1
EndSplineSet
EndChar

StartChar: D
Encoding: 68 68 39
AltUni2: 00ff24.ffffffff.0 00216e.ffffffff.0 002145.ffffffff.0 001d30.ffffffff.0 0013a0.ffffffff.0 00ff24.ffffffff.0 00216e.ffffffff.0 002145.ffffffff.0 001d30.ffffffff.0 0013a0.ffffffff.0
Width: 598
GlyphClass: 1
Flags: HW
LayerCount: 2
Fore
SplineSet
187 829.912109375 m 1,0,1
 160 655.255859375 160 655.255859375 138 416.795898438 c 0,2,3
 125 269.887695312 125 269.887695312 126 192.7265625 c 0,4,5
 126 152.7265625 126 152.7265625 131 129.921875 c 1,6,7
 281 323.787109375 281 323.787109375 351 459.524414062 c 0,8,9
 398 549.961914062 398 549.961914062 434 641.168945312 c 0,10,11
 479 751.928710938 479 751.928710938 497 833.032226562 c 0,12,13
 518 925.653320312 518 925.653320312 500 968.549804688 c 0,14,15
 481 1016.60644531 481 1016.60644531 412 998.708984375 c 0,16,17
 384 991.213867188 384 991.213867188 318 943.333984375 c 128,-1,18
 252 895.453125 252 895.453125 187 834.912109375 c 1,19,-1
 187 829.912109375 l 1,0,1
10 604.390625 m 0,20,21
 -5 626.8046875 -5 626.8046875 4.5 663.276367188 c 128,-1,22
 14 699.747070312 14 699.747070312 46 746.598632812 c 0,23,24
 95 816.71484375 95 816.71484375 176 892.681640625 c 0,25,26
 252 964.453125 252 964.453125 329.5 1019.98339844 c 128,-1,27
 407 1075.51367188 407 1075.51367188 446 1085.23828125 c 0,28,29
 538 1109.43554688 538 1109.43554688 565 1043.09082031 c 0,30,31
 588 987.390625 588 987.390625 563 870.413085938 c 0,32,33
 544 782.469726562 544 782.469726562 493 654.67578125 c 0,34,35
 449 545.755859375 449 545.755859375 401 455.478515625 c 0,36,37
 313 285.638671875 313 285.638671875 140 67.4736328125 c 1,38,39
 129 46.244140625 129 46.244140625 115 36.49609375 c 1,40,41
 61 -30.814453125 61 -30.814453125 15 -81.4130859375 c 0,42,43
 1 -97.1611328125 1 -97.1611328125 -11.5 -100.149414062 c 128,-1,44
 -24 -103.138671875 -24 -103.138671875 -27 -92.6552734375 c 0,45,46
 -31 -82.01171875 -31 -82.01171875 -24 -64.138671875 c 128,-1,47
 -17 -46.2646484375 -17 -46.2646484375 -3 -30.517578125 c 0,48,49
 30 6.1728515625 30 6.1728515625 67 50.2197265625 c 1,50,-1
 64 57.7021484375 l 1,51,52
 59 86.5068359375 59 86.5068359375 58 134.66796875 c 0,53,54
 56 219.989257812 56 219.989257812 71 366.576171875 c 0,55,56
 88 562.840820312 88 562.840820312 116 761.3359375 c 1,57,58
 95 737.71484375 95 737.71484375 83 719.645507812 c 0,59,60
 71 702.576171875 71 702.576171875 70 695.737304688 c 0,61,62
 67 689.219726562 67 689.219726562 72 684.415039062 c 0,63,64
 77 676.610351562 77 676.610351562 72 658.915039062 c 128,-1,65
 67 641.219726562 67 641.219726562 55 625.150390625 c 0,66,67
 42 609.2421875 42 609.2421875 28.5 602.4140625 c 128,-1,68
 15 595.586914062 15 595.586914062 10 604.390625 c 0,20,21
EndSplineSet
EndChar

StartChar: E
Encoding: 69 69 40
AltUni2: 00ff25.ffffffff.0 002130.ffffffff.0 001d31.ffffffff.0 0013ac.ffffffff.0 000415.ffffffff.0 000395.ffffffff.0 00ff25.ffffffff.0 002130.ffffffff.0 001d31.ffffffff.0 0013ac.ffffffff.0 000415.ffffffff.0 000395.ffffffff.0
Width: 505
GlyphClass: 1
Flags: HW
LayerCount: 2
Fore
SplineSet
224 830.958007812 m 0,0,1
 192 739.107421875 192 739.107421875 159 597.416992188 c 0,2,3
 150 556.865234375 150 556.865234375 148 545.186523438 c 1,4,5
 225 650.797851562 225 650.797851562 327 756.385742188 c 0,6,7
 341 770.1328125 341 770.1328125 352.5 771.782226562 c 128,-1,8
 364 773.432617188 364 773.432617188 367 762.44921875 c 128,-1,9
 370 751.466796875 370 751.466796875 362.5 733.173828125 c 128,-1,10
 355 714.879882812 355 714.879882812 340 699.293945312 c 0,11,12
 211 565.049804688 211 565.049804688 128 434.404296875 c 1,13,14
 118 365.013671875 118 365.013671875 117 326.174804688 c 0,15,16
 112 203.979492188 112 203.979492188 154 187.221679688 c 0,17,18
 175 178.842773438 175 178.842773438 210 201.2109375 c 0,19,20
 253 228.291992188 253 228.291992188 314 296.477539062 c 0,21,22
 327 310.385742188 327 310.385742188 339 313.955078125 c 128,-1,23
 351 317.524414062 351 317.524414062 356 307.719726562 c 0,24,25
 359 295.236328125 359 295.236328125 352 277.36328125 c 128,-1,26
 345 259.489257812 345 259.489257812 331 244.7421875 c 0,27,28
 175 72.8427734375 175 72.8427734375 102 100.587890625 c 0,29,30
 43 123.081054688 43 123.081054688 49 273.116210938 c 0,31,32
 49 284.116210938 49 284.116210938 51 310.793945312 c 1,33,34
 33 292.690429688 33 292.690429688 22 296.459960938 c 0,35,36
 11 297.23046875 11 297.23046875 11 311.73046875 c 128,-1,37
 11 326.23046875 11 326.23046875 22 344.459960938 c 0,38,39
 37 373.046875 37 373.046875 65 419.541015625 c 1,40,41
 75 484.932617188 75 484.932617188 93 561.036132812 c 0,42,43
 96 573.553710938 96 573.553710938 102 598.087890625 c 128,-1,44
 108 622.623046875 108 622.623046875 110 630.30078125 c 1,45,46
 84 618.484375 84 618.484375 87 648.001953125 c 0,47,48
 94 711.875 94 711.875 147 800.34765625 c 0,49,50
 189 868.58984375 189 868.58984375 254 943.130859375 c 0,51,52
 347 1053.16796875 347 1053.16796875 471 1160.21582031 c 0,53,54
 485 1172.96289062 485 1172.96289062 495.5 1172.2734375 c 128,-1,55
 506 1171.58398438 506 1171.58398438 507 1157.42382812 c 0,56,57
 507 1143.42382812 507 1143.42382812 497 1125.03222656 c 128,-1,58
 487 1106.64160156 487 1106.64160156 473 1093.89453125 c 0,59,60
 364 1000.43261719 364 1000.43261719 275 896.751953125 c 0,61,62
 246 863.418945312 246 863.418945312 225 834.797851562 c 0,63,64
 225 833.797851562 225 833.797851562 224 830.958007812 c 0,0,1
EndSplineSet
EndChar

StartChar: F
Encoding: 70 70 41
AltUni2: 00ff26.ffffffff.0 00a7f3.ffffffff.0 002131.ffffffff.0 00ff26.ffffffff.0 00a7f3.ffffffff.0 002131.ffffffff.0
Width: 531
GlyphClass: 1
Flags: HW
LayerCount: 2
Fore
SplineSet
101 756.749023438 m 0,0,1
 104 761.266601562 104 761.266601562 108 766.623046875 c 0,2,3
 183 855.555664062 183 855.555664062 288 968.661132812 c 0,4,5
 362 1048.75390625 362 1048.75390625 415 1096.2265625 c 0,6,7
 486 1160.80273438 486 1160.80273438 517 1165.81445312 c 0,8,9
 528 1168.04492188 528 1168.04492188 531 1156.56152344 c 128,-1,10
 534 1145.07910156 534 1145.07910156 527 1127.20507812 c 0,11,12
 519 1109.49316406 519 1109.49316406 505 1094.24511719 c 128,-1,13
 491 1078.99804688 491 1078.99804688 480 1078.76757812 c 0,14,15
 479 1078.92871094 479 1078.92871094 478 1078.08984375 c 0,16,17
 476 1077.41113281 476 1077.41113281 475 1076.57226562 c 0,18,19
 468 1072.69824219 468 1072.69824219 462 1067.6640625 c 0,20,21
 445 1054.39941406 445 1054.39941406 420 1032.421875 c 0,22,23
 380 996.857421875 380 996.857421875 302 914.408203125 c 0,24,25
 215 820.40625 215 820.40625 149 742.025390625 c 1,26,27
 148 735.186523438 148 735.186523438 147.5 726.267578125 c 128,-1,28
 147 717.34765625 147 717.34765625 146 704.508789062 c 128,-1,29
 145 691.669921875 145 691.669921875 144 681.830078125 c 0,30,31
 138 605.795898438 138 605.795898438 135 581.278320312 c 0,32,33
 133 551.600585938 133 551.600585938 129 500.244140625 c 1,34,35
 232 631.670898438 232 631.670898438 390 764.249023438 c 0,36,37
 403 775.157226562 403 775.157226562 413 773.547851562 c 128,-1,38
 423 771.939453125 423 771.939453125 423 757.439453125 c 128,-1,39
 423 742.939453125 423 742.939453125 413 725.047851562 c 128,-1,40
 403 707.157226562 403 707.157226562 390 696.249023438 c 0,41,42
 215 549.40625 215 549.40625 124 417.048828125 c 1,43,44
 109 167.461914062 109 167.461914062 133 100.600585938 c 0,45,46
 136 89.1171875 136 89.1171875 129.5 71.6630859375 c 128,-1,47
 123 54.208984375 123 54.208984375 109.5 38.8818359375 c 128,-1,48
 96 23.5537109375 96 23.5537109375 83.5 20.064453125 c 128,-1,49
 71 16.576171875 71 16.576171875 67 27.2197265625 c 0,50,51
 39 105.724609375 39 105.724609375 57 373.829101562 c 0,52,53
 58 391.66796875 58 391.66796875 67 530.219726562 c 2,54,-1
 76 630.771484375 l 2,55,56
 78 656.450195312 78 656.450195312 79 666.2890625 c 1,57,58
 67 660.219726562 67 660.219726562 60 669.345703125 c 0,59,60
 55 678.150390625 55 678.150390625 60 695.345703125 c 128,-1,61
 65 712.541015625 65 712.541015625 78 729.450195312 c 0,62,63
 84 736.484375 84 736.484375 101 756.749023438 c 0,0,1
EndSplineSet
EndChar

StartChar: G
Encoding: 71 71 42
AltUni2: 00ff27.ffffffff.0 001d33.ffffffff.0 0013c0.ffffffff.0 00ff27.ffffffff.0 001d33.ffffffff.0 0013c0.ffffffff.0
Width: 478
GlyphClass: 1
Flags: HW
LayerCount: 2
Fore
SplineSet
309 596.282226562 m 0,0,1
 372 675.145507812 372 675.145507812 407 701.513671875 c 0,2,3
 458 739.307617188 458 739.307617188 465 690.181640625 c 0,4,5
 469 663.538085938 469 663.538085938 454 583.951171875 c 0,6,7
 450 562.594726562 450 562.594726562 438 504.525390625 c 2,8,-1
 418 407.743164062 l 2,9,10
 415 392.2265625 415 392.2265625 403.5 375.577148438 c 128,-1,11
 392 358.926757812 392 358.926757812 379 351.018554688 c 0,12,13
 377 349.340820312 377 349.340820312 373 347.984375 c 1,14,15
 365 335.271484375 365 335.271484375 361 329.915039062 c 0,16,17
 338 296.615234375 338 296.615234375 315 269.31640625 c 0,18,19
 259 204.327148438 259 204.327148438 203 180.336914062 c 0,20,21
 30 107.172851562 30 107.172851562 39 286.724609375 c 0,22,23
 46 421.598632812 46 421.598632812 157 674.73828125 c 0,24,25
 250 885.775390625 250 885.775390625 345 1038.48925781 c 0,26,27
 393 1115.76660156 393 1115.76660156 424 1141.77832031 c 0,28,29
 459 1171.14648438 459 1171.14648438 466 1142.02050781 c 0,30,31
 470 1128.37695312 470 1128.37695312 460 1090.98535156 c 0,32,33
 455 1074.79003906 455 1074.79003906 443 1059.22070312 c 128,-1,34
 431 1043.65234375 431 1043.65234375 418 1036.74316406 c 0,35,36
 403 1030.15722656 403 1030.15722656 398 1040.96191406 c 1,37,38
 397 1039.12207031 397 1039.12207031 392 1031.42675781 c 128,-1,39
 387 1023.73144531 387 1023.73144531 384 1019.21386719 c 0,40,41
 296 877.373046875 296 877.373046875 210 682.2109375 c 0,42,43
 110 452.30078125 110 452.30078125 104 338.266601562 c 0,44,45
 98 206.231445312 98 206.231445312 228 261.314453125 c 0,46,47
 263 276.68359375 263 276.68359375 294 313.6953125 c 0,48,49
 317 339.994140625 317 339.994140625 364 412.432617188 c 1,50,51
 366 422.110351562 366 422.110351562 369 436.627929688 c 128,-1,52
 372 451.145507812 372 451.145507812 373.5 458.903320312 c 128,-1,53
 375 466.662109375 375 466.662109375 375 467.662109375 c 0,54,55
 385 515.053710938 385 515.053710938 391 545.087890625 c 0,56,57
 403 610.157226562 403 610.157226562 401 628.478515625 c 0,58,59
 400 628.639648438 400 628.639648438 400 630.639648438 c 0,60,61
 384 618.213867188 384 618.213867188 333 556.419921875 c 0,62,63
 320 540.51171875 320 540.51171875 308 535.942382812 c 128,-1,64
 296 531.373046875 296 531.373046875 291 539.177734375 c 0,65,66
 286 547.982421875 286 547.982421875 291 564.677734375 c 128,-1,67
 296 581.373046875 296 581.373046875 309 596.282226562 c 0,0,1
EndSplineSet
EndChar

StartChar: H
Encoding: 72 72 43
AltUni2: 00ff28.ffffffff.0 00210d.ffffffff.0 00210c.ffffffff.0 00210b.ffffffff.0 001d34.ffffffff.0 0013bb.ffffffff.0 00041d.ffffffff.0 000397.ffffffff.0 00ff28.ffffffff.0 00210d.ffffffff.0 00210c.ffffffff.0 00210b.ffffffff.0 001d34.ffffffff.0 0013bb.ffffffff.0 00041d.ffffffff.0 000397.ffffffff.0
Width: 477
GlyphClass: 1
Flags: HW
LayerCount: 2
Fore
SplineSet
469 1090.53808594 m 0,0,1
 411 848.870117188 411 848.870117188 395 694.444335938 c 0,2,3
 374 487.823242188 374 487.823242188 417 383.904296875 c 0,4,5
 421 374.260742188 421 374.260742188 414.5 356.306640625 c 128,-1,6
 408 338.352539062 408 338.352539062 394 322.60546875 c 128,-1,7
 380 306.857421875 380 306.857421875 368 303.2890625 c 128,-1,8
 356 299.719726562 356 299.719726562 351 308.524414062 c 0,9,10
 310 412.12109375 310 412.12109375 323 590.029296875 c 1,11,12
 250 511.775390625 250 511.775390625 243 503.901367188 c 0,13,14
 182 437.715820312 182 437.715820312 142 386.15234375 c 0,15,16
 121 360.53125 121 360.53125 96 323.553710938 c 1,17,18
 93 263.036132812 93 263.036132812 94 225.875 c 0,19,20
 97 132.392578125 97 132.392578125 124 104.048828125 c 0,21,22
 132 97.7607421875 132 97.7607421875 127.5 80.4853515625 c 128,-1,23
 123 63.208984375 123 63.208984375 110 45.30078125 c 0,24,25
 98 28.2314453125 98 28.2314453125 84.5 20.904296875 c 128,-1,26
 71 13.576171875 71 13.576171875 64 20.7021484375 c 0,27,28
 31 55.01171875 31 55.01171875 25 164.977539062 c 0,29,30
 22 254.459960938 22 254.459960938 38 389.885742188 c 0,31,32
 48 474.276367188 48 474.276367188 64 586.702148438 c 0,33,34
 65 591.541015625 65 591.541015625 79 677.2890625 c 128,-1,35
 93 763.036132812 93 763.036132812 95 781.71484375 c 0,36,37
 97 797.392578125 97 797.392578125 108.5 815.041992188 c 128,-1,38
 120 832.692382812 120 832.692382812 133.5 842.01953125 c 128,-1,39
 147 851.34765625 147 851.34765625 155.5 846.98046875 c 128,-1,40
 164 842.612304688 164 842.612304688 162 825.934570312 c 0,41,42
 160 812.255859375 160 812.255859375 153 768.881835938 c 128,-1,43
 146 725.508789062 146 725.508789062 139.5 681.5546875 c 128,-1,44
 133 637.600585938 133 637.600585938 132 631.760742188 c 0,45,46
 115 520.49609375 115 520.49609375 105 437.10546875 c 2,47,-1
 102 409.587890625 l 1,48,-1
 115 426.49609375 l 2,49,50
 161 485.094726562 161 485.094726562 226 555.63671875 c 0,51,52
 255 586.970703125 255 586.970703125 330 666.903320312 c 1,53,54
 347 821.16796875 347 821.16796875 403 1055.15722656 c 0,55,56
 409 1073.19140625 409 1073.19140625 421 1089.76074219 c 128,-1,57
 433 1106.33007812 433 1106.33007812 446.5 1113.65820312 c 128,-1,58
 460 1120.98535156 460 1120.98535156 466.5 1113.94042969 c 128,-1,59
 473 1106.89453125 473 1106.89453125 469 1090.53808594 c 0,0,1
EndSplineSet
EndChar

StartChar: I
Encoding: 73 73 44
AltUni2: 00ff29.ffffffff.0 002160.ffffffff.0 002111.ffffffff.0 002110.ffffffff.0 001d35.ffffffff.0 0004c0.ffffffff.0 000406.ffffffff.0 000399.ffffffff.0 00ff29.ffffffff.0 002160.ffffffff.0 002111.ffffffff.0 002110.ffffffff.0 001d35.ffffffff.0 0004c0.ffffffff.0 000406.ffffffff.0 000399.ffffffff.0
Width: 202
GlyphClass: 1
Flags: HW
LayerCount: 2
Fore
SplineSet
108 60.623046875 m 0,0,1
 97 30.392578125 97 30.392578125 70 46.7373046875 c 0,2,3
 41 65.4033203125 41 65.4033203125 66 412.380859375 c 0,4,5
 94 801.875 94 801.875 113 833.818359375 c 0,6,7
 162 916.934570312 162 916.934570312 174 859.002929688 c 0,8,9
 175 855.842773438 175 855.842773438 131 459.921875 c 0,10,11
 122 375.370117188 122 375.370117188 122 119.370117188 c 0,12,13
 122 110.370117188 122 110.370117188 121 104.53125 c 1,14,15
 123 106.208984375 123 106.208984375 116 83.3359375 c 0,16,17
 110 61.30078125 110 61.30078125 108 60.623046875 c 0,0,1
EndSplineSet
EndChar

StartChar: J
Encoding: 74 74 45
AltUni2: 00ff2a.ffffffff.0 001d36.ffffffff.0 0013ab.ffffffff.0 000408.ffffffff.0 00ff2a.ffffffff.0 001d36.ffffffff.0 0013ab.ffffffff.0 000408.ffffffff.0
Width: 441
GlyphClass: 1
Flags: HW
LayerCount: 2
Fore
SplineSet
108 246.623046875 m 0,0,1
 134 184.439453125 134 184.439453125 183 201.555664062 c 0,2,3
 224 215.958007812 224 215.958007812 265 294.361328125 c 0,4,5
 320 401.51171875 320 401.51171875 344 567.650390625 c 0,6,7
 373 769.984375 373 769.984375 344 1008.65039062 c 0,8,9
 343 1020.81152344 343 1020.81152344 351 1038.52441406 c 128,-1,10
 359 1056.23632812 359 1056.23632812 373 1070.984375 c 0,11,12
 386 1083.89257812 386 1083.89257812 397 1083.62207031 c 128,-1,13
 408 1083.35253906 408 1083.35253906 409 1070.19140625 c 0,14,15
 439 822.364257812 439 822.364257812 408 609.352539062 c 0,16,17
 381 419.697265625 381 419.697265625 312 286.798828125 c 0,18,19
 277 220.430664062 277 220.430664062 236.5 175.947265625 c 128,-1,20
 196 131.463867188 196 131.463867188 156 116.899414062 c 0,21,22
 80 89.1279296875 80 89.1279296875 46 173.598632812 c 0,23,24
 42 184.2421875 42 184.2421875 48 201.776367188 c 128,-1,25
 54 219.311523438 54 219.311523438 67 234.219726562 c 128,-1,26
 80 249.127929688 80 249.127929688 91.5 252.77734375 c 128,-1,27
 103 256.427734375 103 256.427734375 108 246.623046875 c 0,0,1
EndSplineSet
EndChar

StartChar: K
Encoding: 75 75 46
AltUni2: 00ff2b.ffffffff.0 00212a.ffffffff.0 001d37.ffffffff.0 0013e6.ffffffff.0 00041a.ffffffff.0 00039a.ffffffff.0 00ff2b.ffffffff.0 00212a.ffffffff.0 001d37.ffffffff.0 0013e6.ffffffff.0 00041a.ffffffff.0 00039a.ffffffff.0
Width: 490
GlyphClass: 1
Flags: HW
LayerCount: 2
Fore
SplineSet
209.5 895.291015625 m 128,-1,1
 207 878.693359375 207 878.693359375 191 770.267578125 c 0,2,3
 191 764.267578125 191 764.267578125 187 748.912109375 c 0,4,5
 185 733.233398438 185 733.233398438 184 727.39453125 c 0,6,7
 181 699.876953125 181 699.876953125 177 681.520507812 c 0,8,9
 165 598.451171875 165 598.451171875 162 581.934570312 c 1,10,11
 279 867.108398438 279 867.108398438 423 1094.93945312 c 0,12,13
 433 1112.33007812 433 1112.33007812 447 1121.57714844 c 128,-1,14
 461 1130.82519531 461 1130.82519531 470 1127.37695312 c 0,15,16
 478 1123.08984375 478 1123.08984375 476.5 1107.83105469 c 128,-1,17
 475 1092.57226562 475 1092.57226562 464 1075.34179688 c 0,18,19
 304 820.0859375 304 820.0859375 191 519.267578125 c 1,20,21
 203 511.336914062 203 511.336914062 239 484.544921875 c 0,22,23
 240 483.383789062 240 483.383789062 243 480.901367188 c 128,-1,24
 246 478.418945312 246 478.418945312 247 477.2578125 c 0,25,26
 253 472.291992188 253 472.291992188 256 470.809570312 c 0,27,28
 304 433.0859375 304 433.0859375 332 417.581054688 c 0,29,30
 375 395.662109375 375 395.662109375 426 395.456054688 c 0,31,32
 436 394.84765625 436 394.84765625 437 381.686523438 c 128,-1,33
 438 368.525390625 438 368.525390625 430 350.8125 c 0,34,35
 421 331.260742188 421 331.260742188 407 318.513671875 c 128,-1,36
 393 305.766601562 393 305.766601562 382 305.536132812 c 0,37,38
 328 305.224609375 328 305.224609375 277 330.430664062 c 0,39,40
 243 347.901367188 243 347.901367188 197 386.302734375 c 0,41,42
 192 392.107421875 192 392.107421875 188 391.750976562 c 0,43,44
 181 398.876953125 181 398.876953125 180 399.038085938 c 0,45,46
 176 402.681640625 176 402.681640625 167.5 409.548828125 c 128,-1,47
 159 416.416992188 159 416.416992188 155 419.060546875 c 1,48,49
 153 412.381835938 153 412.381835938 148 398.186523438 c 128,-1,50
 143 383.991210938 143 383.991210938 141 376.313476562 c 0,51,52
 137 363.95703125 137 363.95703125 132 355.760742188 c 1,53,54
 121 265.53125 121 265.53125 116 201.3359375 c 0,55,56
 113 146.818359375 113 146.818359375 116 120.3359375 c 0,57,58
 118 110.013671875 118 110.013671875 118 109.013671875 c 0,59,60
 138 110.795898438 138 110.795898438 132 82.7607421875 c 0,61,62
 128 65.404296875 128 65.404296875 115.5 48.416015625 c 128,-1,63
 103 31.427734375 103 31.427734375 90 24.5185546875 c 0,64,65
 68 11.05859375 68 11.05859375 57 27.8291015625 c 0,66,67
 50 37.955078125 50 37.955078125 49 57.1162109375 c 0,68,69
 45 88.759765625 45 88.759765625 49 149.116210938 c 0,70,71
 55 254.150390625 55 254.150390625 80 436.127929688 c 0,72,73
 83 455.645507812 83 455.645507812 88.5 492.760742188 c 128,-1,74
 94 529.875 94 529.875 95 537.71484375 c 0,75,76
 99 562.071289062 99 562.071289062 110 637.30078125 c 2,77,-1
 113 654.818359375 l 2,78,79
 116 673.3359375 116 673.3359375 117 683.174804688 c 2,80,-1
 120 704.692382812 l 2,81,82
 123 717.208984375 123 717.208984375 123 725.208984375 c 0,83,84
 139 826.634765625 139 826.634765625 141 847.313476562 c 0,85,86
 143 862.991210938 143 862.991210938 154 880.721679688 c 128,-1,87
 165 898.451171875 165 898.451171875 180 909.038085938 c 0,88,89
 194 918.78515625 194 918.78515625 203 915.336914062 c 128,-1,0
 212 911.888671875 212 911.888671875 209.5 895.291015625 c 128,-1,1
EndSplineSet
EndChar

StartChar: L
Encoding: 76 76 47
AltUni2: 00ff2c.ffffffff.0 00216c.ffffffff.0 002112.ffffffff.0 001d38.ffffffff.0 0013de.ffffffff.0 00ff2c.ffffffff.0 00216c.ffffffff.0 002112.ffffffff.0 001d38.ffffffff.0 0013de.ffffffff.0
Width: 465
GlyphClass: 1
Flags: HW
LayerCount: 2
Fore
SplineSet
156 843.899414062 m 0,0,1
 154 817.221679688 154 817.221679688 149 765.025390625 c 0,2,3
 139 676.634765625 139 676.634765625 136 647.1171875 c 0,4,5
 126 551.7265625 126 551.7265625 120 465.692382812 c 0,6,7
 111 309.139648438 111 309.139648438 124 234.048828125 c 0,8,9
 134 193.439453125 134 193.439453125 147 183.34765625 c 0,10,11
 158 172.578125 158 172.578125 176 184.681640625 c 0,12,13
 201 200.659179688 201 200.659179688 236 234.02734375 c 0,14,15
 272 268.235351562 272 268.235351562 302 299.408203125 c 0,16,17
 303 300.247070312 303 300.247070312 305.5 302.844726562 c 128,-1,18
 308 305.442382812 308 305.442382812 310 307.12109375 c 0,19,20
 347 345.16796875 347 345.16796875 365 362.271484375 c 0,21,22
 393 389.766601562 393 389.766601562 422 414.099609375 c 0,23,24
 436 425.84765625 436 425.84765625 445 422.899414062 c 128,-1,25
 454 419.951171875 454 419.951171875 454 405.951171875 c 0,26,27
 454 389.951171875 454 389.951171875 444.5 371.479492188 c 128,-1,28
 435 353.008789062 435 353.008789062 422 342.099609375 c 0,29,30
 384 310.213867188 384 310.213867188 320 244.51171875 c 0,31,32
 317 240.994140625 317 240.994140625 313 237.638671875 c 0,33,34
 261 185.004882812 261 185.004882812 241 166.22265625 c 0,35,36
 197 126.302734375 197 126.302734375 167 106.129882812 c 0,37,38
 121 74.53125 121 74.53125 93 98.0361328125 c 0,39,40
 71 116.576171875 71 116.576171875 60 167.345703125 c 0,41,42
 44 247.919921875 44 247.919921875 55 416.150390625 c 0,43,44
 61 505.185546875 61 505.185546875 71 601.576171875 c 2,45,-1
 84 718.484375 l 2,46,47
 91 786.358398438 91 786.358398438 91 793.358398438 c 0,48,49
 92 809.197265625 92 809.197265625 102 827.587890625 c 128,-1,50
 112 845.979492188 112 845.979492188 125 855.887695312 c 0,51,52
 139 866.634765625 139 866.634765625 148 863.186523438 c 128,-1,53
 157 859.73828125 157 859.73828125 156 843.899414062 c 0,0,1
EndSplineSet
EndChar

StartChar: M
Encoding: 77 77 48
AltUni2: 00ff2d.ffffffff.0 00216f.ffffffff.0 002133.ffffffff.0 001d39.ffffffff.0 0013b7.ffffffff.0 00041c.ffffffff.0 00039c.ffffffff.0 00ff2d.ffffffff.0 00216f.ffffffff.0 002133.ffffffff.0 001d39.ffffffff.0 0013b7.ffffffff.0 00041c.ffffffff.0 00039c.ffffffff.0
Width: 577
GlyphClass: 1
Flags: HW
LayerCount: 2
Fore
SplineSet
168 854.96875 m 2,0,1
 171 863.486328125 171 863.486328125 171 867.486328125 c 2,2,-1
 171 873.486328125 l 2,3,4
 171 876.486328125 171 876.486328125 169 883.807617188 c 0,5,6
 163 894.7734375 163 894.7734375 149 888.025390625 c 0,7,8
 144 885.830078125 144 885.830078125 137 879.95703125 c 128,-1,9
 130 874.083007812 130 874.083007812 122.5 862.790039062 c 128,-1,10
 115 851.49609375 115 851.49609375 113 846.818359375 c 0,11,12
 112 843.979492188 112 843.979492188 109 839.461914062 c 0,13,14
 104 824.266601562 104 824.266601562 103 816.427734375 c 0,15,16
 101 810.749023438 101 810.749023438 100 804.91015625 c 0,17,18
 49 621.116210938 49 621.116210938 33 514.690429688 c 0,19,20
 10 369.390625 10 369.390625 10 287.390625 c 0,21,22
 10 265.390625 10 265.390625 12 245.069335938 c 0,23,24
 15 217.586914062 15 217.586914062 19 195.443359375 c 128,-1,25
 23 173.298828125 23 173.298828125 24.5 161.557617188 c 128,-1,26
 26 149.81640625 26 149.81640625 28 142.495117188 c 0,27,28
 31 136.01171875 31 136.01171875 31 131.01171875 c 0,29,30
 31 123.01171875 31 123.01171875 34 113.529296875 c 0,31,32
 37 96.046875 37 96.046875 48 26.2763671875 c 0,33,34
 51 22.7939453125 51 22.7939453125 53 21.47265625 c 0,35,36
 59 19.5068359375 59 19.5068359375 67 18.2197265625 c 256,37,38
 75 16.9326171875 75 16.9326171875 82 22.806640625 c 0,39,40
 83 23.6455078125 83 23.6455078125 84 24.484375 c 0,41,42
 98 38.2314453125 98 38.2314453125 106 55.9443359375 c 128,-1,43
 114 73.6572265625 114 73.6572265625 114 86.6572265625 c 0,44,45
 114 87.6572265625 114 87.6572265625 114 88.6572265625 c 0,46,47
 109 128.461914062 109 128.461914062 98 186.231445312 c 128,-1,48
 87 244.001953125 87 244.001953125 85 255.823242188 c 128,-1,49
 83 267.645507812 83 267.645507812 78 305.450195312 c 0,50,51
 76 325.771484375 76 325.771484375 76 344.771484375 c 0,52,53
 76 421.771484375 76 421.771484375 97 552.392578125 c 0,54,55
 105 600.10546875 105 600.10546875 126 691.7265625 c 1,56,57
 140 635.473632812 140 635.473632812 144 610.830078125 c 0,58,59
 153 518.381835938 153 518.381835938 167 457.129882812 c 0,60,61
 189 375.58984375 189 375.58984375 232 331.670898438 c 0,62,63
 241 322.22265625 241 322.22265625 260 329.166015625 c 0,64,65
 276 338.591796875 276 338.591796875 280 341.948242188 c 1,66,67
 283 344.46484375 283 344.46484375 285 346.143554688 c 0,68,69
 299 357.890625 299 357.890625 310 377.12109375 c 0,70,71
 318 391.833984375 318 391.833984375 321 402.350585938 c 0,72,73
 323 408.029296875 323 408.029296875 324 414.868164062 c 0,74,75
 327 428.385742188 327 428.385742188 329 441.063476562 c 0,76,77
 334 467.258789062 334 467.258789062 345 550.489257812 c 0,78,79
 360 660.076171875 360 660.076171875 372 733.145507812 c 0,80,81
 401 904.478515625 401 904.478515625 421 971.260742188 c 0,82,83
 424 981.778320312 424 981.778320312 430 1004.8125 c 1,84,-1
 430 987.8125 l 2,85,86
 430 966.8125 430 966.8125 432 951.491210938 c 0,87,88
 436 888.84765625 436 888.84765625 442 861.881835938 c 1,89,90
 442 855.881835938 442 855.881835938 443 850.720703125 c 1,91,-1
 443 846.720703125 l 1,92,-1
 444 844.560546875 l 1,93,-1
 444 843.560546875 l 2,94,95
 444 842.560546875 444 842.560546875 444 840.560546875 c 0,96,97
 445 837.399414062 445 837.399414062 449 806.755859375 c 0,98,99
 451 795.43359375 451 795.43359375 455 742.790039062 c 1,100,101
 455 716.790039062 455 716.790039062 458 679.307617188 c 0,102,103
 462 616.6640625 462 616.6640625 462 608.6640625 c 0,104,105
 469 536.538085938 469 536.538085938 479 486.928710938 c 0,106,107
 494 424.515625 494 424.515625 519 417.493164062 c 0,108,109
 529 413.883789062 529 413.883789062 543 425.630859375 c 128,-1,110
 557 437.37890625 557 437.37890625 566 453.930664062 c 0,111,112
 577 473.16015625 577 473.16015625 577 488.16015625 c 0,113,114
 577 501.16015625 577 501.16015625 569 503.447265625 c 0,115,116
 554 505.861328125 554 505.861328125 544 553.469726562 c 0,117,118
 533 601.240234375 533 601.240234375 529 670.883789062 c 1,119,120
 529 681.883789062 529 681.883789062 525 730.02734375 c 128,-1,121
 521 778.170898438 521 778.170898438 521 801.170898438 c 0,122,123
 518 860.653320312 518 860.653320312 516 868.975585938 c 128,-1,124
 514 877.296875 514 877.296875 513 887.458007812 c 2,125,-1
 510 902.940429688 l 2,126,127
 510 906.940429688 510 906.940429688 509 909.1015625 c 2,128,-1
 509 916.1015625 l 2,129,130
 507 924.423828125 507 924.423828125 506.5 930.00390625 c 128,-1,131
 506 935.583984375 506 935.583984375 503 945.067382812 c 0,132,133
 501 955.388671875 501 955.388671875 500 973.549804688 c 0,134,135
 499 992.7109375 499 992.7109375 498 1009.87207031 c 0,136,137
 496 1022.19335938 496 1022.19335938 496 1053.19335938 c 2,138,-1
 496 1061.19335938 l 2,139,140
 496 1073.19335938 496 1073.19335938 495 1088.35449219 c 0,141,142
 495 1103.35449219 495 1103.35449219 490 1119.15917969 c 0,143,144
 487 1128.64160156 487 1128.64160156 481 1133.60644531 c 0,145,146
 469 1139.53808594 469 1139.53808594 452 1125.2734375 c 0,147,148
 448 1121.91699219 448 1121.91699219 443 1116.72070312 c 0,149,150
 411 1083.87011719 411 1083.87011719 388 1026.5703125 c 0,151,152
 372 987.145507812 372 987.145507812 355 926.879882812 c 0,153,154
 331 838.7421875 331 838.7421875 307 690.603515625 c 0,155,156
 306 680.764648438 306 680.764648438 290 574.338867188 c 0,157,158
 287 549.821289062 287 549.821289062 276 474.591796875 c 0,159,160
 274 453.913085938 274 453.913085938 271 444.396484375 c 0,161,162
 270 438.556640625 270 438.556640625 269 435.717773438 c 1,163,164
 244 477.740234375 244 477.740234375 232 525.670898438 c 0,165,166
 219 573.762695312 219 573.762695312 209 673.372070312 c 0,167,168
 204 709.176757812 204 709.176757812 191 756.267578125 c 1,169,170
 191 758.267578125 191 758.267578125 190 760.428710938 c 0,171,172
 176 816.681640625 176 816.681640625 174.5 825.422851562 c 128,-1,173
 173 834.1640625 173 834.1640625 172 836.325195312 c 0,174,175
 172 837.325195312 172 837.325195312 171 840.486328125 c 0,176,177
 170 844.646484375 170 844.646484375 170 847.646484375 c 0,178,179
 169 847.807617188 169 847.807617188 169 848.807617188 c 0,180,181
 169 851.807617188 169 851.807617188 168 852.96875 c 1,182,-1
 168 851.96875 l 1,183,-1
 168 852.96875 l 1,184,-1
 168 854.96875 l 2,0,1
EndSplineSet
EndChar

StartChar: N
Encoding: 78 78 49
AltUni2: 00ff2e.ffffffff.0 002115.ffffffff.0 001d3a.ffffffff.0 00039d.ffffffff.0 00ff2e.ffffffff.0 002115.ffffffff.0 001d3a.ffffffff.0 00039d.ffffffff.0
Width: 535
GlyphClass: 1
Flags: HW
LayerCount: 2
Fore
SplineSet
146 777.508789062 m 1,0,1
 132 743.760742188 132 743.760742188 129 674.244140625 c 0,2,3
 127 612.565429688 127 612.565429688 136 464.1171875 c 0,4,5
 138 432.795898438 138 432.795898438 144 405.830078125 c 0,6,7
 148 380.186523438 148 380.186523438 150 360.865234375 c 0,8,9
 156 325.899414062 156 325.899414062 157 315.73828125 c 0,10,11
 159 283.416992188 159 283.416992188 170 243.646484375 c 0,12,13
 179 209.19921875 179 209.19921875 183 185.555664062 c 0,14,15
 187 158.912109375 187 158.912109375 167 116.129882812 c 0,16,17
 157 94.73828125 157 94.73828125 142 79.65234375 c 128,-1,18
 127 64.5654296875 127 64.5654296875 114 61.6572265625 c 0,19,20
 103 60.427734375 103 60.427734375 94 67.875 c 0,21,22
 81 79.966796875 81 79.966796875 75 96.9326171875 c 0,23,24
 47 182.4375 47 182.4375 40 343.564453125 c 0,25,26
 37 416.046875 37 416.046875 37 472.046875 c 2,27,-1
 37 474.046875 l 2,28,29
 37 559.046875 37 559.046875 35 590.368164062 c 0,30,31
 34 602.529296875 34 602.529296875 43 619.581054688 c 128,-1,32
 52 636.6328125 52 636.6328125 65 648.541015625 c 1,33,34
 68 689.05859375 68 689.05859375 77 723.610351562 c 0,35,36
 92 782.197265625 92 782.197265625 126 829.7265625 c 0,37,38
 133 839.600585938 133 839.600585938 147 852.34765625 c 0,39,40
 165 869.451171875 165 869.451171875 179 867.19921875 c 0,41,42
 208 862.533203125 208 862.533203125 250 789.775390625 c 0,43,44
 271 753.396484375 271 753.396484375 316 644.155273438 c 0,45,46
 377 497.340820312 377 497.340820312 394 478.60546875 c 0,47,48
 418 452.743164062 418 452.743164062 430 438.8125 c 0,49,50
 431 437.65234375 431 437.65234375 433.5 437.25 c 128,-1,51
 436 436.84765625 436 436.84765625 437 435.686523438 c 1,52,53
 445 469.399414062 445 469.399414062 449 502.755859375 c 0,54,55
 460 584.985351562 460 584.985351562 460 719.985351562 c 0,56,57
 460 831.985351562 460 831.985351562 454 940.951171875 c 0,58,59
 448 1027.91699219 448 1027.91699219 438 1086.52539062 c 0,60,61
 436 1097.84765625 436 1097.84765625 443.5 1115.640625 c 128,-1,62
 451 1133.43359375 451 1133.43359375 464 1146.34179688 c 0,63,64
 477 1160.25097656 477 1160.25097656 488.5 1162.40039062 c 128,-1,65
 500 1164.54980469 500 1164.54980469 502 1152.22753906 c 0,66,67
 527 1049.20507812 527 1049.20507812 525 774.52734375 c 0,68,69
 524 649.688476562 524 649.688476562 513 548.458007812 c 0,70,71
 507 489.423828125 507 489.423828125 497 460.032226562 c 0,72,73
 488 432.48046875 488 432.48046875 480 417.767578125 c 0,74,75
 465 387.181640625 465 387.181640625 444 369.560546875 c 128,-1,76
 423 351.939453125 423 351.939453125 404 349.99609375 c 0,77,78
 391 349.087890625 391 349.087890625 377 356.340820312 c 0,79,80
 353 370.202148438 353 370.202148438 334 403.258789062 c 0,81,82
 325 418.70703125 325 418.70703125 294 480.6953125 c 0,83,84
 277 515.430664062 277 515.430664062 254 573.130859375 c 0,85,86
 209 681.372070312 209 681.372070312 190 716.428710938 c 0,87,88
 165 760.451171875 165 760.451171875 146 777.508789062 c 1,0,1
EndSplineSet
EndChar

StartChar: O
Encoding: 79 79 50
AltUni2: 00ff2f.ffffffff.0 001d3c.ffffffff.0 000555.ffffffff.0 00041e.ffffffff.0 00039f.ffffffff.0 00ff2f.ffffffff.0 001d3c.ffffffff.0 000555.ffffffff.0 00041e.ffffffff.0 00039f.ffffffff.0
Width: 670
GlyphClass: 1
Flags: HW
LayerCount: 2
Fore
SplineSet
297 934.212890625 m 1,0,1
 287 924.821289062 287 924.821289062 277 911.430664062 c 0,2,3
 236 861.02734375 236 861.02734375 198 772.141601562 c 0,4,5
 129 609.244140625 129 609.244140625 104 473.266601562 c 0,6,7
 72 304.415039062 72 304.415039062 127 272.565429688 c 0,8,9
 185 237.233398438 185 237.233398438 246 266.418945312 c 0,10,11
 295 290.534179688 295 290.534179688 349 360.845703125 c 0,12,13
 401 429.478515625 401 429.478515625 447.5 529.997070312 c 128,-1,14
 494 630.515625 494 630.515625 525 739.52734375 c 0,15,16
 556 846.5390625 556 846.5390625 562.5 929.993164062 c 128,-1,17
 569 1013.44726562 569 1013.44726562 548 1048.82617188 c 0,18,19
 528 1084.04492188 528 1084.04492188 483 1065.28515625 c 0,20,21
 431 1043.65234375 431 1043.65234375 342 941.971679688 c 0,22,23
 328 926.224609375 328 926.224609375 315.5 922.736328125 c 128,-1,24
 303 919.247070312 303 919.247070312 298 929.051757812 c 0,25,26
 297 931.212890625 297 931.212890625 297 934.212890625 c 1,0,1
418 1091.74316406 m 1,27,28
 468 1134.69824219 468 1134.69824219 511 1154.78027344 c 0,29,30
 582 1184.35644531 582 1184.35644531 615 1132.04589844 c 0,31,32
 640 1083.0234375 640 1083.0234375 633.5 988.569335938 c 128,-1,33
 627 894.115234375 627 894.115234375 592 770.747070312 c 0,34,35
 556 644.5390625 556 644.5390625 500.5 526.469726562 c 128,-1,36
 445 408.399414062 445 408.399414062 380 322.857421875 c 0,37,38
 301 218.569335938 301 218.569335938 221 178.44140625 c 0,39,40
 139 139.634765625 139 139.634765625 67 180.219726562 c 0,41,42
 28 204.495117188 28 204.495117188 21 275.62109375 c 0,43,44
 17 337.264648438 17 337.264648438 33 428.690429688 c 0,45,46
 63 581.86328125 63 581.86328125 138 760.795898438 c 0,47,48
 188 878.750976562 188 878.750976562 251 955.614257812 c 0,49,50
 280 990.948242188 280 990.948242188 316 1025.15527344 c 0,51,52
 335 1043.09863281 335 1043.09863281 386 1085.89257812 c 0,53,54
 411 1106.87011719 411 1106.87011719 418 1091.74316406 c 1,27,28
EndSplineSet
EndChar

StartChar: P
Encoding: 80 80 51
AltUni2: 00ff30.ffffffff.0 002119.ffffffff.0 001d3e.ffffffff.0 0013e2.ffffffff.0 000420.ffffffff.0 0003a1.ffffffff.0 00ff30.ffffffff.0 002119.ffffffff.0 001d3e.ffffffff.0 0013e2.ffffffff.0 000420.ffffffff.0 0003a1.ffffffff.0
Width: 543
GlyphClass: 1
Flags: HW
LayerCount: 2
Fore
SplineSet
98 360.231445312 m 1,0,1
 100 253.91015625 100 253.91015625 106 197.944335938 c 0,2,3
 109 155.461914062 109 155.461914062 116 132.3359375 c 0,4,5
 120 120.692382812 120 120.692382812 122 116.370117188 c 2,6,-1
 125 113.887695312 l 2,7,8
 136 112.1171875 136 112.1171875 136 97.6171875 c 128,-1,9
 136 83.1171875 136 83.1171875 125 62.8876953125 c 0,10,11
 115 43.49609375 115 43.49609375 100 30.91015625 c 128,-1,12
 85 18.3232421875 85 18.3232421875 74 20.09375 c 0,13,14
 56 22.9892578125 56 22.9892578125 46 57.5986328125 c 0,15,16
 40 77.564453125 40 77.564453125 34 130.529296875 c 0,17,18
 27 208.655273438 27 208.655273438 27 346.655273438 c 0,19,20
 27 542.655273438 27 542.655273438 39 726.724609375 c 0,21,22
 40 741.564453125 40 741.564453125 51.5 761.213867188 c 128,-1,23
 63 780.86328125 63 780.86328125 77 791.610351562 c 0,24,25
 86 798.162109375 86 798.162109375 95 799.71484375 c 1,26,27
 218 952.923828125 218 952.923828125 341 1043.1328125 c 0,28,29
 397 1083.12207031 397 1083.12207031 440 1098.20410156 c 0,30,31
 501 1118.38867188 501 1118.38867188 517 1074.81445312 c 0,32,33
 548 991.826171875 548 991.826171875 464 844.341796875 c 0,34,35
 437 796.686523438 437 796.686523438 384 722.213867188 c 0,36,37
 345 670.489257812 345 670.489257812 293 606.856445312 c 0,38,39
 278 587.26953125 278 587.26953125 218 514.923828125 c 0,40,41
 151 432.704101562 151 432.704101562 125 390.887695312 c 0,42,43
 114 371.657226562 114 371.657226562 98 360.231445312 c 1,0,1
107 737.783203125 m 1,44,45
 100 609.91015625 100 609.91015625 98 436.231445312 c 1,46,47
 130 483.083007812 130 483.083007812 192 559.107421875 c 0,48,49
 198 568.141601562 198 568.141601562 230 606.993164062 c 128,-1,50
 262 645.84375 262 645.84375 268 652.87890625 c 0,51,52
 374 783.823242188 374 783.823242188 416 856.065429688 c 0,53,54
 468 946.698242188 468 946.698242188 448 997.916992188 c 0,55,56
 441 1018.04296875 441 1018.04296875 407 1007.51367188 c 0,57,58
 379 998.018554688 379 998.018554688 334 965.258789062 c 0,59,60
 221 882.44140625 221 882.44140625 107 737.783203125 c 1,44,45
EndSplineSet
EndChar

StartChar: Q
Encoding: 81 81 52
AltUni2: 00ff31.ffffffff.0 00a7f4.ffffffff.0 00211a.ffffffff.0 00ff31.ffffffff.0 00a7f4.ffffffff.0 00211a.ffffffff.0
Width: 634
GlyphClass: 1
Flags: HW
LayerCount: 2
Fore
SplineSet
488 468.48046875 m 1,0,-1
 501 463.388671875 l 2,1,2
 506 460.583984375 506 460.583984375 507 460.423828125 c 0,3,4
 539 447.274414062 539 447.274414062 561 430.735351562 c 0,5,6
 568 425.608398438 568 425.608398438 565 409.590820312 c 128,-1,7
 562 393.57421875 562 393.57421875 550 375.504882812 c 0,8,9
 538 358.435546875 538 358.435546875 524 349.688476562 c 128,-1,10
 510 340.940429688 510 340.940429688 503 347.067382812 c 0,11,12
 486 359.802734375 486 359.802734375 454 372.951171875 c 0,13,14
 452 374.2734375 452 374.2734375 447 376.077148438 c 0,15,16
 439 380.364257812 439 380.364257812 436 381.84765625 c 1,17,18
 376 295.500976562 376 295.500976562 306 236.764648438 c 0,19,20
 163 116.7734375 163 116.7734375 82 183.806640625 c 0,21,22
 14 243.747070312 14 243.747070312 20 406.782226562 c 0,23,24
 26 574.81640625 26 574.81640625 108 743.623046875 c 0,25,26
 204 945.176757812 204 945.176757812 360 1051.07617188 c 1,27,28
 481 1168.60644531 481 1168.60644531 550 1119.50488281 c 0,29,30
 617 1074.72460938 617 1074.72460938 612 907.529296875 c 0,31,32
 607 742.333007812 607 742.333007812 534 565.079101562 c 0,33,34
 516 518.975585938 516 518.975585938 488 468.48046875 c 1,0,-1
418 536.743164062 m 0,35,36
 422 509.099609375 422 509.099609375 446 491.23828125 c 1,37,-1
 448 490.916992188 l 1,38,39
 468 532.698242188 468 532.698242188 477 554.250976562 c 0,40,41
 539 703.274414062 539 703.274414062 544 852.469726562 c 0,42,43
 549 996.666015625 549 996.666015625 493 1033.67578125 c 0,44,45
 440 1072.20410156 440 1072.20410156 346 968.328125 c 0,46,47
 328 947.224609375 328 947.224609375 315 949.31640625 c 1,48,49
 222 872.280273438 222 872.280273438 162 746.934570312 c 0,50,51
 94 604.875 94 604.875 88 460.840820312 c 0,52,53
 83 318.645507812 83 318.645507812 141 268.313476562 c 0,54,55
 203 219.336914062 203 219.336914062 306 305.764648438 c 0,56,57
 355 346.879882812 355 346.879882812 395 403.444335938 c 1,58,-1
 388 406.5703125 l 1,59,60
 358 431.397460938 358 431.397460938 351 468.524414062 c 0,61,62
 348 479.006835938 348 479.006835938 355.5 497.299804688 c 128,-1,63
 363 515.592773438 363 515.592773438 378 530.1796875 c 0,64,65
 392 544.926757812 392 544.926757812 403.5 546.577148438 c 128,-1,66
 415 548.2265625 415 548.2265625 418 536.743164062 c 0,35,36
EndSplineSet
EndChar

StartChar: R
Encoding: 82 82 53
AltUni2: 00ff32.ffffffff.0 00211d.ffffffff.0 00211c.ffffffff.0 00211b.ffffffff.0 001d3f.ffffffff.0 0013a1.ffffffff.0 00ff32.ffffffff.0 00211d.ffffffff.0 00211c.ffffffff.0 00211b.ffffffff.0 001d3f.ffffffff.0 0013a1.ffffffff.0
Width: 517
GlyphClass: 1
Flags: HW
LayerCount: 2
Fore
SplineSet
122 460.370117188 m 1,0,1
 135 477.278320312 135 477.278320312 170 514.646484375 c 0,2,3
 251 598.614257812 251 598.614257812 314 701.477539062 c 0,4,5
 377 805.340820312 377 805.340820312 385 871.053710938 c 0,6,7
 394 934.60546875 394 934.60546875 371 949.305664062 c 0,8,9
 351 962.524414062 351 962.524414062 309 938.282226562 c 0,10,11
 231 894.83203125 231 894.83203125 136 774.1171875 c 1,12,13
 125 617.887695312 125 617.887695312 122 460.370117188 c 1,0,1
76 766.771484375 m 0,14,15
 135 849.278320312 135 849.278320312 202 915.998046875 c 128,-1,16
 269 982.717773438 269 982.717773438 326 1015.546875 c 0,17,18
 394 1054.60546875 394 1054.60546875 427.5 1029.21484375 c 128,-1,19
 461 1003.82519531 461 1003.82519531 450 916.594726562 c 0,20,21
 438 822.525390625 438 822.525390625 355 685.879882812 c 0,22,23
 305 602.92578125 305 602.92578125 237 521.866210938 c 1,24,25
 248 524.096679688 248 524.096679688 263 524.68359375 c 0,26,27
 302 526.408203125 302 526.408203125 347 515.16796875 c 0,28,29
 363 510.592773438 363 510.592773438 400 496.639648438 c 0,30,31
 403 494.157226562 403 494.157226562 410 492.03125 c 128,-1,32
 417 489.904296875 417 489.904296875 421 488.260742188 c 0,33,34
 422 488.099609375 422 488.099609375 426.5 486.375976562 c 128,-1,35
 431 484.65234375 431 484.65234375 434 483.668945312 c 128,-1,36
 437 482.686523438 437 482.686523438 437 481.686523438 c 0,37,38
 442 479.881835938 442 479.881835938 470 454.376953125 c 1,39,-1
 471 454.215820312 l 2,40,41
 472 454.0546875 472 454.0546875 472 453.0546875 c 0,42,43
 491 433.998046875 491 433.998046875 495 429.354492188 c 0,44,45
 499 429.7109375 499 429.7109375 503 425.067382812 c 0,46,47
 504 423.90625 504 423.90625 506 417.583984375 c 0,48,49
 506 416.583984375 506 416.583984375 506.5 416.00390625 c 128,-1,50
 507 415.423828125 507 415.423828125 507 414.423828125 c 0,51,52
 507 407.423828125 507 407.423828125 506 402.583984375 c 0,53,54
 502 384.227539062 502 384.227539062 487.5 366.061523438 c 128,-1,55
 473 347.89453125 473 347.89453125 460 342.985351562 c 0,56,57
 454 341.951171875 454 341.951171875 453 342.112304688 c 2,58,-1
 450 342.594726562 l 1,59,-1
 447 343.077148438 l 2,60,61
 446 343.23828125 446 343.23828125 445 344.399414062 c 128,-1,62
 444 345.560546875 444 345.560546875 442 346.881835938 c 128,-1,63
 440 348.204101562 440 348.204101562 439 350.364257812 c 2,64,-1
 415 374.2265625 l 1,65,-1
 413 374.547851562 l 1,66,67
 391 397.087890625 391 397.087890625 386 397.892578125 c 2,68,-1
 371 405.305664062 l 2,69,70
 352 412.36328125 352 412.36328125 350 413.684570312 c 0,71,72
 324 423.868164062 324 423.868164062 299 430.890625 c 0,73,74
 256 440.809570312 256 440.809570312 222 439.280273438 c 0,75,76
 165 437.451171875 165 437.451171875 138 406.795898438 c 0,77,78
 128 396.404296875 128 396.404296875 121 393.53125 c 1,79,80
 121 183.53125 121 183.53125 145 149.669921875 c 0,81,82
 150 141.865234375 150 141.865234375 145.5 125.088867188 c 128,-1,83
 141 108.313476562 141 108.313476562 128 92.404296875 c 0,84,85
 116 77.3359375 116 77.3359375 103.5 71.3466796875 c 128,-1,86
 91 65.3583984375 91 65.3583984375 85 72.3232421875 c 0,87,88
 53 119.47265625 53 119.47265625 56 383.989257812 c 0,89,90
 59 568.506835938 59 568.506835938 70 708.737304688 c 1,91,92
 66 707.380859375 66 707.380859375 63 711.86328125 c 0,93,94
 56 716.989257812 56 716.989257812 60 733.345703125 c 128,-1,95
 64 749.702148438 64 749.702148438 76 766.771484375 c 0,14,15
EndSplineSet
EndChar

StartChar: S
Encoding: 83 83 54
AltUni2: 00ff33.ffffffff.0 0013da.ffffffff.0 00054f.ffffffff.0 000405.ffffffff.0 00ff33.ffffffff.0 0013da.ffffffff.0 00054f.ffffffff.0 000405.ffffffff.0
Width: 454
GlyphClass: 1
Flags: HW
LayerCount: 2
Fore
SplineSet
363 981.592773438 m 0,0,1
 326 967.546875 326 967.546875 304 944.0859375 c 0,2,3
 288 926.661132812 288 926.661132812 237 853.866210938 c 0,4,5
 152 727.54296875 152 727.54296875 124 665.048828125 c 0,6,7
 112 640.979492188 112 640.979492188 111 629.139648438 c 0,8,9
 109 619.461914062 109 619.461914062 112 616.979492188 c 0,10,11
 121 606.53125 121 606.53125 156 614.899414062 c 0,12,13
 194 625.78515625 194 625.78515625 246 648.418945312 c 1,14,-1
 247 648.2578125 l 1,15,16
 277 660.430664062 277 660.430664062 321 676.350585938 c 0,17,18
 362 689.75390625 362 689.75390625 385 688.053710938 c 0,19,20
 427 685.295898438 427 685.295898438 432 631.491210938 c 0,21,22
 439 589.364257812 439 589.364257812 419 515.583007812 c 0,23,24
 402 451.318359375 402 451.318359375 371.5 381.725585938 c 128,-1,25
 341 312.1328125 341 312.1328125 308 263.442382812 c 0,26,27
 260 191.166015625 260 191.166015625 172 114.325195312 c 0,28,29
 131 77.921875 131 77.921875 98 51.2314453125 c 2,30,-1
 71 28.576171875 l 2,31,32
 58 17.66796875 58 17.66796875 48 19.2763671875 c 128,-1,33
 38 20.8857421875 38 20.8857421875 38 35.8857421875 c 0,34,35
 38 49.8857421875 38 49.8857421875 48 68.2763671875 c 128,-1,36
 58 86.66796875 58 86.66796875 71 97.576171875 c 2,37,-1
 100 121.91015625 l 1,38,-1
 169 179.807617188 l 1,39,40
 241 245.22265625 241 245.22265625 271 289.396484375 c 0,41,42
 294 322.6953125 294 322.6953125 317.5 377.9140625 c 128,-1,43
 341 433.1328125 341 433.1328125 355 483.879882812 c 0,44,45
 368 538.7890625 368 538.7890625 365 567.271484375 c 0,46,47
 362 597.75390625 362 597.75390625 340 600.293945312 c 0,48,49
 321 599.350585938 321 599.350585938 291 590.177734375 c 0,50,51
 269 583.717773438 269 583.717773438 220 562.6015625 c 0,52,53
 219 562.762695312 219 562.762695312 218 561.923828125 c 0,54,55
 152 534.54296875 152 534.54296875 122 527.370117188 c 0,56,57
 66 513.380859375 66 513.380859375 50 536.955078125 c 0,58,59
 27 568.655273438 27 568.655273438 69 659.897460938 c 0,60,61
 104 737.266601562 104 737.266601562 201 881.659179688 c 0,62,63
 232 926.670898438 232 926.670898438 247 946.2578125 c 0,64,65
 270 978.556640625 270 978.556640625 291 1000.17773438 c 0,66,67
 334 1044.25878906 334 1044.25878906 390 1066.24902344 c 0,68,69
 403 1072.15722656 403 1072.15722656 408.5 1063.27246094 c 128,-1,70
 414 1054.38769531 414 1054.38769531 407 1035.51367188 c 0,71,72
 402 1018.31835938 402 1018.31835938 389 1002.91015625 c 128,-1,73
 376 987.500976562 376 987.500976562 363 981.592773438 c 0,0,1
EndSplineSet
EndChar

StartChar: T
Encoding: 84 84 55
AltUni2: 00ff34.ffffffff.0 001d40.ffffffff.0 0013a2.ffffffff.0 000422.ffffffff.0 0003a4.ffffffff.0 00ff34.ffffffff.0 001d40.ffffffff.0 0013a2.ffffffff.0 000422.ffffffff.0 0003a4.ffffffff.0
Width: 608
GlyphClass: 1
Flags: HW
LayerCount: 2
Fore
SplineSet
218.96484375 224.623046875 m 6,0,1
 217.345703125 172.932617188 217.345703125 172.932617188 217.345703125 172.932617188 c 1,2,3
 208 153.533203125 208 153.533203125 195.478515625 140.625 c 0,4,5
 182 126.715820312 182 126.715820312 170.05078125 123.0859375 c 0,6,7
 154 118.221679688 154 118.221679688 154.2734375 129.547851562 c 0,8,9
 184 534.39453125 184 534.39453125 214.66796875 940.036132812 c 1,10,11
 137 859.95703125 137 859.95703125 55.55078125 766.5 c 0,12,13
 43 752.081054688 43 752.081054688 29.30078125 746.192382812 c 0,14,15
 17 741.264648438 17 741.264648438 12.7890625 748.961914062 c 0,16,17
 9 756.551757812 9 756.551757812 15.6787109375 775.731445312 c 0,18,19
 21 790.62109375 21 790.62109375 35.4658203125 807.116210938 c 0,20,21
 129 914.244140625 129 914.244140625 227.021484375 1015.7265625 c 0,22,23
 236 1025.02734375 236 1025.02734375 262.579101562 1052.1875 c 0,24,25
 289 1078.5 289 1078.5 312.993164062 1103.41796875 c 0,26,27
 338 1129.61523438 338 1129.61523438 365.35546875 1156.95507812 c 0,28,29
 394 1185.60546875 394 1185.60546875 410.745117188 1204.03222656 c 0,30,31
 428 1223.13476562 428 1223.13476562 444.266601562 1239.10839844 c 0,32,33
 453 1248.11230469 453 1248.11230469 459.03515625 1254.79980469 c 2,34,-1
 467.9140625 1264.03125 l 2,35,36
 470.091796875 1267.05273438 470.091796875 1267.05273438 470.815429688 1267.72363281 c 2,37,-1
 472.807617188 1269.56835938 l 1,38,-1
 477.702148438 1275.10839844 l 1,39,-1
 482.682617188 1279.72265625 l 2,40,41
 485.629882812 1283.34765625 485.629882812 1283.34765625 522.094726562 1321.26074219 c 2,42,-1
 530.973632812 1330.4921875 l 1,43,-1
 535.954101562 1335.10644531 l 2,44,45
 541 1339.953125 541 1339.953125 548.169921875 1343.4140625 c 0,46,47
 559 1350.05664062 559 1350.05664062 566.326171875 1346.18359375 c 0,48,49
 578 1341 578 1341 568.853515625 1319.41503906 c 0,50,51
 564 1307.25195312 564 1307.25195312 559.762695312 1300.953125 c 256,52,53
 556 1295.5390625 556 1295.5390625 554.956054688 1294.49121094 c 0,54,55
 553 1289.02246094 553 1289.02246094 545.342773438 1281.56933594 c 0,56,57
 527 1263.20507812 527 1263.20507812 525.505859375 1262.18554688 c 0,58,59
 513 1249.45800781 513 1249.45800781 497.9609375 1232.64648438 c 2,60,-1
 493.9765625 1228.95410156 l 1,61,-1
 488.086914062 1222.49414062 l 1,62,-1
 483.10546875 1217.87792969 l 2,63,64
 479 1212.92871094 479 1212.92871094 474.314453125 1207.72460938 c 0,65,66
 471 1204.21582031 471 1204.21582031 466.431640625 1199.41699219 c 0,67,68
 461 1193.82519531 461 1193.82519531 459.545898438 1192.03222656 c 0,69,70
 395 1123.44433594 395 1123.44433594 281.798828125 1009.265625 c 1,71,-1
 218.96484375 224.623046875 l 6,0,1
EndSplineSet
EndChar

StartChar: U
Encoding: 85 85 56
AltUni2: 00ff35.ffffffff.0 001d41.ffffffff.0 00ff35.ffffffff.0 001d41.ffffffff.0
Width: 533
GlyphClass: 1
Flags: HW
LayerCount: 2
Fore
SplineSet
510 1135.94042969 m 0,0,1
 505 1077.74511719 505 1077.74511719 491 954.998046875 c 0,2,3
 490 946.159179688 490 946.159179688 489 936.819335938 c 128,-1,4
 488 927.48046875 488 927.48046875 487 921.141601562 c 128,-1,5
 486 914.802734375 486 914.802734375 485 908.962890625 c 0,6,7
 467 743.859375 467 743.859375 462 638.6640625 c 0,8,9
 459 505.146484375 459 505.146484375 480 435.767578125 c 0,10,11
 484 425.124023438 484 425.124023438 476.5 405.831054688 c 128,-1,12
 469 386.538085938 469 386.538085938 455 371.790039062 c 128,-1,13
 441 357.04296875 441 357.04296875 429 354.473632812 c 128,-1,14
 417 351.904296875 417 351.904296875 414 363.387695312 c 0,15,16
 398 413.961914062 398 413.961914062 395 487.444335938 c 1,17,18
 382 449.536132812 382 449.536132812 359 396.236328125 c 0,19,20
 331 330.7421875 331 330.7421875 297 274.212890625 c 0,21,22
 246 191.418945312 246 191.418945312 196 153.463867188 c 0,23,24
 139 111.634765625 139 111.634765625 99 120.071289062 c 0,25,26
 67 130.219726562 67 130.219726562 50 177.955078125 c 0,27,28
 23 249.298828125 23 249.298828125 34 418.529296875 c 0,29,30
 42 543.2421875 42 543.2421875 66 688.380859375 c 0,31,32
 66 695.380859375 66 695.380859375 69 713.397460938 c 128,-1,33
 72 731.415039062 72 731.415039062 74 741.09375 c 2,34,-1
 81 782.966796875 l 2,35,36
 84 798.484375 84 798.484375 95 816.21484375 c 128,-1,37
 106 833.944335938 106 833.944335938 120.5 842.611328125 c 128,-1,38
 135 851.278320312 135 851.278320312 142.5 846.071289062 c 128,-1,39
 150 840.865234375 150 840.865234375 148 825.186523438 c 0,40,41
 143 794.991210938 143 794.991210938 142 786.15234375 c 0,42,43
 138 765.795898438 138 765.795898438 133 732.600585938 c 0,44,45
 110 592.30078125 110 592.30078125 102 471.587890625 c 0,46,47
 92 314.197265625 92 314.197265625 115 249.49609375 c 0,48,49
 127 215.565429688 127 215.565429688 149 209.025390625 c 0,50,51
 170 204.646484375 170 204.646484375 203 227.336914062 c 0,52,53
 225 243.797851562 225 243.797851562 251.5 287.033203125 c 128,-1,54
 278 330.26953125 278 330.26953125 302 386.408203125 c 0,55,56
 354 507.041015625 354 507.041015625 380 637.857421875 c 0,57,58
 392 692.926757812 392 692.926757812 398 752.961914062 c 0,59,60
 401 776.478515625 401 776.478515625 410 869.03125 c 0,61,62
 418 944.743164062 418 944.743164062 424 990.778320312 c 0,63,64
 433 1063.33007812 433 1063.33007812 445 1121.39941406 c 0,65,66
 447 1137.07714844 447 1137.07714844 459.5 1155.06640625 c 128,-1,67
 472 1173.0546875 472 1173.0546875 485 1180.96289062 c 128,-1,68
 498 1188.87207031 498 1188.87207031 506 1183.58398438 c 128,-1,69
 514 1178.296875 514 1178.296875 511 1161.78027344 c 0,70,71
 510 1158.94042969 510 1158.94042969 509 1154.6015625 c 128,-1,72
 508 1150.26269531 508 1150.26269531 508 1148.26269531 c 0,73,74
 510 1142.94042969 510 1142.94042969 510 1135.94042969 c 0,0,1
EndSplineSet
EndChar

StartChar: V
Encoding: 86 86 57
AltUni2: 00ff36.ffffffff.0 002c7d.ffffffff.0 002164.ffffffff.0 0013d9.ffffffff.0 00ff36.ffffffff.0 002c7d.ffffffff.0 002164.ffffffff.0 0013d9.ffffffff.0
Width: 429
GlyphClass: 1
Flags: HW
LayerCount: 2
Fore
SplineSet
382 1097.53613281 m 0,0,1
 436 977.84765625 436 977.84765625 380 674.857421875 c 0,2,3
 321 358.350585938 321 358.350585938 199 146.98046875 c 0,4,5
 186 123.072265625 186 123.072265625 165 102.451171875 c 0,6,7
 155 91.060546875 155 91.060546875 144 83.830078125 c 0,8,9
 125 69.8876953125 125 69.8876953125 115 72.49609375 c 0,10,11
 68 78.05859375 68 78.05859375 51 185.793945312 c 0,12,13
 40 260.564453125 40 260.564453125 40 404.564453125 c 0,14,15
 40 414.564453125 40 414.564453125 39 425.724609375 c 0,16,17
 39 525.724609375 39 525.724609375 36 585.208007812 c 0,18,19
 32 659.8515625 32 659.8515625 18 694.103515625 c 0,20,21
 14 704.747070312 14 704.747070312 21 722.62109375 c 128,-1,22
 28 740.495117188 28 740.495117188 41.5 755.822265625 c 128,-1,23
 55 771.150390625 55 771.150390625 67 775.219726562 c 128,-1,24
 79 779.2890625 79 779.2890625 83 768.645507812 c 0,25,26
 98 732.231445312 98 732.231445312 104 647.266601562 c 0,27,28
 108 584.623046875 108 584.623046875 108 484.623046875 c 0,29,30
 109 473.461914062 109 473.461914062 109 462.461914062 c 0,31,32
 109 325.461914062 109 325.461914062 118 251.013671875 c 0,33,34
 131 173.921875 131 173.921875 156 162.899414062 c 1,35,36
 205 251.015625 205 251.015625 247 375.7578125 c 128,-1,37
 289 500.5 289 500.5 313 633.638671875 c 0,38,39
 338 765.615234375 338 765.615234375 339 869.455078125 c 128,-1,40
 340 973.293945312 340 973.293945312 317 1020.99414062 c 0,41,42
 312 1029.79882812 312 1029.79882812 318 1047.33398438 c 128,-1,43
 324 1064.86816406 324 1064.86816406 337.5 1081.19628906 c 128,-1,44
 351 1097.52441406 351 1097.52441406 364 1102.43261719 c 128,-1,45
 377 1107.34082031 377 1107.34082031 382 1097.53613281 c 0,0,1
EndSplineSet
EndChar

StartChar: W
Encoding: 87 87 58
AltUni2: 00ff37.ffffffff.0 001d42.ffffffff.0 0013b3.ffffffff.0 00ff37.ffffffff.0 001d42.ffffffff.0 0013b3.ffffffff.0
Width: 732
GlyphClass: 1
Flags: HW
LayerCount: 2
Fore
SplineSet
136 771.1171875 m 0,0,1
 136 769.1171875 136 769.1171875 132 745.760742188 c 0,2,3
 131 739.921875 131 739.921875 129.5 730.163085938 c 128,-1,4
 128 720.404296875 128 720.404296875 128 716.404296875 c 0,5,6
 118 653.013671875 118 653.013671875 117 642.174804688 c 0,7,8
 100 518.91015625 100 518.91015625 94 427.875 c 0,9,10
 86 292.162109375 86 292.162109375 106 227.944335938 c 0,11,12
 129 163.244140625 129 163.244140625 178 192.359375 c 0,13,14
 208 210.533203125 208 210.533203125 232 248.670898438 c 0,15,16
 258 291.487304688 258 291.487304688 278 356.26953125 c 0,17,18
 316 478.155273438 316 478.155273438 330 644.903320312 c 0,19,20
 332 660.581054688 332 660.581054688 334 692.258789062 c 0,21,22
 334 696.258789062 334 696.258789062 333.5 704.83984375 c 128,-1,23
 333 713.419921875 333 713.419921875 333 718.419921875 c 0,24,25
 332 753.581054688 332 753.581054688 332 826.581054688 c 2,26,-1
 332 835.581054688 l 2,27,28
 332 890.581054688 332 890.581054688 337 906.776367188 c 0,29,30
 340 917.293945312 340 917.293945312 349 930.845703125 c 0,31,32
 369 960.627929688 369 960.627929688 387 960.731445312 c 0,33,34
 394 961.60546875 394 961.60546875 397 957.122070312 c 0,35,36
 399 954.80078125 399 954.80078125 399 953.80078125 c 0,37,38
 400 952.639648438 400 952.639648438 400 949.139648438 c 128,-1,39
 400 945.639648438 400 945.639648438 401 944.478515625 c 0,40,41
 402 942.318359375 402 942.318359375 402.5 933.237304688 c 128,-1,42
 403 924.157226562 403 924.157226562 403 919.157226562 c 0,43,44
 405 841.834960938 405 841.834960938 399 745.80078125 c 1,45,46
 400 687.639648438 400 687.639648438 405 639.834960938 c 0,47,48
 416 517.065429688 416 517.065429688 439 469.364257812 c 0,49,50
 451 442.43359375 451 442.43359375 467 439.859375 c 0,51,52
 476 436.411132812 476 436.411132812 487 447.641601562 c 0,53,54
 536 496.7578125 536 496.7578125 576 646.321289062 c 0,55,56
 614 784.20703125 614 784.20703125 631 962.471679688 c 0,57,58
 646 1110.05859375 646 1110.05859375 641 1212.86328125 c 0,59,60
 641 1224.86328125 641 1224.86328125 639 1237.18457031 c 2,61,-1
 639 1238.18457031 l 1,62,63
 626 1231.27636719 626 1231.27636719 620.5 1239.16113281 c 128,-1,64
 615 1247.04589844 615 1247.04589844 620 1264.2421875 c 0,65,66
 621 1268.08105469 621 1268.08105469 627 1285.11523438 c 0,67,68
 635 1303.828125 635 1303.828125 647 1318.89746094 c 0,69,70
 668 1344.51855469 668 1344.51855469 685 1341.78320312 c 0,71,72
 692 1340.65722656 692 1340.65722656 696 1334.01367188 c 0,73,74
 705 1317.56542969 705 1317.56542969 706 1270.40429688 c 0,75,76
 711 1162.59960938 711 1162.59960938 696 1010.01367188 c 0,77,78
 677 824.0703125 677 824.0703125 638 676.345703125 c 0,79,80
 614 590.20703125 614 590.20703125 584 523.034179688 c 0,81,82
 547 442.987304688 547 442.987304688 498 392.872070312 c 0,83,84
 454 348.951171875 454 348.951171875 419 354.583007812 c 0,85,86
 395 360.444335938 395 360.444335938 377 396.340820312 c 0,87,88
 369 416.627929688 369 416.627929688 358 454.397460938 c 1,89,90
 349 415.845703125 349 415.845703125 338 380.615234375 c 0,91,92
 310 294.12109375 310 294.12109375 272 231.235351562 c 0,93,94
 223 152.119140625 223 152.119140625 163 116.7734375 c 0,95,96
 114 87.6572265625 114 87.6572265625 84 103.484375 c 0,97,98
 56 116.989257812 56 116.989257812 43 160.081054688 c 0,99,100
 21 228.62109375 21 228.62109375 29 377.333984375 c 0,101,102
 35 471.368164062 35 471.368164062 52 597.6328125 c 2,103,-1
 64 673.702148438 l 2,104,105
 64 678.702148438 64 678.702148438 69 704.897460938 c 0,106,107
 69 714.897460938 69 714.897460938 73 730.25390625 c 0,108,109
 75 744.932617188 75 744.932617188 86 761.662109375 c 128,-1,110
 97 778.392578125 97 778.392578125 110 787.30078125 c 0,111,112
 124 797.048828125 124 797.048828125 131.5 791.841796875 c 128,-1,113
 139 786.634765625 139 786.634765625 136 771.1171875 c 0,0,1
EndSplineSet
EndChar

StartChar: X
Encoding: 88 88 59
AltUni2: 00ff38.ffffffff.0 002169.ffffffff.0 000425.ffffffff.0 0003a7.ffffffff.0 00ff38.ffffffff.0 002169.ffffffff.0 000425.ffffffff.0 0003a7.ffffffff.0
Width: 522
GlyphClass: 1
Flags: HW
LayerCount: 2
Fore
SplineSet
91 815.358398438 m 0,0,1
 108 792.623046875 108 792.623046875 150 725.865234375 c 0,2,3
 186 669.072265625 186 669.072265625 210 631.2109375 c 1,4,5
 273 777.07421875 273 777.07421875 332 903.581054688 c 256,6,7
 391 1030.08789062 391 1030.08789062 449 1150.75585938 c 0,8,9
 457 1170.46875 457 1170.46875 471.5 1183.63574219 c 128,-1,10
 486 1196.80273438 486 1196.80273438 497 1196.03222656 c 0,11,12
 508 1196.26269531 508 1196.26269531 509.5 1183.02148438 c 128,-1,13
 511 1169.78027344 511 1169.78027344 501 1149.38867188 c 0,14,15
 499 1144.7109375 499 1144.7109375 475.5 1095.4921875 c 128,-1,16
 452 1046.2734375 452 1046.2734375 423.5 985.358398438 c 128,-1,17
 395 924.444335938 395 924.444335938 385 903.053710938 c 0,18,19
 291 701.177734375 291 701.177734375 243 581.901367188 c 1,20,21
 294 514.6953125 294 514.6953125 335 477.098632812 c 0,22,23
 407 414.513671875 407 414.513671875 467 414.859375 c 0,24,25
 477 414.250976562 477 414.250976562 478.5 401.008789062 c 128,-1,26
 480 387.767578125 480 387.767578125 472 370.0546875 c 0,27,28
 464 351.341796875 464 351.341796875 450 337.594726562 c 128,-1,29
 436 323.84765625 436 323.84765625 425 323.6171875 c 0,30,31
 352 323.36328125 352 323.36328125 277 390.430664062 c 0,32,33
 238 426.706054688 238 426.706054688 200 474.8203125 c 1,34,35
 113 243.818359375 113 243.818359375 78 60.4501953125 c 0,36,37
 75 42.9326171875 75 42.9326171875 63 25.36328125 c 128,-1,38
 51 7.7939453125 51 7.7939453125 37.5 -0.5341796875 c 128,-1,39
 24 -8.861328125 24 -8.861328125 16.5 -2.1552734375 c 128,-1,40
 9 4.5517578125 9 4.5517578125 12 21.0693359375 c 0,41,42
 51 221.793945312 51 221.793945312 144 467.830078125 c 0,43,44
 151 486.704101562 151 486.704101562 165 522.451171875 c 1,45,46
 163 525.7734375 163 525.7734375 158.5 532.497070312 c 128,-1,47
 154 539.221679688 154 539.221679688 152 543.54296875 c 0,48,49
 120 588.692382812 120 588.692382812 87 644.001953125 c 0,50,51
 38 720.885742188 38 720.885742188 29 734.333984375 c 0,52,53
 23 743.298828125 23 743.298828125 28 760.995117188 c 128,-1,54
 33 778.690429688 33 778.690429688 46 795.598632812 c 0,55,56
 58 811.66796875 58 811.66796875 71.5 818.49609375 c 128,-1,57
 85 825.323242188 85 825.323242188 91 815.358398438 c 0,0,1
EndSplineSet
EndChar

StartChar: Y
Encoding: 89 89 60
AltUni2: 00ff39.ffffffff.0 0004ae.ffffffff.0 0003d2.ffffffff.0 0003a5.ffffffff.0 00ff39.ffffffff.0 0004ae.ffffffff.0 0003d2.ffffffff.0 0003a5.ffffffff.0
Width: 541
GlyphClass: 1
Flags: HW
LayerCount: 2
Fore
SplineSet
86 817.162109375 m 0,0,1
 97 814.392578125 97 814.392578125 126 778.7265625 c 0,2,3
 167 730.129882812 167 730.129882812 182 715.715820312 c 0,4,5
 229 667.154296875 229 667.154296875 267 655.040039062 c 0,6,7
 294 647.6953125 294 647.6953125 309 658.282226562 c 0,8,9
 314 662.477539062 314 662.477539062 316 666.155273438 c 0,10,11
 317 666.994140625 317 666.994140625 318 668.833984375 c 0,12,13
 327 700.385742188 327 700.385742188 385 894.053710938 c 0,14,15
 401 946.478515625 401 946.478515625 421 1010.26074219 c 0,16,17
 447 1096.07714844 447 1096.07714844 456 1121.62988281 c 0,18,19
 461 1139.82519531 461 1139.82519531 474 1155.73339844 c 128,-1,20
 487 1171.64160156 487 1171.64160156 500 1176.54980469 c 0,21,22
 513 1182.45800781 513 1182.45800781 518 1172.65332031 c 128,-1,23
 523 1162.84863281 523 1162.84863281 518 1144.65332031 c 2,24,-1
 483 1034.28515625 l 2,25,26
 469 988.538085938 469 988.538085938 448 919.916992188 c 0,27,28
 440 893.204101562 440 893.204101562 421.5 831.680664062 c 128,-1,29
 403 770.157226562 403 770.157226562 394 739.60546875 c 1,30,31
 397 727.122070312 397 727.122070312 390 709.249023438 c 0,32,33
 382 689.536132812 382 689.536132812 376 677.500976562 c 0,34,35
 373 665.984375 373 665.984375 359 617.236328125 c 128,-1,36
 345 568.489257812 345 568.489257812 339 544.455078125 c 0,37,38
 287 344.821289062 287 344.821289062 265 208.361328125 c 0,39,40
 261 191.004882812 261 191.004882812 249.5 172.85546875 c 128,-1,41
 238 154.706054688 238 154.706054688 224 145.958007812 c 256,42,43
 210 137.2109375 210 137.2109375 202 142.998046875 c 128,-1,44
 194 148.78515625 194 148.78515625 197 166.302734375 c 0,45,46
 222 310.280273438 222 310.280273438 275 514.751953125 c 0,47,48
 278 525.26953125 278 525.26953125 283.5 544.884765625 c 128,-1,49
 289 564.5 289 564.5 291 573.177734375 c 1,50,51
 256 552.809570312 256 552.809570312 216 563.245117188 c 0,52,53
 172 577.325195312 172 577.325195312 122 629.370117188 c 0,54,55
 121 631.53125 121 631.53125 65 695.541015625 c 0,56,57
 42 724.2421875 42 724.2421875 33.5 728.109375 c 128,-1,58
 25 731.977539062 25 731.977539062 26.5 748.736328125 c 128,-1,59
 28 765.495117188 28 765.495117188 38.5 783.305664062 c 128,-1,60
 49 801.116210938 49 801.116210938 63.5 811.283203125 c 128,-1,61
 78 821.450195312 78 821.450195312 86 817.162109375 c 0,0,1
EndSplineSet
EndChar

StartChar: Z
Encoding: 90 90 61
AltUni2: 00ff3a.ffffffff.0 002128.ffffffff.0 002124.ffffffff.0 0013c3.ffffffff.0 000396.ffffffff.0 00ff3a.ffffffff.0 002128.ffffffff.0 002124.ffffffff.0 0013c3.ffffffff.0 000396.ffffffff.0
Width: 527
GlyphClass: 1
Flags: HW
LayerCount: 2
Fore
SplineSet
78 811.450195312 m 0,0,1
 83 815.645507812 83 815.645507812 99 831.071289062 c 128,-1,2
 115 846.49609375 115 846.49609375 130 860.083007812 c 0,3,4
 147 877.34765625 147 877.34765625 167 896.629882812 c 128,-1,5
 187 915.912109375 187 915.912109375 190 918.428710938 c 0,6,7
 248 972.096679688 248 972.096679688 294 1005.6953125 c 0,8,9
 298 1009.05175781 298 1009.05175781 303.5 1013.16699219 c 128,-1,10
 309 1017.28222656 309 1017.28222656 312 1019.79882812 c 0,11,12
 370 1064.46679688 370 1064.46679688 409 1096.19140625 c 2,13,-1
 444 1125.56054688 l 1,14,-1
 461 1139.82519531 l 2,15,16
 479 1154.92871094 479 1154.92871094 489.5 1148.23925781 c 128,-1,17
 500 1141.54980469 500 1141.54980469 494 1118.515625 c 0,18,19
 486 1084.80273438 486 1084.80273438 450 999.594726562 c 0,20,21
 448 994.916992188 448 994.916992188 444.5 986.979492188 c 128,-1,22
 441 979.04296875 441 979.04296875 440 976.204101562 c 0,23,24
 437 969.686523438 437 969.686523438 426.5 945.375976562 c 128,-1,25
 416 921.065429688 416 921.065429688 405 895.334960938 c 128,-1,26
 394 869.60546875 394 869.60546875 393 866.766601562 c 0,27,28
 369 808.627929688 369 808.627929688 308 652.442382812 c 1,29,-1
 338 677.615234375 l 1,30,-1
 371 705.305664062 l 2,31,32
 386 717.892578125 386 717.892578125 396 715.783203125 c 128,-1,33
 406 713.674804688 406 713.674804688 406 699.674804688 c 128,-1,34
 406 685.674804688 406 685.674804688 396 666.283203125 c 128,-1,35
 386 646.892578125 386 646.892578125 371 634.305664062 c 2,36,-1
 340 608.293945312 l 1,37,-1
 277 555.430664062 l 1,38,-1
 266 546.200195312 l 1,39,40
 247 499.2578125 247 499.2578125 239 476.544921875 c 0,41,42
 178 321.359375 178 321.359375 146 236.508789062 c 0,43,44
 139 217.634765625 139 217.634765625 131.5 198.341796875 c 128,-1,45
 124 179.048828125 124 179.048828125 117.5 160.59375 c 128,-1,46
 111 142.139648438 111 142.139648438 109 136.461914062 c 1,47,48
 118 144.013671875 118 144.013671875 123 149.208984375 c 0,49,50
 138 161.795898438 138 161.795898438 155 179.060546875 c 0,51,52
 159 182.416992188 159 182.416992188 169 192.807617188 c 2,53,-1
 173 196.1640625 l 1,54,-1
 174 199.002929688 l 1,55,-1
 175 199.842773438 l 1,56,57
 252 278.453125 252 278.453125 321 326.350585938 c 0,58,59
 335 337.098632812 335 337.098632812 385 368.053710938 c 0,60,61
 392 373.926757812 392 373.926757812 455 409.790039062 c 0,62,63
 469 418.538085938 469 418.538085938 476.5 412.831054688 c 128,-1,64
 484 407.124023438 484 407.124023438 481 389.606445312 c 0,65,66
 479 373.928710938 479 373.928710938 467.5 355.779296875 c 128,-1,67
 456 337.629882812 456 337.629882812 441 329.04296875 c 0,68,69
 434 324.168945312 434 324.168945312 416 313.065429688 c 128,-1,70
 398 301.961914062 398 301.961914062 384 293.213867188 c 2,71,-1
 370 284.466796875 l 2,72,73
 352 274.36328125 352 274.36328125 311 246.959960938 c 0,74,75
 253 206.291992188 253 206.291992188 188 139.750976562 c 1,76,-1
 186 138.072265625 l 2,77,78
 184 135.39453125 184 135.39453125 181 132.876953125 c 0,79,80
 170 121.646484375 170 121.646484375 164 115.612304688 c 0,81,82
 145 95.669921875 145 95.669921875 125 78.8876953125 c 0,83,84
 89 46.6796875 89 46.6796875 70 39.7373046875 c 0,85,86
 48 30.2763671875 48 30.2763671875 38.5 41.3056640625 c 128,-1,87
 29 52.333984375 29 52.333984375 36 81.2080078125 c 0,88,89
 50 131.955078125 50 131.955078125 181 465.876953125 c 0,90,91
 182 468.715820312 182 468.715820312 184 474.39453125 c 128,-1,92
 186 480.072265625 186 480.072265625 187 482.912109375 c 1,93,94
 159 460.416992188 159 460.416992188 131 442.921875 c 0,95,96
 117 432.174804688 117 432.174804688 108 436.123046875 c 128,-1,97
 99 440.071289062 99 440.071289062 101 456.749023438 c 256,98,99
 103 473.427734375 103 473.427734375 114 491.657226562 c 128,-1,100
 125 509.887695312 125 509.887695312 140 520.473632812 c 0,101,102
 177 546.520507812 177 546.520507812 228 586.314453125 c 1,103,104
 286 734.982421875 286 734.982421875 335 856.098632812 c 0,105,106
 337 862.776367188 337 862.776367188 358.5 912.317382812 c 128,-1,107
 380 961.857421875 380 961.857421875 384 970.213867188 c 0,108,109
 386 973.892578125 386 973.892578125 389 981.41015625 c 128,-1,110
 392 988.926757812 392 988.926757812 394 992.60546875 c 0,111,112
 395 995.444335938 395 995.444335938 399.5 1006.22070312 c 128,-1,113
 404 1016.99609375 404 1016.99609375 406 1021.67480469 c 1,114,115
 367 989.94921875 367 989.94921875 306 942.764648438 c 0,116,117
 303 940.247070312 303 940.247070312 297 936.712890625 c 128,-1,118
 291 933.177734375 291 933.177734375 288 930.661132812 c 0,119,120
 246 898.418945312 246 898.418945312 197 853.302734375 c 0,121,122
 189 846.58984375 189 846.58984375 181.5 838.796875 c 128,-1,123
 174 831.002929688 174 831.002929688 161 818.594726562 c 128,-1,124
 148 806.186523438 148 806.186523438 138 796.795898438 c 0,125,126
 89 749.6796875 89 749.6796875 84 744.484375 c 0,127,128
 70 731.737304688 70 731.737304688 59.5 732.926757812 c 128,-1,129
 49 734.116210938 49 734.116210938 48 747.776367188 c 128,-1,130
 47 761.4375 47 761.4375 55 779.150390625 c 128,-1,131
 63 796.86328125 63 796.86328125 78 811.450195312 c 0,0,1
EndSplineSet
EndChar

StartChar: bracketleft
Encoding: 91 91 62
AltUni2: 00ff3b.ffffffff.0 00fe47.ffffffff.0 00ff3b.ffffffff.0 00fe47.ffffffff.0
Width: 260
GlyphClass: 1
Flags: HW
LayerCount: 2
Fore
SplineSet
88 796.840820312 m 0,0,1
 96 804.553710938 96 804.553710938 125 836.887695312 c 0,2,3
 131 843.921875 131 843.921875 141 854.313476562 c 0,4,5
 161 876.094726562 161 876.094726562 179 893.19921875 c 0,6,7
 203 916.336914062 203 916.336914062 223 926.119140625 c 0,8,9
 238 933.706054688 238 933.706054688 245 925.079101562 c 128,-1,10
 252 916.453125 252 916.453125 247 897.2578125 c 0,11,12
 242 877.0625 242 877.0625 227.5 857.895507812 c 128,-1,13
 213 838.728515625 213 838.728515625 198 831.141601562 c 1,14,-1
 197 830.302734375 l 2,15,16
 196 830.463867188 196 830.463867188 195 829.624023438 c 0,17,18
 190 825.428710938 190 825.428710938 186 821.072265625 c 0,19,20
 182 817.715820312 182 817.715820312 160 795.255859375 c 0,21,22
 158 793.578125 158 793.578125 153 787.881835938 c 128,-1,23
 148 782.186523438 148 782.186523438 144 777.830078125 c 0,24,25
 128 759.404296875 128 759.404296875 126 757.7265625 c 1,26,27
 126 748.7265625 126 748.7265625 124 681.048828125 c 0,28,29
 119 536.852539062 119 536.852539062 119 526.852539062 c 0,30,31
 117 469.174804688 117 469.174804688 115 367.49609375 c 0,32,33
 112 184.979492188 112 184.979492188 114 107.657226562 c 0,34,35
 116 51.3359375 116 51.3359375 120 20.6923828125 c 0,36,37
 121 17.53125 121 17.53125 122 12.3701171875 c 128,-1,38
 123 7.208984375 123 7.208984375 123.5 3.12890625 c 128,-1,39
 124 -0.951171875 124 -0.951171875 125 -3.1123046875 c 0,40,41
 127 -2.4345703125 127 -2.4345703125 132.5 1.6806640625 c 128,-1,42
 138 5.7958984375 138 5.7958984375 141 8.3134765625 c 2,43,-1
 156 20.8994140625 l 2,44,45
 172 34.3251953125 172 34.3251953125 188 45.7509765625 c 0,46,47
 204 56.1767578125 204 56.1767578125 213 50.228515625 c 128,-1,48
 222 44.2802734375 222 44.2802734375 219 25.7626953125 c 0,49,50
 215 6.40625 215 6.40625 202 -13.501953125 c 128,-1,51
 189 -33.41015625 189 -33.41015625 173 -43.8359375 c 0,52,53
 171 -44.513671875 171 -44.513671875 154 -58.7783203125 c 2,54,-1
 138 -72.2041015625 l 2,55,56
 115 -89.50390625 115 -89.50390625 103 -97.572265625 c 0,57,58
 92 -103.802734375 92 -103.802734375 83 -107.354492188 c 0,59,60
 71 -112.423828125 71 -112.423828125 61 -105.814453125 c 0,61,62
 41 -90.5966796875 41 -90.5966796875 36 39.2080078125 c 0,63,64
 34 119.529296875 34 119.529296875 37 304.046875 c 0,65,66
 39 405.724609375 39 405.724609375 41 463.403320312 c 0,67,68
 41 473.403320312 41 473.403320312 46 617.598632812 c 0,69,70
 48 666.276367188 48 666.276367188 48 710.276367188 c 0,71,72
 47 721.4375 47 721.4375 55 740.150390625 c 1,73,74
 62 772.024414062 62 772.024414062 88 796.840820312 c 0,0,1
EndSplineSet
Substitution2: "'rtla' Right to Left Alternates lookup 0 subtable" bracketright
EndChar

StartChar: backslash
Encoding: 92 92 63
AltUni2: 00ff3c.ffffffff.0 00fe68.ffffffff.0 002216.ffffffff.0 00ff3c.ffffffff.0 00fe68.ffffffff.0 002216.ffffffff.0
Width: 397
GlyphClass: 1
Flags: HW
LayerCount: 2
Fore
SplineSet
91 817.358398438 m 0,0,1
 92 773.197265625 92 773.197265625 109 733.461914062 c 0,2,3
 116 713.3359375 116 713.3359375 144 661.830078125 c 0,4,5
 168 616.96875 168 616.96875 174 606.002929688 c 0,6,7
 184 581.39453125 184 581.39453125 212 520.888671875 c 0,8,9
 214 516.567382812 214 516.567382812 215 513.90625 c 128,-1,10
 216 511.245117188 216 511.245117188 217 509.084960938 c 128,-1,11
 218 506.923828125 218 506.923828125 219 505.762695312 c 0,12,13
 257 419.6484375 257 419.6484375 298 336.051757812 c 0,14,15
 341 243.1328125 341 243.1328125 384 175.213867188 c 0,16,17
 390 165.249023438 390 165.249023438 383.5 144.794921875 c 128,-1,18
 377 124.340820312 377 124.340820312 362 105.75390625 c 128,-1,19
 347 87.16796875 347 87.16796875 332 81.0810546875 c 128,-1,20
 317 74.994140625 317 74.994140625 311 84.9599609375 c 0,21,22
 268 155.87890625 268 155.87890625 224 247.958007812 c 0,23,24
 179 340.19921875 179 340.19921875 145 419.669921875 c 0,25,26
 144 420.830078125 144 420.830078125 143 422.991210938 c 128,-1,27
 142 425.15234375 142 425.15234375 141 427.813476562 c 128,-1,28
 140 430.473632812 140 430.473632812 138 434.795898438 c 0,29,30
 110 495.30078125 110 495.30078125 100 518.91015625 c 0,31,32
 94 530.875 94 530.875 71 573.576171875 c 0,33,34
 44 622.919921875 44 622.919921875 34 649.529296875 c 0,35,36
 16 696.42578125 16 696.42578125 13 746.908203125 c 0,37,38
 12 763.069335938 12 763.069335938 23 783.798828125 c 128,-1,39
 34 804.529296875 34 804.529296875 50 818.955078125 c 128,-1,40
 66 833.380859375 66 833.380859375 77.5 832.530273438 c 128,-1,41
 89 831.6796875 89 831.6796875 91 817.358398438 c 0,0,1
EndSplineSet
EndChar

StartChar: bracketright
Encoding: 93 93 64
AltUni2: 00ff3d.ffffffff.0 00fe48.ffffffff.0 00ff3d.ffffffff.0 00fe48.ffffffff.0
Width: 229
GlyphClass: 1
Flags: HW
LayerCount: 2
Fore
SplineSet
126 760.7265625 m 0,0,1
 123 759.208984375 123 759.208984375 116.5 756.254882812 c 128,-1,2
 110 753.30078125 110 753.30078125 109 752.461914062 c 0,3,4
 93 744.036132812 93 744.036132812 89 739.6796875 c 0,5,6
 87 738.001953125 87 738.001953125 85 735.323242188 c 0,7,8
 70 716.737304688 70 716.737304688 55 710.150390625 c 128,-1,9
 40 703.564453125 40 703.564453125 34 713.529296875 c 0,10,11
 27 721.655273438 27 721.655273438 33.5 742.109375 c 128,-1,12
 40 762.564453125 40 762.564453125 54 781.311523438 c 0,13,14
 70 800.737304688 70 800.737304688 79 809.2890625 c 0,15,16
 100 828.91015625 100 828.91015625 133 846.600585938 c 0,17,18
 138 848.795898438 138 848.795898438 159 859.416992188 c 0,19,20
 177 867.520507812 177 867.520507812 190 876.428710938 c 0,21,22
 206 885.854492188 206 885.854492188 214 878.067382812 c 128,-1,23
 222 870.280273438 222 870.280273438 217 850.084960938 c 0,24,25
 214 837.567382812 214 837.567382812 204 820.176757812 c 1,26,27
 204 776.176757812 204 776.176757812 206 738.854492188 c 0,28,29
 206 717.854492188 206 717.854492188 208 655.533203125 c 128,-1,30
 210 593.2109375 210 593.2109375 211 593.049804688 c 0,31,32
 212 558.888671875 212 558.888671875 213.5 507.647460938 c 128,-1,33
 215 456.40625 215 456.40625 215 439.40625 c 0,34,35
 218 259.923828125 218 259.923828125 216 177.245117188 c 0,36,37
 212 40.888671875 212 40.888671875 191 -10.732421875 c 0,38,39
 183 -28.4443359375 183 -28.4443359375 168 -50.03125 c 0,40,41
 161 -59.9052734375 161 -59.9052734375 149 -72.974609375 c 0,42,43
 134 -88.560546875 134 -88.560546875 114 -105.342773438 c 0,44,45
 112 -107.020507812 112 -107.020507812 107 -111.716796875 c 128,-1,46
 102 -116.412109375 102 -116.412109375 98 -119.768554688 c 2,47,-1
 79 -135.7109375 l 1,48,49
 63 -153.13671875 63 -153.13671875 49.5 -155.46484375 c 128,-1,50
 36 -157.791992188 36 -157.791992188 33 -144.309570312 c 128,-1,51
 30 -130.827148438 30 -130.827148438 39 -109.775390625 c 128,-1,52
 48 -88.7236328125 48 -88.7236328125 64 -72.2978515625 c 0,53,54
 72 -63.5849609375 72 -63.5849609375 96 -43.4462890625 c 0,55,56
 100 -40.08984375 100 -40.08984375 105 -35.39453125 c 128,-1,57
 110 -30.69921875 110 -30.69921875 111 -29.8603515625 c 0,58,59
 123 -19.791015625 123 -19.791015625 127 -15.4345703125 c 1,60,-1
 127 -14.4345703125 l 2,61,62
 128 -10.595703125 128 -10.595703125 132 17.7607421875 c 0,63,64
 135 55.2783203125 135 55.2783203125 138 113.795898438 c 0,65,66
 140 195.473632812 140 195.473632812 137 371.95703125 c 0,67,68
 137 389.95703125 137 389.95703125 135.5 440.698242188 c 128,-1,69
 134 491.439453125 134 491.439453125 133 524.600585938 c 0,70,71
 133 534.600585938 133 534.600585938 128 670.404296875 c 0,72,73
 126 713.7265625 126 713.7265625 126 760.7265625 c 0,0,1
EndSplineSet
Substitution2: "'rtla' Right to Left Alternates lookup 0 subtable" bracketleft
EndChar

StartChar: asciicircum
Encoding: 94 94 65
AltUni2: 00ff3e.ffffffff.0 002303.ffffffff.0 000302.ffffffff.0 0002c6.ffffffff.0 0002c4.ffffffff.0 00ff3e.ffffffff.0 002303.ffffffff.0 000302.ffffffff.0 0002c6.ffffffff.0 0002c4.ffffffff.0
Width: 345
GlyphClass: 1
Flags: HW
LayerCount: 2
Fore
SplineSet
53 521.47265625 m 0,0,1
 54 523.311523438 54 523.311523438 56.5 529.409179688 c 128,-1,2
 59 535.506835938 59 535.506835938 62.5 543.943359375 c 128,-1,3
 66 552.380859375 66 552.380859375 68 556.05859375 c 0,4,5
 77 577.610351562 77 577.610351562 94 616.875 c 0,6,7
 97 623.392578125 97 623.392578125 101.5 633.168945312 c 128,-1,8
 106 642.944335938 106 642.944335938 107 645.783203125 c 0,9,10
 125 684.887695312 125 684.887695312 136 705.1171875 c 0,11,12
 143 717.991210938 143 717.991210938 153 732.381835938 c 0,13,14
 159 742.416992188 159 742.416992188 164 746.612304688 c 0,15,16
 173 758.1640625 173 758.1640625 181 762.876953125 c 0,17,18
 188 767.750976562 188 767.750976562 199 769.98046875 c 0,19,20
 209 770.372070312 209 770.372070312 211 770.049804688 c 0,21,22
 226 767.63671875 226 767.63671875 234 764.349609375 c 0,23,24
 258 756.487304688 258 756.487304688 270 743.556640625 c 0,25,26
 270 742.556640625 270 742.556640625 275 739.751953125 c 0,27,28
 276 738.591796875 276 738.591796875 279.5 736.528320312 c 128,-1,29
 283 734.46484375 283 734.46484375 286 733.982421875 c 0,30,31
 286 732.982421875 286 732.982421875 286 731.982421875 c 0,32,33
 288 732.661132812 288 732.661132812 290.5 730.758789062 c 128,-1,34
 293 728.856445312 293 728.856445312 295 728.534179688 c 0,35,36
 295 727.534179688 295 727.534179688 299 725.890625 c 2,37,-1
 300 725.729492188 l 2,38,39
 300 724.729492188 300 724.729492188 300 724.729492188 c 1,40,-1
 302 724.408203125 l 2,41,42
 303 723.247070312 303 723.247070312 304 723.0859375 c 0,43,44
 304 722.0859375 304 722.0859375 305 722.92578125 c 1,45,-1
 305 721.92578125 l 1,46,-1
 307 721.603515625 l 1,47,48
 307 721.603515625 307 721.603515625 307 719.603515625 c 1,49,50
 308 720.442382812 308 720.442382812 308 718.442382812 c 0,51,52
 309 718.282226562 309 718.282226562 310 715.12109375 c 2,53,-1
 310 706.12109375 l 2,54,55
 309 702.282226562 309 702.282226562 307 696.603515625 c 0,56,57
 306 692.764648438 306 692.764648438 305 690.92578125 c 0,58,59
 302 685.408203125 302 685.408203125 302 684.408203125 c 0,60,61
 297 676.212890625 297 676.212890625 296 675.373046875 c 0,62,63
 292 670.017578125 292 670.017578125 291 669.177734375 c 0,64,65
 284 661.3046875 284 661.3046875 281 658.787109375 c 0,66,67
 277 656.430664062 277 656.430664062 275 655.251953125 c 128,-1,68
 273 654.07421875 273 654.07421875 272 654.235351562 c 0,69,70
 267 652.040039062 267 652.040039062 266 653.200195312 c 0,71,72
 265 652.361328125 265 652.361328125 264 652.522460938 c 2,73,-1
 262 652.84375 l 1,74,-1
 262 653.84375 l 1,75,-1
 260 653.166015625 l 2,76,77
 259 653.327148438 259 653.327148438 258 654.487304688 c 0,78,79
 258 655.487304688 258 655.487304688 257 655.6484375 c 128,-1,80
 256 655.809570312 256 655.809570312 256 655.809570312 c 2,81,82
 255 656.970703125 255 656.970703125 255 657.970703125 c 0,83,84
 253 658.291992188 253 658.291992188 251 658.614257812 c 0,85,86
 248 661.096679688 248 661.096679688 241 663.22265625 c 0,87,88
 241 664.22265625 241 664.22265625 241 664.22265625 c 1,89,90
 224 675.958007812 224 675.958007812 222 678.280273438 c 0,91,92
 211 688.049804688 211 688.049804688 192 694.107421875 c 0,93,94
 179 698.19921875 179 698.19921875 175 698.842773438 c 1,95,96
 168 686.96875 168 686.96875 150 648.865234375 c 0,97,98
 140 626.473632812 140 626.473632812 139 622.634765625 c 0,99,100
 131 604.921875 131 604.921875 113 563.818359375 c 0,101,102
 112 560.979492188 112 560.979492188 109 553.461914062 c 128,-1,103
 106 545.944335938 106 545.944335938 102.5 538.0078125 c 128,-1,104
 99 530.071289062 99 530.071289062 99 529.071289062 c 0,105,106
 92 513.197265625 92 513.197265625 81.5 502.38671875 c 128,-1,107
 71 491.576171875 71 491.576171875 61 489.685546875 c 128,-1,108
 51 487.793945312 51 487.793945312 49 497.116210938 c 128,-1,109
 47 506.4375 47 506.4375 53 521.47265625 c 0,0,1
EndSplineSet
EndChar

StartChar: underscore
Encoding: 95 95 66
AltUni2: 00ff3f.ffffffff.0 00fe4f.ffffffff.0 00fe4e.ffffffff.0 00fe4d.ffffffff.0 00fe34.ffffffff.0 00fe33.ffffffff.0 00ff3f.ffffffff.0 00fe4f.ffffffff.0 00fe4e.ffffffff.0 00fe4d.ffffffff.0 00fe34.ffffffff.0 00fe33.ffffffff.0
Width: 574
GlyphClass: 1
Flags: HW
LayerCount: 2
Fore
SplineSet
75 -2.0673828125 m 0,0,1
 137 47.95703125 137 47.95703125 300 184.729492188 c 0,2,3
 452 313.2734375 452 313.2734375 526 373.366210938 c 0,4,5
 542 385.791992188 542 385.791992188 553 383.022460938 c 128,-1,6
 564 380.251953125 564 380.251953125 563 363.413085938 c 0,7,8
 563 347.413085938 563 347.413085938 551 326.34375 c 128,-1,9
 539 305.274414062 539 305.274414062 523 292.848632812 c 0,10,11
 451 234.43359375 451 234.43359375 301 107.569335938 c 0,12,13
 136 -30.8828125 136 -30.8828125 72 -82.5849609375 c 0,14,15
 55 -95.849609375 55 -95.849609375 44 -93.080078125 c 128,-1,16
 33 -90.3095703125 33 -90.3095703125 34 -73.470703125 c 128,-1,17
 35 -56.6318359375 35 -56.6318359375 47 -35.5625 c 128,-1,18
 59 -14.4931640625 59 -14.4931640625 75 -2.0673828125 c 0,0,1
EndSplineSet
EndChar

StartChar: grave
Encoding: 96 96 67
AltUni2: 00ff40.ffffffff.0 002035.ffffffff.0 002018.ffffffff.0 001fef.ffffffff.0 00060c.ffffffff.0 00ff40.ffffffff.0 002035.ffffffff.0 002018.ffffffff.0 001fef.ffffffff.0 00060c.ffffffff.0
Width: 261
GlyphClass: 1
Flags: HW
LayerCount: 2
Fore
SplineSet
104 804.266601562 m 2,0,-1
 115 791.49609375 l 2,1,2
 133 767.600585938 133 767.600585938 155.5 758.48046875 c 128,-1,3
 178 749.359375 178 749.359375 213 758.728515625 c 0,4,5
 227 762.475585938 227 762.475585938 231 750.33203125 c 128,-1,6
 235 738.188476562 235 738.188476562 227 717.475585938 c 128,-1,7
 219 696.762695312 219 696.762695312 203 679.336914062 c 128,-1,8
 187 661.912109375 187 661.912109375 174 659.002929688 c 0,9,10
 95 636.71484375 95 636.71484375 52 688.6328125 c 0,11,12
 37 707.046875 37 707.046875 31.5 713.431640625 c 128,-1,13
 26 719.81640625 26 719.81640625 31.5 739.431640625 c 128,-1,14
 37 759.046875 37 759.046875 51.5 778.213867188 c 128,-1,15
 66 797.380859375 66 797.380859375 81 804.966796875 c 128,-1,16
 96 812.553710938 96 812.553710938 104 804.266601562 c 2,0,-1
EndSplineSet
EndChar

StartChar: a
Encoding: 97 97 68
AltUni2: 00ff41.ffffffff.0 002090.ffffffff.0 001d43.ffffffff.0 000430.ffffffff.0 0000aa.ffffffff.0 00ff41.ffffffff.0 002090.ffffffff.0 001d43.ffffffff.0 000430.ffffffff.0 0000aa.ffffffff.0
Width: 421
GlyphClass: 1
Flags: HW
LayerCount: 2
Fore
SplineSet
319 611.672851562 m 1,0,-1
 320 613.51171875 l 2,1,2
 320 614.51171875 320 614.51171875 320.5 614.931640625 c 128,-1,3
 321 615.350585938 321 615.350585938 321 616.350585938 c 0,4,5
 329 636.063476562 329 636.063476562 344.5 650.569335938 c 128,-1,6
 360 665.076171875 360 665.076171875 371 663.305664062 c 0,7,8
 381 663.697265625 381 663.697265625 386 647.892578125 c 0,9,10
 389 636.41015625 389 636.41015625 388 621.5703125 c 0,11,12
 388 595.5703125 388 595.5703125 377 550.340820312 c 0,13,14
 361 477.915039062 361 477.915039062 332 403.581054688 c 1,15,16
 338 341.615234375 338 341.615234375 374 314.823242188 c 0,17,18
 375 313.662109375 375 313.662109375 376.5 311.920898438 c 128,-1,19
 378 310.1796875 378 310.1796875 379 310.018554688 c 0,20,21
 387 305.731445312 387 305.731445312 384 289.713867188 c 128,-1,22
 381 273.697265625 381 273.697265625 370 257.466796875 c 0,23,24
 359 240.236328125 359 240.236328125 345.5 231.909179688 c 128,-1,25
 332 223.581054688 332 223.581054688 325 228.70703125 c 0,26,27
 324 228.868164062 324 228.868164062 322 231.190429688 c 128,-1,28
 320 233.51171875 320 233.51171875 319 233.672851562 c 0,29,30
 293 254.856445312 293 254.856445312 280 285.948242188 c 1,31,32
 243 212.901367188 243 212.901367188 201 165.659179688 c 0,33,34
 121 75.53125 121 75.53125 59 114.506835938 c 0,35,36
 25 135.977539062 25 135.977539062 43 228.081054688 c 0,37,38
 61 311.185546875 61 311.185546875 106 400.944335938 c 0,39,40
 156 501.899414062 156 501.899414062 216 561.245117188 c 0,41,42
 274 617.913085938 274 617.913085938 319 611.672851562 c 1,0,-1
288 522.661132812 m 0,43,44
 260 539.166015625 260 539.166015625 225 504.797851562 c 0,45,46
 192 472.107421875 192 472.107421875 155 400.060546875 c 0,47,48
 119 327.852539062 119 327.852539062 107 267.783203125 c 128,-1,49
 95 207.71484375 95 207.71484375 113 195.818359375 c 0,50,51
 134 183.439453125 134 183.439453125 153 190.381835938 c 0,52,53
 167 195.129882812 167 195.129882812 183 213.555664062 c 0,54,55
 220 253.6015625 220 253.6015625 259 347.327148438 c 0,56,57
 260 349.166015625 260 349.166015625 262.5 355.263671875 c 128,-1,58
 265 361.361328125 265 361.361328125 267 365.040039062 c 2,59,-1
 267 374.040039062 l 2,60,61
 267 439.040039062 267 439.040039062 289 521.5 c 0,62,63
 288 521.661132812 288 521.661132812 288 522.661132812 c 0,43,44
EndSplineSet
EndChar

StartChar: b
Encoding: 98 98 69
AltUni2: 00ff42.ffffffff.0 001d47.ffffffff.0 00ff42.ffffffff.0 001d47.ffffffff.0
Width: 378
GlyphClass: 1
Flags: HW
LayerCount: 2
Fore
SplineSet
41 169.403320312 m 4,0,1
 40 173.564453125 40 173.564453125 40 183.564453125 c 4,2,3
 28 336.495117188 28 336.495117188 69 659.897460938 c 4,4,5
 71 675.576171875 71 675.576171875 82 692.306640625 c 132,-1,6
 93 709.036132812 93 709.036132812 106 717.944335938 c 4,7,8
 119 727.852539062 119 727.852539062 127 723.565429688 c 132,-1,9
 135 719.278320312 135 719.278320312 133 703.600585938 c 4,10,11
 110 538.30078125 110 538.30078125 104 420.266601562 c 5,12,13
 128 482.404296875 128 482.404296875 152 520.54296875 c 4,14,15
 177 559.520507812 177 559.520507812 203 577.336914062 c 132,-1,16
 229 595.154296875 229 595.154296875 250 588.775390625 c 4,17,18
 339 556.455078125 339 556.455078125 349 486.845703125 c 4,19,20
 357 433.55859375 357 433.55859375 341 375.1328125 c 4,21,22
 321 300.350585938 321 300.350585938 274 233.913085938 c 4,23,24
 255 206.970703125 255 206.970703125 164 123.612304688 c 4,25,26
 134 96.439453125 134 96.439453125 122 86.3701171875 c 4,27,28
 119 83.8525390625 119 83.8525390625 114.5 80.5771484375 c 132,-1,29
 110 77.30078125 110 77.30078125 108 75.623046875 c 4,30,31
 102 70.587890625 102 70.587890625 99 69.0712890625 c 4,32,33
 89 63.6796875 89 63.6796875 86 65.162109375 c 4,34,35
 79 68.2890625 79 68.2890625 78 68.4501953125 c 4,36,37
 76 67.771484375 76 67.771484375 74 66.09375 c 4,38,39
 70 64.7373046875 70 64.7373046875 64 65.7021484375 c 4,40,41
 62 66.0244140625 62 66.0244140625 55 73.150390625 c 4,42,43
 47 80.4375 47 80.4375 47 89.4375 c 4,44,45
 46 150.598632812 46 150.598632812 41 169.403320312 c 4,0,1
195 506.624023438 m 5,46,-1
 194 505.78515625 l 5,47,-1
 192 503.107421875 l 6,48,49
 191 501.267578125 191 501.267578125 190 499.428710938 c 4,50,51
 175 475.842773438 175 475.842773438 152 412.54296875 c 4,52,53
 139 377.634765625 139 377.634765625 119 297.852539062 c 4,54,55
 106 246.944335938 106 246.944335938 106 230.944335938 c 6,56,-1
 106 229.944335938 l 6,57,58
 106 223.944335938 106 223.944335938 113 208.818359375 c 4,59,60
 114 206.657226562 114 206.657226562 116 198.3359375 c 4,61,62
 123 175.208984375 123 175.208984375 123 152.208984375 c 5,63,64
 128 157.404296875 128 157.404296875 141 168.813476562 c 132,-1,65
 154 180.221679688 154 180.221679688 160 185.255859375 c 4,66,67
 169 193.807617188 169 193.807617188 184 207.89453125 c 132,-1,68
 199 221.98046875 199 221.98046875 201 223.659179688 c 4,69,70
 212 233.888671875 212 233.888671875 216 239.245117188 c 6,71,-1
 220 244.6015625 l 5,72,73
 294 351.6953125 294 351.6953125 285 424.143554688 c 4,74,75
 272 517.235351562 272 517.235351562 201 505.659179688 c 4,76,77
 195 504.624023438 195 504.624023438 195 505.624023438 c 6,78,-1
 195 506.624023438 l 5,46,-1
EndSplineSet
EndChar

StartChar: c
Encoding: 99 99 70
AltUni2: 00ff43.ffffffff.0 00217d.ffffffff.0 001d9c.ffffffff.0 000441.ffffffff.0 00ff43.ffffffff.0 00217d.ffffffff.0 001d9c.ffffffff.0 000441.ffffffff.0
Width: 379
GlyphClass: 1
Flags: HW
LayerCount: 2
Fore
SplineSet
300 580.729492188 m 4,0,1
 235 547.188476562 235 547.188476562 176 458.681640625 c 4,2,3
 120 373.692382812 120 373.692382812 104 295.266601562 c 4,4,5
 88 217.840820312 88 217.840820312 130 210.083007812 c 4,6,7
 183 199.555664062 183 199.555664062 316 311.155273438 c 4,8,9
 329 322.063476562 329 322.063476562 338.5 320.53515625 c 132,-1,10
 348 319.006835938 348 319.006835938 348 305.006835938 c 4,11,12
 348 292.006835938 348 292.006835938 339 274.955078125 c 132,-1,13
 330 257.903320312 330 257.903320312 316 246.155273438 c 4,14,15
 156 111.899414062 156 111.899414062 84 126.484375 c 4,16,17
 17 137.264648438 17 137.264648438 41 257.403320312 c 4,18,19
 62 364.024414062 62 364.024414062 140 482.473632812 c 4,20,21
 227 613.475585938 227 613.475585938 321 659.350585938 c 4,22,23
 334 665.258789062 334 665.258789062 339.5 658.374023438 c 132,-1,24
 345 651.489257812 345 651.489257812 341 635.1328125 c 4,25,26
 336 617.9375 336 617.9375 324.5 602.788085938 c 132,-1,27
 313 587.638671875 313 587.638671875 300 580.729492188 c 4,0,1
EndSplineSet
EndChar

StartChar: d
Encoding: 100 100 71
AltUni2: 00ff44.ffffffff.0 00217e.ffffffff.0 002146.ffffffff.0 001d48.ffffffff.0 00ff44.ffffffff.0 00217e.ffffffff.0 002146.ffffffff.0 001d48.ffffffff.0
Width: 442
GlyphClass: 1
Flags: HW
LayerCount: 2
Fore
SplineSet
420 901.421875 m 0,0,1
 389 730.41015625 389 730.41015625 369 615.627929688 c 0,2,3
 367 606.94921875 367 606.94921875 333 404.419921875 c 1,4,5
 337 358.776367188 337 358.776367188 375 315.662109375 c 0,6,7
 376 314.500976562 376 314.500976562 377.5 312.759765625 c 128,-1,8
 379 311.018554688 379 311.018554688 380 310.857421875 c 0,9,10
 388 306.5703125 388 306.5703125 385 290.553710938 c 128,-1,11
 382 274.536132812 382 274.536132812 371 258.305664062 c 0,12,13
 360 241.076171875 360 241.076171875 346 232.328125 c 0,14,15
 338 227.615234375 338 227.615234375 326 229.546875 c 0,16,17
 325 229.70703125 325 229.70703125 323 232.029296875 c 128,-1,18
 321 234.350585938 321 234.350585938 320 234.51171875 c 0,19,20
 294 255.6953125 294 255.6953125 281 286.787109375 c 1,21,22
 244 213.740234375 244 213.740234375 202 166.498046875 c 0,23,24
 122 76.3701171875 122 76.3701171875 60 115.345703125 c 0,25,26
 25 136.977539062 25 136.977539062 44 228.919921875 c 0,27,28
 60 308.345703125 60 308.345703125 107 401.783203125 c 0,29,30
 157 502.73828125 157 502.73828125 217 562.084960938 c 0,31,32
 275 618.751953125 275 618.751953125 320 612.51171875 c 1,33,-1
 321 614.350585938 l 2,34,35
 321 615.350585938 321 615.350585938 321.5 615.770507812 c 128,-1,36
 322 616.190429688 322 616.190429688 322 617.190429688 c 0,37,38
 371 931.305664062 371 931.305664062 373 934.984375 c 0,39,40
 397 996.122070312 397 996.122070312 427 988.295898438 c 0,41,42
 433 987.330078125 433 987.330078125 420 901.421875 c 0,0,1
289 523.5 m 0,43,44
 261 540.004882812 261 540.004882812 226 505.63671875 c 0,45,46
 193 472.946289062 193 472.946289062 156 400.899414062 c 0,47,48
 120 328.692382812 120 328.692382812 108 268.623046875 c 128,-1,49
 96 208.553710938 96 208.553710938 114 196.657226562 c 0,50,51
 135 184.278320312 135 184.278320312 154 191.221679688 c 0,52,53
 168 195.96875 168 195.96875 184 214.39453125 c 0,54,55
 221 254.44140625 221 254.44140625 260 348.166015625 c 0,56,57
 261 350.004882812 261 350.004882812 263.5 356.102539062 c 128,-1,58
 266 362.200195312 266 362.200195312 268 365.87890625 c 2,59,-1
 268 374.87890625 l 2,60,61
 268 439.87890625 268 439.87890625 290 522.338867188 c 0,62,63
 289 522.5 289 522.5 289 523.5 c 0,43,44
EndSplineSet
EndChar

StartChar: e
Encoding: 101 101 72
AltUni2: 00ff45.ffffffff.0 002147.ffffffff.0 00212f.ffffffff.0 002091.ffffffff.0 001d49.ffffffff.0 000435.ffffffff.0 00ff45.ffffffff.0 002147.ffffffff.0 00212f.ffffffff.0 002091.ffffffff.0 001d49.ffffffff.0 000435.ffffffff.0
Width: 343
GlyphClass: 1
Flags: HW
LayerCount: 2
Fore
SplineSet
105 252.10546875 m 1,0,1
 122 210.370117188 122 210.370117188 162 211.934570312 c 0,2,3
 205 215.015625 205 215.015625 258 277.487304688 c 0,4,5
 271 293.396484375 271 293.396484375 283 297.46484375 c 128,-1,6
 295 301.534179688 295 301.534179688 299 291.890625 c 0,7,8
 304 283.0859375 304 283.0859375 298 266.051757812 c 128,-1,9
 292 249.017578125 292 249.017578125 279 234.108398438 c 0,10,11
 194 134.78515625 194 134.78515625 123 128.208984375 c 0,12,13
 63 123.86328125 63 123.86328125 40 188.564453125 c 0,14,15
 17 252.264648438 17 252.264648438 43 347.081054688 c 0,16,17
 75 459.932617188 75 459.932617188 159 557.416992188 c 0,18,19
 235 646.188476562 235 646.188476562 274 631.913085938 c 0,20,21
 308 620.442382812 308 620.442382812 293 544.856445312 c 0,22,23
 279 475.108398438 279 475.108398438 230 393.993164062 c 0,24,25
 175 304.842773438 175 304.842773438 105 252.10546875 c 1,0,1
104 316.266601562 m 0,26,27
 154 352.221679688 154 352.221679688 189 410.58984375 c 0,28,29
 221 461.44140625 221 461.44140625 229 506.154296875 c 0,30,31
 237 544.866210938 237 544.866210938 225 548.797851562 c 0,32,33
 219 549.762695312 219 549.762695312 212 544.888671875 c 0,34,35
 198 535.141601562 198 535.141601562 179 512.19921875 c 0,36,37
 124 448.048828125 124 448.048828125 104 376.266601562 c 0,38,39
 94 341.875 94 341.875 94 307.875 c 1,40,41
 100 313.91015625 100 313.91015625 104 316.266601562 c 0,26,27
EndSplineSet
EndChar

StartChar: f
Encoding: 102 102 73
AltUni2: 00ff46.ffffffff.0 001da0.ffffffff.0 000584.ffffffff.0 00ff46.ffffffff.0 001da0.ffffffff.0 000584.ffffffff.0
Width: 287
GlyphClass: 1
Flags: HW
LayerCount: 2
Fore
SplineSet
85 372.323242188 m 1,0,1
 87 552.001953125 87 552.001953125 138 697.795898438 c 0,2,3
 146 721.508789062 146 721.508789062 156 740.899414062 c 0,4,5
 169 766.807617188 169 766.807617188 184 783.39453125 c 0,6,7
 204 804.176757812 204 804.176757812 221 805.44140625 c 0,8,9
 229 806.154296875 229 806.154296875 238 799.706054688 c 0,10,11
 253 782.291992188 253 782.291992188 258 738.487304688 c 0,12,13
 259 726.327148438 259 726.327148438 251 709.114257812 c 128,-1,14
 243 691.901367188 243 691.901367188 229 678.154296875 c 0,15,16
 216 666.245117188 216 666.245117188 205.5 665.434570312 c 128,-1,17
 195 664.624023438 195 664.624023438 193 676.946289062 c 2,18,-1
 190 698.428710938 l 1,19,20
 153 583.381835938 153 583.381835938 150 432.865234375 c 1,21,22
 152 434.54296875 152 434.54296875 162 445.434570312 c 128,-1,23
 172 456.325195312 172 456.325195312 180 465.038085938 c 0,24,25
 185 470.233398438 185 470.233398438 212 498.888671875 c 0,26,27
 225 511.797851562 225 511.797851562 236.5 513.947265625 c 128,-1,28
 248 516.096679688 248 516.096679688 250 504.775390625 c 0,29,30
 253 494.291992188 253 494.291992188 245.5 476.499023438 c 128,-1,31
 238 458.706054688 238 458.706054688 225 445.797851562 c 0,32,33
 200 419.8203125 200 419.8203125 195 413.624023438 c 0,34,35
 184 402.39453125 184 402.39453125 171.5 388.905273438 c 128,-1,36
 159 375.416992188 159 375.416992188 153 369.381835938 c 2,37,-1
 151 367.704101562 l 1,38,39
 159 204.416992188 159 204.416992188 201 129.659179688 c 0,40,41
 206 120.854492188 206 120.854492188 200.5 104.239257812 c 128,-1,42
 195 87.6240234375 195 87.6240234375 182 71.7158203125 c 0,43,44
 170 56.646484375 170 56.646484375 157.5 51.658203125 c 128,-1,45
 145 46.669921875 145 46.669921875 140 55.4736328125 c 0,46,47
 93 140.036132812 93 140.036132812 87 309.001953125 c 1,48,49
 65 292.541015625 65 292.541015625 46 280.598632812 c 0,50,51
 33 273.690429688 33 273.690429688 26 278.81640625 c 128,-1,52
 19 283.943359375 19 283.943359375 22 300.459960938 c 0,53,54
 26 316.81640625 26 316.81640625 37.5 333.465820312 c 128,-1,55
 49 350.116210938 49 350.116210938 62 357.024414062 c 0,56,57
 71 362.576171875 71 362.576171875 85 372.323242188 c 1,0,1
EndSplineSet
EndChar

StartChar: g
Encoding: 103 103 74
AltUni2: 00ff47.ffffffff.0 00210a.ffffffff.0 001d4d.ffffffff.0 00ff47.ffffffff.0 00210a.ffffffff.0 001d4d.ffffffff.0
Width: 361
GlyphClass: 1
Flags: HW
LayerCount: 2
Fore
SplineSet
229 379.154296875 m 0,0,1
 228 382.314453125 228 382.314453125 226.5 390.555664062 c 128,-1,2
 225 398.797851562 225 398.797851562 224 402.958007812 c 0,3,4
 215 467.40625 215 467.40625 216 500.245117188 c 0,5,6
 215 500.40625 215 500.40625 213 500.228515625 c 128,-1,7
 211 500.049804688 211 500.049804688 210 500.2109375 c 0,8,9
 197 481.302734375 197 481.302734375 186 459.072265625 c 0,10,11
 149 393.025390625 149 393.025390625 121 317.53125 c 0,12,13
 88 232.840820312 88 232.840820312 85 190.323242188 c 0,14,15
 82 150.806640625 82 150.806640625 106 157.944335938 c 0,16,17
 140 166.473632812 140 166.473632812 168 213.96875 c 0,18,19
 198 265.141601562 198 265.141601562 220 345.6015625 c 0,20,21
 221 350.44140625 221 350.44140625 224 361.458007812 c 128,-1,22
 227 372.475585938 227 372.475585938 229 379.154296875 c 0,0,1
303 580.247070312 m 1,23,24
 312 575.798828125 312 575.798828125 307 555.603515625 c 1,25,-1
 307 530.603515625 l 2,26,27
 307 496.603515625 307 496.603515625 295 431.534179688 c 1,28,-1
 295 430.534179688 l 2,29,30
 295 415.534179688 295 415.534179688 298 412.051757812 c 0,31,32
 299 410.890625 299 410.890625 299 406.890625 c 0,33,34
 299 404.890625 299 404.890625 300 402.729492188 c 0,35,36
 301 401.569335938 301 401.569335938 301 398.069335938 c 128,-1,37
 301 394.569335938 301 394.569335938 302 393.408203125 c 0,38,39
 313 360.638671875 313 360.638671875 322 268.190429688 c 0,40,41
 335 126.098632812 335 126.098632812 315 68.31640625 c 0,42,43
 309.8828125 61.5517578125 309.8828125 61.5517578125 303 49.2470703125 c 4,44,45
 190 -186.571289062 190 -186.571289062 59 -243.493164062 c 0,46,47
 -20.2666015625 -279.500976562 -20.2666015625 -279.500976562 -21 -279.62109375 c 0,48,49
 -30 -281.172851562 -30 -281.172851562 -16 -251.42578125 c 0,50,51
 -9 -236.551757812 -9 -236.551757812 5 -219.8046875 c 1,52,53
 5 -219.8046875 5 -219.8046875 76 -179.228515625 c 5,54,55
 175 -125.157226562 175 -125.157226562 256 64.8095703125 c 2,56,-1
 260 74.166015625 l 1,57,58
 263 91.68359375 263 91.68359375 263 96.68359375 c 0,59,60
 267 145.040039062 267 145.040039062 257 206.6484375 c 0,61,62
 252 239.453125 252 239.453125 247 274.2578125 c 1,63,64
 232 237.670898438 232 237.670898438 209 198.372070312 c 0,65,66
 147 94.34765625 147 94.34765625 74 74.09375 c 0,67,68
 12 57.0693359375 12 57.0693359375 20 141.782226562 c 0,69,70
 26 204.81640625 26 204.81640625 64 301.702148438 c 0,71,72
 94 378.875 94 378.875 140 466.473632812 c 0,73,74
 158 500.578125 158 500.578125 178 529.359375 c 0,75,76
 189 545.58984375 189 545.58984375 201 558.659179688 c 0,77,78
 213 570.728515625 213 570.728515625 232 580.670898438 c 0,79,80
 238 583.706054688 238 583.706054688 240 583.383789062 c 0,81,82
 245 582.579101562 245 582.579101562 248 585.096679688 c 0,83,84
 263 598.68359375 263 598.68359375 271 601.396484375 c 0,85,86
 286 605.982421875 286 605.982421875 293 598.856445312 c 0,87,88
 297 595.212890625 297 595.212890625 303 582.247070312 c 1,89,-1
 303 580.247070312 l 1,23,24
EndSplineSet
EndChar

StartChar: h
Encoding: 104 104 75
AltUni2: 00ff48.ffffffff.0 00210e.ffffffff.0 002095.ffffffff.0 0013c2.ffffffff.0 000570.ffffffff.0 0002b0.ffffffff.0 00ff48.ffffffff.0 00210e.ffffffff.0 002095.ffffffff.0 0013c2.ffffffff.0 000570.ffffffff.0 0002b0.ffffffff.0
Width: 315
GlyphClass: 1
Flags: HW
LayerCount: 2
Fore
SplineSet
148.5 835.106445312 m 128,-1,1
 156 830.899414062 156 830.899414062 141.5 765.732421875 c 128,-1,2
 127 700.565429688 127 700.565429688 105.5 547.525390625 c 128,-1,3
 84 394.484375 84 394.484375 85.5 383.743164062 c 128,-1,4
 87 373.001953125 87 373.001953125 86 370.162109375 c 1,5,6
 110 416.30078125 110 416.30078125 136.5 467.037109375 c 128,-1,7
 163 517.7734375 163 517.7734375 183 535.555664062 c 0,8,9
 252 596.453125 252 596.453125 269 555.717773438 c 128,-1,10
 286 514.982421875 286 514.982421875 280.5 420.3671875 c 128,-1,11
 275 325.751953125 275 325.751953125 273 307.57421875 c 128,-1,12
 271 289.396484375 271 289.396484375 269 267.217773438 c 128,-1,13
 267 245.040039062 267 245.040039062 265 241.861328125 c 128,-1,14
 263 238.68359375 263 238.68359375 260 218.666015625 c 128,-1,15
 257 198.6484375 257 198.6484375 243.5 173.8203125 c 128,-1,16
 230 148.993164062 230 148.993164062 215 154.40625 c 128,-1,17
 200 159.8203125 200 159.8203125 204.5 182.095703125 c 128,-1,18
 209 204.372070312 209 204.372070312 213 233.728515625 c 0,19,20
 234 409.349609375 234 409.349609375 214 476.567382812 c 0,21,22
 213 481.728515625 213 481.728515625 211 482.049804688 c 2,23,-1
 211 483.049804688 l 1,24,-1
 201 487.659179688 l 2,25,26
 190 491.428710938 190 491.428710938 179 473.19921875 c 0,27,28
 134 400.439453125 134 400.439453125 102.5 290.5078125 c 128,-1,29
 71 180.576171875 71 180.576171875 92.5 143.6171875 c 128,-1,30
 114 106.657226562 114 106.657226562 105 89.10546875 c 128,-1,31
 96 71.5537109375 96 71.5537109375 88 62.8408203125 c 0,32,33
 46 17.5986328125 46 17.5986328125 32 56.8515625 c 0,34,35
 -1 146.161132812 -1 146.161132812 44 484.919921875 c 0,36,37
 48 514.276367188 48 514.276367188 65.5 602.4609375 c 128,-1,38
 83 690.645507812 83 690.645507812 87 721.501953125 c 128,-1,39
 91 752.358398438 91 752.358398438 94 771.875 c 0,40,41
 100 811.91015625 100 811.91015625 129 831.244140625 c 0,42,0
 141 839.313476562 141 839.313476562 148.5 835.106445312 c 128,-1,1
EndSplineSet
EndChar

